<svg xmlns="http://www.w3.org/2000/svg" width="42" height="42" fill="none"><defs><clipPath id="a"><rect width="28" height="28" x="7" y="7" rx="0"/></clipPath></defs><rect width="42" height="42" fill="#988AEA" rx="16"/><g clip-path="url(#a)"><path fill="#E8A772" d="M21.977 12.68q0 .127-.012.255-.013.127-.038.253t-.062.248-.086.241q-.05.118-.11.231t-.131.22q-.071.106-.153.205-.08.1-.171.19-.09.09-.19.172-.099.081-.205.152-.107.071-.22.132-.113.06-.231.11-.118.048-.24.085-.123.037-.249.062t-.253.038-.255.013q-.129 0-.256-.013t-.253-.038-.248-.062q-.123-.037-.241-.086t-.231-.11-.22-.13-.205-.153-.19-.172-.171-.19-.153-.205-.131-.22-.11-.23q-.049-.12-.086-.242t-.062-.248q-.025-.126-.038-.253-.012-.128-.012-.256t.012-.255.038-.253.062-.248.086-.241q.05-.119.11-.232t.131-.219q.071-.107.153-.206.08-.099.171-.19.09-.09.19-.17.099-.082.205-.153.107-.072.22-.132t.231-.11q.118-.048.24-.085.123-.038.249-.063t.253-.037.256-.013.255.013.253.037.248.063.241.086.231.11.22.13.205.153.19.172q.09.09.171.19.082.098.153.205t.131.22q.06.112.11.23.049.119.086.242.037.122.062.248.025.125.038.253.012.127.012.255" style="mix-blend-mode:passthrough"/><path fill="#F2F7FA" d="M10.347 27.595c1.195-6.923 4.331-9.455 8.042-10.52 4.648-1.243 8.725-.344 12.619-2.187 2.357-1.112 2.28.89 2.223 1.195-.547 4.649-3.052 9.024-8.274 11.124-5.685 2.258-11.323-1.958-15.384 4.648a.2.2 0 0 1-.156.077h-.503a.17.17 0 0 1-.137-.077.17.17 0 0 1-.019-.156 21.76 21.76 0 0 1 6.576-7.746 31.7 31.7 0 0 1 9.043-4.474c.273-.076.156-.505-.115-.467a26.8 26.8 0 0 0-7.342 2.71 21.9 21.9 0 0 0-6.562 5.873" style="mix-blend-mode:passthrough"/><path fill="#F2F7FA" d="M28.875 21q0 .086-.017.17t-.05.165-.08.151-.11.133-.132.109q-.072.047-.151.08-.08.033-.164.05-.085.017-.171.017t-.17-.017-.165-.05-.151-.08-.133-.11q-.06-.06-.109-.132-.047-.072-.08-.151-.033-.08-.05-.164-.017-.085-.017-.171t.017-.17.05-.165.08-.151.11-.133q.06-.06.132-.109.072-.047.151-.08.08-.033.164-.05.085-.017.171-.017t.17.017.165.05.151.08.133.11q.06.06.109.132.047.072.08.151.033.08.05.164.017.085.017.171" style="mix-blend-mode:passthrough"/></g></svg>