<svg xmlns="http://www.w3.org/2000/svg" xmlns:xlink="http://www.w3.org/1999/xlink" fill="none" version="1.1" width="42" height="42" viewBox="0 0 42 42"><defs><clipPath id="master_svg0_114_045571"><rect x="7" y="7" width="28" height="28" rx="0"/></clipPath></defs><g><g><rect x="0" y="0" width="42" height="42" rx="16" fill="#5EE3F1" fill-opacity="1"/></g><g clip-path="url(#master_svg0_114_045571)"><g><path d="M10.7734375,13.1630861375C10.7734375,11.2681640375,12.3238281,9.7177734375,14.2187502,9.7177734375L27.8359375,9.7177734375C29.7308595,9.7177734375,31.2812515,11.2681640375,31.2812515,13.1630861375" fill="#80B328" fill-opacity="1" style="mix-blend-mode:passthrough"/></g><g><path d="M28.9296895,12.2451171875L13.1250002,12.2451171875C11.2300781,12.2451171875,9.6796875,13.7955077875,9.6796875,15.6904298875L9.6796875,28.9302731875C9.6796875,30.8251951875,11.2300781,32.3755851875,13.1250002,32.3755851875L28.9296895,32.3755851875C30.8246095,32.3755851875,32.375001499999996,30.8251951875,32.375001499999996,28.9302731875L32.375001499999996,15.6904298875C32.375001499999996,13.7955077875,30.8246095,12.2451171875,28.9296895,12.2451171875ZM25.5636725,20.314257587500002C25.1316415,20.759961087500002,19.7968755,26.012696187499998,19.5207033,26.283398187499998C19.4769535,26.3244141875,19.4250002,26.3572271875,19.3675785,26.3736321875C18.9300785,26.5048831875,16.2695317,27.3662111875,16.242188,27.3744141875C16.2039061,27.3853511875,16.1683593,27.390820187499997,16.1300783,27.390820187499997C16.0343752,27.390820187499997,15.9414067,27.3525391875,15.8703127,27.2841791875C15.7718749,27.1884761875,15.7363286,27.0435541875,15.7773442,26.9123051875C15.785546799999999,26.8876951875,16.5730467,24.3064451875,16.728906600000002,23.7267581875C16.7453127,23.6638671875,16.7781248,23.606446187499998,16.8246098,23.5599611875C16.8246098,23.5599611875,22.6269545,17.7658204875,22.8320325,17.5634770875C22.9769535,17.4185547875,23.5074215,16.9482426875,24.2347665,16.9482426875C24.6996095,16.9482426875,25.1371095,17.1396488875,25.5308585,17.519726787499998C25.9792975,17.9490232875,26.2117195,18.4111332875,26.2199235,18.8896488875C26.2308595,19.3763675875,26.0093745,19.8548831875,25.5636725,20.314257587500002Z" fill="#FFFFFF" fill-opacity="1" style="mix-blend-mode:passthrough"/></g></g></g></svg>