<svg xmlns="http://www.w3.org/2000/svg" xmlns:xlink="http://www.w3.org/1999/xlink" fill="none" version="1.1" width="20" height="19" viewBox="0 1 20 19"><defs><clipPath id="master_svg0_114_061050"><rect x="0" y="0" width="20" height="20" rx="0"/></clipPath><linearGradient x1="0.5" y1="0" x2="1" y2="1.2581303119659424" id="master_svg1_98_024835"><stop offset="0%" stop-color="#2855B3" stop-opacity="1"/><stop offset="98.57142567634583%" stop-color="#D4E1FA" stop-opacity="1"/></linearGradient></defs><g clip-path="url(#master_svg0_114_061050)"><g><path d="M9.958984325,1.2578125C5.142578325000001,1.2578125,1.236328125,5.164062700000001,1.236328125,9.9804687C1.236328125,14.7968745,5.140625725,18.7031245,9.958984325,18.7031245C14.777345125,18.7031245,18.681640125,14.7988295,18.681640125,9.9804687C18.681640125,5.164062700000001,14.777345125,1.2578125,9.958984325,1.2578125ZM12.246094125,10.8652353L9.812500025,10.8652353C9.324218725,10.8652353,8.927735825,10.46875,8.927735825,9.9804687L8.927735825,5.3574224C8.927735825,4.8691411,9.324218725,4.472656300000001,9.812500025,4.472656300000001C10.300781225,4.472656300000001,10.697266625,4.8691411,10.697266625,5.3574224L10.697266625,9.0976567L12.246094125,9.0976567C12.734375125,9.0976567,13.130860125,9.4941406,13.130860125,9.9824219C13.130860125,10.4707031,12.734375125,10.8652353,12.246094125,10.8652353Z" fill="url(#master_svg1_98_024835)" fill-opacity="1" style="mix-blend-mode:passthrough"/></g></g></svg>