<svg xmlns="http://www.w3.org/2000/svg" xmlns:xlink="http://www.w3.org/1999/xlink" fill="none" version="1.1" width="72" height="72" viewBox="0 0 72 72"><g><g><ellipse cx="36" cy="36" rx="32" ry="32" fill="#BDCFF4" fill-opacity="1"/><path d="M71,36Q71,36.8592,70.95784,37.717369Q70.91568,38.575535,70.831467,39.430599Q70.747253,40.285664,70.621178,41.135567Q70.495102,41.985466,70.327484,42.828159Q70.159859,43.670853,69.951088,44.504303Q69.742325,45.337761,69.492912,46.159966Q69.2435,46.98217,68.954041,47.791145Q68.664581,48.600121,68.335777,49.393917Q68.006973,50.187717,67.639618,50.964424Q67.27226300000001,51.741135,66.867241,52.498886Q66.462215,53.25663,66.0205,53.993591Q65.57878099999999,54.730553,65.101433,55.444954Q64.62408400000001,56.159355,64.112259,56.849476Q63.600433,57.539593,63.055363,58.203766Q62.510292,58.867935,61.933285,59.504562Q61.356281,60.14119,60.748734,60.748734Q60.14119,61.356281,59.504562,61.933289Q58.867935,62.510292,58.203766,63.055367Q57.539593,63.600433,56.849472,64.112259Q56.159355,64.62408400000001,55.444954,65.101433Q54.730553,65.57878099999999,53.993591,66.0205Q53.25663,66.462219,52.498886,66.867245Q51.741135,67.27226999999999,50.964424,67.63962599999999Q50.187717,68.006981,49.393917,68.335785Q48.600121,68.664589,47.791145,68.954041Q46.98217,69.2435,46.159966,69.492912Q45.337757,69.742325,44.504303,69.951088Q43.670849,70.159859,42.828156,70.327484Q41.985466,70.495102,41.135563,70.621178Q40.28566,70.747253,39.430599,70.831467Q38.575535,70.91568,37.717369,70.95784Q36.8592,71,36,71Q35.140797,71,34.282630999999995,70.95784Q33.424465,70.91568,32.569401,70.831467Q31.714336,70.747253,30.864433,70.621178Q30.014532,70.495102,29.171839,70.327484Q28.329147,70.159859,27.495693,69.951088Q26.662241,69.742325,25.840036,69.492912Q25.01783,69.2435,24.208855,68.954041Q23.399878,68.664581,22.606079,68.335777Q21.812279,68.006973,21.03557,67.639618Q20.258862,67.27226300000001,19.501114,66.867241Q18.743365,66.462215,18.006403,66.0205Q17.269441,65.57878099999999,16.555039999999998,65.101433Q15.84064,64.62408400000001,15.150523,64.112259Q14.460406,63.600433,13.7962351,63.055363Q13.1320629,62.510292,12.4954357,61.933285Q11.8588095,61.356281,11.2512622,60.748734Q10.643714899999999,60.14119,10.0667105,59.504562Q9.489706,58.867935,8.9446344,58.203766Q8.3995624,57.539593,7.8877363,56.849472Q7.3759103,56.159355,6.8985634000000005,55.444954Q6.4212165,54.730553,5.9794984,53.993591Q5.5377805,53.25663,5.1327556,52.498886Q4.72773069,51.741135,4.36037463,50.964424Q3.9930185378,50.187717,3.6642162799999998,49.393917Q3.33541405,48.600121,3.04595768,47.791145Q2.7565013,46.98217,2.5070882,46.159966Q2.2576752,45.337757,2.0489063,44.504303Q1.8401372,43.670849,1.6725154,42.828156Q1.5048933,41.985466,1.3788220999999998,41.135563Q1.2527509000000001,40.28566,1.1685344999999998,39.430599Q1.0843181999999998,38.575535,1.0421591000000001,37.717369Q1,36.8592,1,36Q1,35.140797,1.0421591000000001,34.282630999999995Q1.0843181999999998,33.424465,1.1685344999999998,32.569401Q1.2527509000000001,31.714336,1.3788220999999998,30.864433Q1.5048933,30.014532,1.6725154,29.171839Q1.8401372,28.329147,2.0489063,27.495693Q2.2576752,26.662241,2.5070883,25.840036Q2.7565014000000003,25.01783,3.04595768,24.208855Q3.33541405,23.399878,3.6642162799999998,22.606079Q3.9930185378,21.812279,4.36037463,21.03557Q4.72773069,20.258862,5.1327556,19.501114Q5.5377805,18.743365,5.9794985,18.006403Q6.4212165,17.269441,6.8985634000000005,16.555039999999998Q7.3759103,15.84064,7.8877361,15.150523Q8.3995619,14.460406,8.944634,13.7962351Q9.489706,13.1320629,10.0667105,12.4954357Q10.643714899999999,11.8588095,11.2512622,11.2512622Q11.8588095,10.643714899999999,12.4954357,10.0667105Q13.132062,9.489706,13.7962341,8.9446344Q14.460405,8.3995624,15.150523,7.8877363Q15.84064,7.3759103,16.555039999999998,6.8985634000000005Q17.269441,6.4212165,18.006403,5.9794984Q18.743365,5.5377805,19.501114,5.1327556Q20.258862,4.72773069,21.035572,4.36037463Q21.812279,3.9930185378,22.606079,3.6642162799999998Q23.399878,3.33541405,24.208855,3.04595768Q25.01783,2.7565013,25.840036,2.5070882Q26.662241,2.2576752,27.495693,2.0489063Q28.329147,1.8401372,29.171839,1.6725154Q30.014532,1.5048933,30.864435,1.3788220999999998Q31.714336,1.2527509000000001,32.569401,1.1685344999999998Q33.424465,1.0843181999999998,34.282630999999995,1.0421591000000001Q35.140797,1,36,1Q36.8592,1,37.717369,1.0421591000000001Q38.575535,1.0843181999999998,39.430599,1.1685344999999998Q40.285664,1.2527509000000001,41.135567,1.3788220999999998Q41.985466,1.5048933,42.828159,1.6725154Q43.670853,1.8401372,44.504303,2.0489063Q45.337761,2.2576752,46.159966,2.5070883Q46.98217,2.7565014000000003,47.791145,3.04595768Q48.600121,3.33541405,49.393917,3.6642162799999998Q50.187717,3.9930185378,50.964424,4.36037463Q51.741135,4.72773069,52.498886,5.1327556Q53.25663,5.5377805,53.993591,5.9794985Q54.730553,6.4212165,55.444954,6.8985634000000005Q56.159355,7.3759103,56.849476,7.8877361Q57.539593,8.3995619,58.203766,8.944634Q58.867935,9.489706,59.504562,10.0667105Q60.14119,10.643714899999999,60.748734,11.2512622Q61.356281,11.8588095,61.933289,12.4954357Q62.510292,13.132062,63.055367,13.7962341Q63.600433,14.460405,64.112259,15.150523Q64.62408400000001,15.84064,65.101433,16.555039999999998Q65.57878099999999,17.269441,66.0205,18.006403Q66.462219,18.743365,66.867245,19.501114Q67.27226999999999,20.258862,67.63962599999999,21.035572Q68.006981,21.812279,68.335785,22.606079Q68.664589,23.399878,68.954041,24.208855Q69.2435,25.01783,69.492912,25.840036Q69.742325,26.662241,69.951088,27.495693Q70.159859,28.329147,70.327484,29.171839Q70.495102,30.014532,70.621178,30.864435Q70.747253,31.714336,70.831467,32.569401Q70.91568,33.424465,70.95784,34.282630999999995Q71,35.140797,71,36ZM68,36Q68,35.214443,67.96145200000001,34.429834Q67.922909,33.645226,67.845913,32.863453Q67.768913,32.081676,67.653648,31.304623Q67.53837999999999,30.527569,67.38512399999999,29.757109Q67.231869,28.986647,67.040993,28.224632Q66.850121,27.46262,66.622086,26.71089Q66.39405099999999,25.959158,66.129402,25.219522Q65.864754,24.479885,65.564137,23.754128Q65.263519,23.028368,64.92765,22.318233Q64.591782,21.608101,64.221474,20.915302Q63.851166,20.222504,63.447308,19.548711Q63.043449,18.874917,62.607018,18.221750999999998Q62.170586,17.568585,61.702633,16.937621999999998Q61.23468,16.306658,60.736328,15.699415Q60.237976,15.092173,59.71043,14.510114Q59.182884,13.9280548,58.627411,13.3725824Q58.071938,12.8171101,57.489883,12.2895641Q56.907822,11.7620168,56.300583,11.2636657Q55.693336,10.765314100000001,55.06237,10.2973585Q54.431404,9.8294034,53.778236,9.392972Q53.125069,8.9565401,52.451279,8.5526838Q51.777489,8.1488276,51.084694,7.7785194Q50.391891,7.4082108,49.681755,7.0723422Q48.971619,6.736473800000001,48.245865,6.4358547Q47.520103,6.1352355,46.780472,5.8705897Q46.040833,5.6059439,45.289108,5.3779091999999995Q44.537376,5.1498743000000005,43.77536,4.95899981Q43.013348,4.7681253,42.242886,4.61487097Q41.472424,4.46161661,40.695374,4.34635165Q39.91832,4.23108667,39.136551,4.15408874Q38.354774,4.077090792,37.570164,4.038545396Q36.785553,4,36,4Q35.214443,4,34.429834,4.038545396Q33.645226,4.077090792,32.863453,4.15408874Q32.081676,4.23108667,31.304623,4.34635162Q30.527569,4.46161661,29.757109,4.61487097Q28.986647,4.7681253,28.224632,4.95899975Q27.46262,5.1498743000000005,26.71089,5.3779091999999995Q25.959158,5.6059439,25.219522,5.8705897Q24.479885,6.1352355,23.754128,6.4358547Q23.028368,6.736473800000001,22.318233,7.0723422Q21.608101,7.4082105,20.915302,7.7785192Q20.222504,8.1488276,19.548711,8.5526838Q18.874917,8.9565401,18.221750999999998,9.392972Q17.568585,9.8294034,16.937621999999998,10.2973585Q16.306658,10.765313599999999,15.699415,11.2636652Q15.092173,11.762016299999999,14.510114,12.2895632Q13.9280548,12.8171101,13.3725824,13.3725824Q12.8171101,13.9280548,12.2895641,14.510114Q11.7620168,15.092173,11.2636657,15.699415Q10.765314100000001,16.306658,10.2973585,16.937621999999998Q9.8294034,17.568586,9.392972,18.221752000000002Q8.9565401,18.874918,8.5526838,19.548711Q8.1488276,20.222504,7.7785194,20.915302Q7.4082108,21.608101,7.0723422,22.318233Q6.736473800000001,23.028368,6.4358547,23.754128Q6.1352355,24.479885,5.8705897,25.219521Q5.6059439,25.959158,5.3779091999999995,26.71089Q5.1498743000000005,27.46262,4.95899981,28.224632Q4.7681253,28.986647,4.61487097,29.757109Q4.46161661,30.527569,4.34635165,31.304623Q4.23108667,32.081676,4.15408874,32.863453Q4.077090792,33.645226,4.038545396,34.429836Q4,35.214443,4,36Q4,36.785553,4.038545396,37.570164Q4.077090792,38.354774,4.15408874,39.136547Q4.23108667,39.91832,4.34635162,40.69537Q4.46161661,41.472424,4.61487097,42.242886Q4.7681253,43.013348,4.95899975,43.77536Q5.1498743000000005,44.537376,5.3779091999999995,45.289108Q5.6059439,46.040833,5.8705897,46.780468Q6.1352355,47.520103,6.4358547,48.245865Q6.736473800000001,48.971619,7.0723422,49.681755Q7.4082105,50.391891,7.7785192,51.08469Q8.1488276,51.777489,8.5526838,52.451279Q8.9565401,53.125069,9.392972,53.778236Q9.8294034,54.431404,10.2973585,55.06237Q10.765313599999999,55.693336,11.2636652,56.300583Q11.762016299999999,56.907822,12.2895632,57.48988Q12.8171101,58.071938,13.3725824,58.627411Q13.9280548,59.182884,14.510114,59.71043Q15.092173,60.237976,15.699415,60.736328Q16.306658,61.23468,16.937621999999998,61.702633Q17.568586,62.170586,18.221752000000002,62.607018Q18.874918,63.043449,19.548711,63.447308Q20.222504,63.851166,20.915302,64.22147799999999Q21.608101,64.591782,22.318233,64.92765399999999Q23.028368,65.263519,23.754128,65.56414000000001Q24.479885,65.864761,25.219521,66.129406Q25.959158,66.39405099999999,26.71089,66.622089Q27.46262,66.850121,28.224632,67.040997Q28.986647,67.23187300000001,29.757109,67.38512399999999Q30.527569,67.53837999999999,31.304623,67.653645Q32.081676,67.768913,32.863453,67.845913Q33.645226,67.922909,34.429836,67.961456Q35.214443,68,36,68Q36.785553,68,37.570164,67.96145200000001Q38.354774,67.922909,39.136547,67.845913Q39.91832,67.768913,40.69537,67.653648Q41.472424,67.53837999999999,42.242886,67.38512399999999Q43.013348,67.231869,43.77536,67.040993Q44.537376,66.850121,45.289108,66.622086Q46.040833,66.39405099999999,46.780468,66.129402Q47.520103,65.864754,48.245865,65.564137Q48.971619,65.263519,49.681755,64.92765Q50.391891,64.591782,51.08469,64.221474Q51.777489,63.851166,52.451279,63.447308Q53.125069,63.043449,53.778236,62.607018Q54.431404,62.170586,55.06237,61.702633Q55.693336,61.23468,56.300583,60.736328Q56.907822,60.237976,57.48988,59.71043Q58.071938,59.182884,58.627411,58.627411Q59.182884,58.071938,59.71043,57.489883Q60.237976,56.907822,60.736328,56.300583Q61.23468,55.693336,61.702633,55.06237Q62.170586,54.431404,62.607018,53.778236Q63.043449,53.125069,63.447308,52.451279Q63.851166,51.777489,64.22147799999999,51.084694Q64.591782,50.391891,64.92765399999999,49.681755Q65.263519,48.971619,65.56414000000001,48.245865Q65.864761,47.520103,66.129406,46.780472Q66.39405099999999,46.040833,66.622089,45.289108Q66.850121,44.537376,67.040997,43.77536Q67.23187300000001,43.013348,67.38512399999999,42.242886Q67.53837999999999,41.472424,67.653645,40.695374Q67.768913,39.91832,67.845913,39.136551Q67.922909,38.354774,67.961456,37.570164Q68,36.785553,68,36Z" fill="#FFFFFF" fill-opacity="0.5199999809265137"/></g><g><path d="M31.262399000000002,38.099316C31.262399000000002,38.099316,24.8792517,39.047798,24.9932363,31.815618999999998C24.9932363,31.815618999999998,23.511435,31.934179999999998,23.3974504,30.985697000000002C23.2834656,30.037217,24.6512821,27.191767,24.7652671,27.310326C24.8792517,27.428886,23.8533888,16.311487669999998,35.764792,16.00085931615C35.764792,16.00085931615,44.824301,15.68667433,44.426493,27.070835000000002C44.426493,27.070835000000002,44.484625,30.511456000000003,42.204933,33.119785C39.925236,35.728107,39.355314,40.11484,43.002826999999996,42.841726C46.650339,45.568613,51.323709,46.161415000000005,50.981756000000004,60.507214L50.999994,64L21.0037707353,63.234104C21.0037707353,63.234104,20.88978601,55.290558,21.9156487,51.25951C21.9156487,51.25951,23.055496,46.872778,28.7547336,42.960285C28.7547336,42.960285,31.718338,41.774685000000005,31.262399000000002,38.099316Z" fill="#597CC4" fill-opacity="1" style="mix-blend-mode:passthrough"/></g><g><path d="M21,63.5L21,59.292102299999996C21,59.292102299999996,26.0520873,54.6237683,34.247693,58.9151559C42.443302,63.206544,50.526611,54.0438509,50.526611,53C50.526611,53,52.234957,57.8528767,51,64C51,64,35,73,21,63.5Z" fill="#A6BAE2" fill-opacity="1" style="mix-blend-mode:passthrough"/></g><g><path d="M31,38Q35.1644611,38.6843562,38,37C38,37,35.750472099999996,42.5642471,28,43.5C28,43.5,28.625,43.1499023,29.5,42.5C30.375,41.8500977,31.5,40.9003906,31,38Z" fill="#2855B3" fill-opacity="1" style="mix-blend-mode:passthrough"/></g><g><path d="M52.9118381,33.6172171C52.9118381,33.6172171,50.2179329,30.9533389,48.0524662,32.67665213C48.0524662,32.67665213,43.6313396,35.4800899,52.9119096,43C52.9119096,43,62.223704,36.3923626,57.814876,32.67665213Q55.3866587,30.9539151,52.9118381,33.6172171Z" fill="#FFFFFF" fill-opacity="1" style="mix-blend-mode:passthrough"/><path d="M58.427474000000004,31.88516071L58.393508,31.86106348Q55.600043299999996,29.8791955,52.863132,32.26995444Q52.34199,31.89267267,51.7248802,31.59818634Q49.2978446,30.4399986,47.46814224,31.86398824Q47.052947577,32.14283821,46.69072816,32.65405947Q45.9570462,33.6895471,46.00253111,35.0517325Q46.12734419,38.7896414,52.2823553,43.776956L52.8718476,44.254614000000004L53.4906139,43.815538000000004Q55.923213000000004,42.08937,57.78257,39.8747172Q59.494797,37.83531,59.885092,36.0735312Q60.437647,33.579312,58.459317999999996,31.911998555L58.427474000000004,31.88516071ZM57.201954,33.4682482Q55.5039301,32.29676646,53.6443911,34.2979271L52.9422011,35.0535958L52.2087049,34.3282757Q51.6552935,33.781032,50.863524,33.4031978Q49.5394151,32.77132952,48.675163,33.4591151L48.6332347,33.4924828L48.5879804,33.5211784Q48.4781318,33.5908333,48.3226199,33.8103162Q47.97841483,34.2961128,48.0014172,34.9849875Q48.0904685,37.6519046,52.9470873,41.7327709Q54.7943907,40.3234692,56.2508364,38.5887189Q59.139475,35.1481054,57.201954,33.4682482Z" fill-rule="evenodd" fill="#2855B3" fill-opacity="1" style="mix-blend-mode:passthrough"/></g></g></svg>