<svg xmlns="http://www.w3.org/2000/svg" xmlns:xlink="http://www.w3.org/1999/xlink" fill="none" version="1.1" width="62" height="58" viewBox="-1 1 62 58"><defs><clipPath id="master_svg0_103_018933"><rect x="0" y="0" width="62" height="62" rx="0"/></clipPath><clipPath id="master_svg1_103_019549"><rect x="9" y="9" width="45" height="45" rx="0"/></clipPath></defs><g clip-path="url(#master_svg0_103_018933)"><g clip-path="url(#master_svg1_103_019549)"><g><path d="M28.226491140625,36.7155L28.226491140625,15.2392492C28.226491140625,11.965499900000001,25.465743140625,9,22.297742840625,9C19.023993540625,9,16.470244140625,11.8642497,16.470244140625,15.1357498L16.470244140625,36.4095C14.724244140625,38.045248,13.500244140625,40.295248,13.500244140625,42.952499C13.500244140625,47.963249,17.489493640625,52.053745,22.297742840625,52.053745C27.101491140625,52.053745,31.090742140625,48.066746,31.090742140625,43.053745C31.090742140625,40.396498,30.069242140625,38.351248,28.226491140625,36.713246999999996L28.226491140625,36.7155ZM22.297742840625,49.60125C18.821493140625,49.60125,15.957243440625,46.635746,15.853743540625,43.056C15.752493340625,39.27375,18.411993040625,37.63575,18.411993040625,37.63575L18.411993040625,14.625C18.411993040625,12.8857501,20.457242940625,11.1487501,22.196493140625,11.1487501C23.933492140625,11.1487501,26.082243140625,12.8857501,26.082243140625,14.625L26.082243140625,37.840498C27.616742140625,38.965498,28.534742140625,41.215496,28.534742140625,43.055992C28.741741140625003,46.635746,25.776242140625,49.603497,22.297742840625,49.603497L22.297742840625,49.60125ZM31.095241140625,16.4654999L34.470241140625,16.4654999C35.035641140625,16.4654999,35.493988140625,16.0071507,35.493988140625,15.4417496C35.493988140625,14.876348,35.035641140625,14.4179993,34.470241140625,14.4179993L31.095241140625,14.4202499C30.529840140625,14.4202499,30.071493140625,14.8785977,30.071491140625,15.4439998C30.071491140625,15.9547496,30.582239140625,16.4654999,31.092991140625,16.4654999L31.095241140625,16.4654999ZM34.470241140625,17.4892492L31.095241140625,17.4892492C30.529840140625,17.4892492,30.071491140625,17.9475975,30.071491140625,18.5129995C30.071491140625,19.078402,30.529838140625,19.536749,31.095241140625,19.536749999999998L34.470241140625,19.5345C35.035641140625,19.5345,35.493992140625,19.076152,35.493992140625,18.5107498C35.493992140625,17.9453478,35.035641140625,17.4870005,34.470241140625,17.4870005L34.470241140625,17.4892492ZM34.470241140625,20.555999999999997L31.095241140625,20.555999999999997C30.529840140625,20.555999999999997,30.071493140625,21.014349,30.071493140625,21.57975C30.071493140625,22.145151,30.529840140625,22.603499,31.095241140625,22.603499L34.470241140625,22.603499C35.035641140625,22.603499,35.493988140625,22.145151,35.493988140625,21.57975C35.493988140625,21.014349,35.035641140625,20.555999999999997,34.470241140625,20.555999999999997ZM25.672742140624997,39.27375L24.345242140625,38.14875L24.345242140625,32.726248C24.345242140625,31.601252,23.526242140625,30.681,22.401242240625002,30.681C21.276242740625,30.681,20.353743040624998,31.603497,20.353743040624998,32.728498L20.353743040624998,38.14875L19.026242740625,39.27375C17.901243240625,40.295248,17.388243440625,41.624996,17.388243440625,43.056C17.388243440625,45.819,19.638243240625002,48.170246,22.401242240625002,48.170246C25.161992140625,48.170246,27.411993140625,45.92025,27.411993140625,43.056C27.308483140625,41.626465,26.690616140625,40.28282,25.672742140624997,39.27375ZM40.808491140625,27.614248C37.536991140625,30.885748,32.116739140625,38.76075,32.116739140625,43.465496C32.116739140625,48.170246,36.002491140625,52.055992,40.808491140625,52.055992C45.616737140625,52.055992,49.502491140625,48.273746,49.502491140625,43.465496C49.502491140625,38.762999,44.183489140625,30.887999,40.808491140625,27.614248Z" fill="#FF7B7B" fill-opacity="0.30000001192092896" style="mix-blend-mode:passthrough"/></g></g></g></svg>