<svg xmlns="http://www.w3.org/2000/svg" xmlns:xlink="http://www.w3.org/1999/xlink" fill="none" version="1.1" width="15" height="15" viewBox="0 0 15 15"><defs><clipPath id="master_svg0_110_036694"><rect x="0" y="0" width="15" height="15" rx="0"/></clipPath></defs><g clip-path="url(#master_svg0_110_036694)"><g><path d="M12.20678711875,11.2494630375L10.86059621875,11.2494630375C10.54228541875,11.2494630375,10.28432651875,10.9916505375,10.28432651875,10.6731939375C10.28432651875,10.3547363375,10.54243181875,10.0969238375,10.86059621875,10.0969238375L12.20678711875,10.0969238375C12.33598711875,10.0969238375,12.44086931875,9.9917488375,12.44086931875,9.8628425375L12.44086931875,2.8389160374999998C12.44086931875,2.7100098375,12.33584021875,2.6048340375,12.20678711875,2.6048340375L5.18300781875,2.6048340375C5.05380871875,2.6048340375,4.94892581875,2.7100098375,4.94892581875,2.8389160374999998L4.94892581875,4.1698732375C4.94892581875,4.4884767375,4.69082033875,4.7461426375,4.37265628875,4.7461426375C4.05449220875,4.7461426375,3.79638671875,4.4883301375,3.79638671875,4.1698732375L3.79638671875,2.8389160374999998C3.79638671875,2.0741211175,4.41850590875,1.4521484375,5.18315431875,1.4521484375L12.20693401875,1.4521484375C12.97143551875,1.4521484375,13.59370131875,2.0739746075,13.59370131875,2.8389160374999998L13.59370131875,9.8626957375C13.59355541875,10.6274910375,12.97128961875,11.2494630375,12.20678711875,11.2494630375Z" fill="#2855B3" fill-opacity="1" style="mix-blend-mode:passthrough"/></g><g><path d="M9.9017582375,13.5551271L2.8779785374999998,13.5551271C2.1134765775,13.5551271,1.4912109375,12.933301,1.4912109375,12.1683598L1.4912109375,5.1445801C1.4912109375,4.37978518,2.1133301275000003,3.7578125,2.8779785374999998,3.7578125L9.9017582375,3.7578125C10.6662597375,3.7578125,11.2885255375,4.37963867,11.2885255375,5.1445801L11.2885255375,12.1683598C11.2883796375,12.933301,10.6662597375,13.5551271,9.9017582375,13.5551271ZM2.8779785374999998,4.9104981C2.7487793375000003,4.9104981,2.6438965375,5.0156738999999995,2.6438965375,5.1445801L2.6438965375,12.1683598C2.6438965375,12.297266,2.7489258375,12.402442,2.8779785374999998,12.402442L9.9017582375,12.402442C10.0309572375,12.402442,10.1358404375,12.297266,10.1358404375,12.1683598L10.1358404375,5.1445801C10.1358404375,5.0156738999999995,10.0308113375,4.9104981,9.9017582375,4.9104981L2.8779785374999998,4.9104981Z" fill="#2855B3" fill-opacity="1" style="mix-blend-mode:passthrough"/></g></g></svg>