<svg xmlns="http://www.w3.org/2000/svg" xmlns:xlink="http://www.w3.org/1999/xlink" fill="none" version="1.1" width="42" height="42" viewBox="0 0 42 42"><defs><clipPath id="master_svg0_98_034235"><rect x="7.304347991943359" y="7.304347991943359" width="27.39130401611328" height="27.39130401611328" rx="0"/></clipPath></defs><g><g><rect x="0" y="0" width="42" height="42" rx="16" fill="#28B3A5" fill-opacity="1"/></g><g clip-path="url(#master_svg0_98_034235)"><g><path d="M21.00015016069336,23.73598859194336C24.09237196069336,23.73598859194336,26.60145796069336,20.26125189194336,26.60145796069336,17.49269719194336C26.60145796069336,17.36162569194336,26.59075796069336,17.23322889194336,26.580058960693357,17.10483219194336L25.702680960693357,16.32642689194336C25.62243296069336,16.25955359194336,24.113771460693357,14.99966049194336,21.165996560693358,14.99966049194336L21.016200060693357,15.002335424043359C17.94537826069336,15.04780926894336,16.49021516069336,16.27560319194336,16.431366760693358,16.32910179194336L15.41756764269336,17.201129691943358C15.409542846493359,17.29742719194336,15.40151805048386,17.39372489194336,15.40151805048386,17.49269719194336C15.398843118493359,20.26125189194336,17.90792946069336,23.73598859194336,21.00015016069336,23.73598859194336Z" fill="#FFFFFF" fill-opacity="1" style="mix-blend-mode:passthrough"/></g><g><path d="M31.89491227319336,28.26796136694336C30.63501727319336,22.70945236694336,26.151830273193358,22.348337366943362,26.151830273193358,22.348337366943362L21.21123227319336,27.90684736694336C20.99991227319336,28.22783836694336,20.47830127319336,28.21713636694336,20.285705273193358,27.88812236694336L15.85066887319336,22.348337366943362C15.85066887319336,22.348337366943362,11.367482773193359,22.70945236694336,10.10758990419336,28.26796136694336C9.88289560319336,29.26303636694336,10.388457773193359,30.782398366943358,11.386207473193359,31.27191136694336C12.876144373193359,32.00216636694336,15.71692177319336,32.79394936694336,21.00258827319336,32.75382436694336C26.28825427319336,32.79394936694336,29.129030273193358,32.00216636694336,30.61896927319336,31.27191136694336C31.61404427319336,30.782398366943358,32.11960427319336,29.26303636694336,31.89491227319336,28.26796136694336ZM26.601219273193358,15.67438126694336L26.601219273193358,10.862177866943359C26.601219273193358,10.862177866943359,20.99991227319336,7.22961976694336,15.398605373193359,10.862177866943359L15.398605373193359,15.67438126694336C15.398605373193359,15.67438126694336,17.18010997319336,14.18979356694336,20.93036427319336,14.13896986694336C24.680619273193358,14.08814616694336,26.601219273193358,15.67438126694336,26.601219273193358,15.67438126694336ZM20.44887627319336,12.956650066943359L20.44887627319336,12.17556996694336L19.681171373193358,12.17556996694336C19.39227867319336,12.17556996694336,19.15688417319336,11.94552566694336,19.15688417319336,11.65930776694336C19.15688417319336,11.373089766943359,19.39227867319336,11.14304566694336,19.681171373193358,11.14304566694336L20.44887627319336,11.14304566694336L20.44887627319336,10.36196556694336C20.44887627319336,10.075747726943359,20.684272273193358,9.845703546943358,20.973163273193357,9.845703546943358C21.26205527319336,9.845703546943358,21.49745127319336,10.075747726943359,21.49745127319336,10.36196556694336L21.49745127319336,11.14304566694336L22.31865427319336,11.14304566694336C22.60754727319336,11.14304566694336,22.84294127319336,11.373089766943359,22.84294127319336,11.65930776694336C22.84294127319336,11.94552566694336,22.60754727319336,12.17556996694336,22.31865427319336,12.17556996694336L21.49745127319336,12.17556996694336L21.49745127319336,12.956650066943359C21.49745127319336,13.24286796694336,21.26205527319336,13.47291136694336,20.973163273193357,13.47291136694336C20.684272273193358,13.47291136694336,20.44887627319336,13.24019286694336,20.44887627319336,12.956650066943359Z" fill="#FFFFFF" fill-opacity="1" style="mix-blend-mode:passthrough"/></g><g><path d="M27.74548194194336,26.47817611694336C27.45219114194336,26.47817611694336,27.17302584194336,26.70924822694336,26.934612741943358,26.84339350694336C26.69640274194336,26.70907535694336,26.41683124194336,26.47817611694336,26.12374354194336,26.47817611694336C25.31216293194336,26.47817611694336,24.65200424194336,27.039477226943358,24.65200424194336,27.73008331694336C24.65200424194336,28.27081321694336,25.01602649194336,28.82934831694336,25.734111641943358,29.388920816943358C26.24142574194336,29.78461481694336,26.743861941943358,30.03544541694336,26.76499984194336,30.045990716943358L26.93471434194336,30.13034991694336L27.10422564194336,30.045990716943358C27.12536384194336,30.03544541694336,27.62779974194336,29.78461481694336,28.13511374194336,29.388920816943358C28.85319904194336,28.82917551694336,29.21722124194336,28.27081321694336,29.21722124194336,27.73008331694336C29.21722124194336,27.03965014694336,28.55685904194336,26.47817611694336,27.74548194194336,26.47817611694336Z" fill="#ED5564" fill-opacity="1" style="mix-blend-mode:passthrough"/></g></g></g></svg>