<svg xmlns="http://www.w3.org/2000/svg" width="42" height="42" fill="none"><defs><clipPath id="a"><rect width="27.391" height="27.391" x="7.304" y="7.304" rx="0"/></clipPath></defs><rect width="42" height="42" fill="#28B3A5" rx="16"/><g clip-path="url(#a)"><path fill="#FFF" d="M21 23.736c3.092 0 5.601-3.475 5.601-6.243 0-.131-.01-.26-.02-.388l-.878-.779c-.08-.066-1.59-1.326-4.537-1.326l-.15.002c-3.07.046-4.526 1.274-4.585 1.327l-1.013.872a4 4 0 0 0-.016.292c-.003 2.768 2.506 6.243 5.598 6.243" style="mix-blend-mode:passthrough"/><path fill="#FFF" d="M31.895 28.268c-1.26-5.559-5.743-5.92-5.743-5.92l-4.94 5.559c-.212.32-.734.31-.926-.019l-4.435-5.54s-4.484.361-5.743 5.92c-.225.995.28 2.514 1.278 3.004 1.49.73 4.33 1.522 9.617 1.482 5.285.04 8.126-.752 9.616-1.482.995-.49 1.5-2.009 1.276-3.004M26.6 15.674v-4.812S21 7.23 15.4 10.862v4.812s1.781-1.484 5.531-1.535 5.671 1.535 5.671 1.535m-6.152-2.717v-.781h-.768a.52.52 0 0 1-.524-.517.52.52 0 0 1 .524-.516h.768v-.781a.52.52 0 0 1 .524-.516.52.52 0 0 1 .524.516v.781h.822a.52.52 0 0 1 .524.516.52.52 0 0 1-.524.517h-.822v.78a.52.52 0 0 1-.524.517.52.52 0 0 1-.524-.516" style="mix-blend-mode:passthrough"/><path fill="#ED5564" d="M27.745 26.478c-.293 0-.572.231-.81.365-.239-.134-.518-.365-.811-.365-.812 0-1.472.561-1.472 1.252 0 .54.364 1.1 1.082 1.659a6.7 6.7 0 0 0 1.031.657l.17.084.17-.084a6.7 6.7 0 0 0 1.03-.657c.718-.56 1.082-1.118 1.082-1.659 0-.69-.66-1.252-1.472-1.252" style="mix-blend-mode:passthrough"/></g></svg>