<svg xmlns="http://www.w3.org/2000/svg" width="180" height="95" fill="none"><defs><linearGradient id="a" x1=".728" x2=".258" y1="-.026" y2=".928"><stop offset="0%" stop-color="#D2E4FF"/><stop offset="8.936%" stop-color="#D0E2FE"/><stop offset="100%" stop-color="#2855B3"/></linearGradient><linearGradient id="b" x1=".738" x2=".5" y1=".064" y2=".5"><stop offset="0%" stop-color="#E8F3FF"/><stop offset="100%" stop-color="#BFDBFF"/></linearGradient><linearGradient id="c" x1=".373" x2=".796" y1=".361" y2=".766"><stop offset="0%" stop-color="#EAF3FF"/><stop offset="100%" stop-color="#84A0E9"/></linearGradient><linearGradient id="d" x1="1" x2=".258" y1=".442" y2=".504"><stop offset="0%" stop-color="#E2EFFF"/><stop offset="29.223%" stop-color="#CBE2FF"/><stop offset="100%" stop-color="#BBD1FF"/></linearGradient><linearGradient id="e" x1=".5" x2=".5" y1="0" y2="1"><stop offset="0%" stop-color="#CEEAFF"/><stop offset="100%" stop-color="#A8BAFF"/></linearGradient><linearGradient id="f" x1="1" x2=".134" y1=".342" y2=".587"><stop offset="0%" stop-color="#FDE50F"/><stop offset="100%" stop-color="#EFBD67"/></linearGradient><radialGradient id="g" cx="0" cy="0" r="1" gradientTransform="translate(149.596 9.974)scale(4.61437)" gradientUnits="userSpaceOnUse"><stop offset="0%" stop-color="#BFD7FF"/><stop offset="100%" stop-color="#7195FF"/></radialGradient></defs><path fill="#D4E1FA" fill-rule="evenodd" d="M179.508 69.337c0 6.701-9.457 13.13-26.288 17.868-16.832 4.738-39.661 7.4-63.466 7.4s-46.634-2.662-63.467-7.4C9.457 82.466 0 76.038 0 69.337s9.457-13.13 26.287-17.868c16.833-4.738 39.662-7.4 63.467-7.4s46.634 2.662 63.466 7.4c16.831 4.738 26.288 11.167 26.288 17.868" style="mix-blend-mode:passthrough"/><path fill="#99B9E1" fill-opacity=".4" d="M144.782 78.946q0 .163-.014.325-.014.163-.042.325-.027.161-.069.322-.04.161-.096.32-.055.16-.123.318-.069.158-.15.313-.082.156-.177.31-.095.152-.203.303-.107.15-.228.297-.12.147-.253.29-.133.144-.277.283-.145.14-.302.275-.156.135-.324.266-.168.13-.346.256-.179.126-.368.247-.189.12-.388.235-.2.115-.408.224-.209.11-.426.213-.218.103-.444.2t-.46.187-.476.174-.49.16-.503.147-.514.132-.526.117-.534.102-.543.086-.55.072q-.275.031-.554.055t-.559.04-.561.024q-.281.008-.563.008t-.563-.008-.561-.024-.56-.04-.554-.055-.55-.072-.542-.086-.534-.102q-.266-.055-.526-.117t-.514-.132-.503-.146q-.249-.077-.49-.16-.242-.084-.476-.175t-.46-.187-.444-.2-.426-.213-.408-.224q-.2-.115-.388-.235-.19-.12-.368-.247-.179-.125-.346-.256-.168-.13-.325-.266-.156-.135-.3-.275-.145-.14-.278-.283t-.253-.29-.229-.297-.202-.304-.177-.309-.15-.313-.123-.317-.097-.32q-.04-.162-.068-.323-.028-.162-.042-.325-.014-.162-.014-.325t.014-.325.042-.324.068-.323.097-.32.123-.318.15-.313.177-.31.202-.302.229-.298.253-.29.277-.283.301-.275.325-.266.346-.256.368-.247.388-.235.408-.224q.208-.11.426-.213t.444-.2.46-.187.476-.174.49-.16q.248-.077.503-.147.254-.07.514-.131.26-.063.526-.117.265-.055.534-.102.27-.048.543-.087.273-.04.55-.071.275-.032.554-.056.278-.024.559-.04.28-.016.561-.024t.563-.008.563.008.561.024.559.04.555.056.55.07q.272.04.542.088t.534.102q.265.054.526.117.26.062.514.131.255.07.503.147t.49.16.476.174.46.187.444.2.426.213.408.224.388.235.368.247.346.256q.168.13.324.266.157.135.302.275.144.14.277.283t.253.29.228.298.203.303.177.309q.081.155.15.313t.123.317q.055.16.096.32.042.162.07.324.027.162.04.324.015.162.015.325" style="mix-blend-mode:passthrough"/><path fill="#FFCEA9" d="M142.792 28.487c.133 1.145 1.499 6.091 1.206 7.784S139.05 40.8 139.05 40.8l-.63-2.903 2.585-2.517-.698-4.807z" style="mix-blend-mode:passthrough"/><path fill="#EDEDED" d="M139.178 23.617a2.05 2.05 0 0 1 2.602.783c.681 1.141 1.403 5.038 1.465 5.71 0 0-.964 1.335-2.408 1.11z" style="mix-blend-mode:passthrough"/><path fill="#203561" d="M133.849 78.76a4 4 0 0 1-3.025-.365c-.729.02-4.68-1.67-5.217-.249-.47 1.26 1.24 2.385 2.155 2.616 1.996.487 3.464 1.482 4.275 1.65.6.125 1.362.21 1.849-.26.569-.579.521-2.664-.037-3.393" style="mix-blend-mode:passthrough"/><path fill="#203561" d="M132.037 82.054c-.8-.17-2.279-1.165-4.275-1.649-.766-.184-2.087-1.022-2.22-2.023-.177 1.144 1.362 2.163 2.22 2.367 1.996.488 3.464 1.482 4.275 1.65.6.125 1.362.21 1.849-.26.123-.136.215-.3.262-.48a2.4 2.4 0 0 1-1.008.45 2.4 2.4 0 0 1-1.103-.055M140.258 75.868a3.99 3.99 0 0 1-3.024-.364c-.729.02-4.68-1.673-5.214-.252-.474 1.247 1.24 2.384 2.152 2.62 1.996.483 3.464 1.481 4.274 1.652.6.126 1.363.207 1.85-.263.568-.565.534-2.65-.038-3.393" style="mix-blend-mode:passthrough"/><path fill="#203561" d="M138.446 79.174c-.8-.17-2.278-1.165-4.274-1.649-.766-.183-2.088-1.022-2.203-2.023-.177 1.145 1.362 2.163 2.203 2.368 1.996.483 3.464 1.481 4.274 1.652.6.126 1.363.208 1.85-.263.122-.136.21-.3.262-.48a2.37 2.37 0 0 1-2.112.395" style="mix-blend-mode:passthrough"/><path fill="#2855B3" d="M140.337 65.133a24 24 0 0 0-.913-4.327s.272-3.747.409-7.283c.153-4.02 1.55-7.56.446-10.761l-12.39 2.749s.749 16.028.92 17.956c.088 1.509.275 3.011.554 4.497.566 3.113 1.485 10.512 1.485 10.512 1.311.763 3.031.34 3.031.34s-.092-9.357-.177-11.602c-.102-2.725-.187-2.517-.187-2.517l.409-6.813.269-3.39s.34 2.49.565 4.725c.198 1.938.664 3.693 1.189 7.3.453 3.13 1.188 9.423 1.188 9.423 1.312.763 3.093.13 3.093.13s.46-8.214.109-10.94" style="mix-blend-mode:passthrough"/><path fill="#FFCEA9" d="M138.525 23.682c-.943.047-1.648.29-1.767 0a13 13 0 0 1-.215-1.479c.109-.272.204-.565.204-.565 1.186-.733 1.574-2.013 1.703-3.506.266-2.554-1.113-4.769-3.664-5.041-2.401-.249-4.162 1.437-4.632 3.747-.256 1.145-.76 3.3-.075 5.185.378 1.049.872 1.887 1.362 2.044q.715-.021 1.42-.123s.13.709.215 1.162.054.681-.851 1.26c-.906.58 1.362 1.703 2.854 1.594s3.15-1.022 3.62-1.972c.52-1.073.477-2.337-.174-2.306" style="mix-blend-mode:passthrough"/><path fill="#F4F4F4" d="M137.16 23.825c.262.651-.406 1.448-2.177 2.007s-1.934-.16-1.934-.16-2.602 1.185-3.45 1.775c-1.063.746-1.533 2.899-1.68 6.537-.166 4.207-.177 10.448-.04 11.528 0 0 1.992 1.982 4.536 1.771s6.812-2.46 7.874-4.2c-.03-3.69-.46-4.292.137-6.415 1.362-4.868 2.087-6.857 1.423-10.08-.548-2.667-1.318-2.998-2.384-2.97a22 22 0 0 0-2.306.207" style="mix-blend-mode:passthrough"/><path fill="#FFCEA9" d="M123.931 38.166c2.091.528 2.578-.79 2.858-1.89.68-2.64 1.021-5.039 1.515-6.524.583-1.771 1.196-2.044 2.044-2.384 1.021-.402 1.89.45 1.539 2.701-.395 2.66-.92 4.534-1.914 7.682-.259.824-.841 2.286-1.703 2.99-1.076.873-2.697.835-5.156.226-1.05-.263-2.204-.886-4.18-1.813-.53-.248-.942-.412-1.964-.889a6.9 6.9 0 0 1-2.62-2.044c-.537-.776-.605-1.141-.496-1.318s.378-.174.68.157a5.7 5.7 0 0 0 1.506 1.386s-.66-.681-1.022-1.124a5.6 5.6 0 0 1-.79-1.291c-.19-.45.198-1.063.494-.743s.44.65.98 1.298c.28.34.597.647.948.91a10.6 10.6 0 0 1-.893-1.438 2.4 2.4 0 0 1-.316-1.298c0-.235.34-.518.68-.068.341.45.464 1.022 1.125 1.703.473.498.882.78.892.644s-.29-.409-.46-.984c-.17-.576 0-1.19.317-1.26.317-.072.259-.052.514.49.256.541.647.947.944 1.727a3.5 3.5 0 0 0 .858 1.478c.487.57 1.621 1.176 3.62 1.676" style="mix-blend-mode:passthrough"/><path fill="#EDEDED" d="M131.12 27.01c-1.396-.21-2.383.42-2.996 2.518s-1.042 3.86-1.042 3.86c.551.8 1.39 1.355 2.34 1.553 1.668.402 2.264-.392 2.264-.392s.463-2.207.753-3.727.408-3.563-1.318-3.812" style="mix-blend-mode:passthrough"/><path fill="#F4F4F4" d="m141.536 31.36-13.647 12.727-.797 24.473s3.828 1.87 8.174.859l.797-9.396 1.205 8.517-.143.259a12.3 12.3 0 0 0 5.109-4.259z" style="mix-blend-mode:passthrough"/><path fill="#EDEDED" d="m127.082 33.387-.681 2.953s-.573 2.068-2.044 1.543a38 38 0 0 1-4.043-1.986l-1.764 3.622 3.648 1.703s5.064 1.805 6.47 0c1.407-1.806 2.988-6.68 2.988-6.68z" style="mix-blend-mode:passthrough"/><path fill="#30344E" d="M129.22 11.374c-1.588 1.16-.839 3.727.777 4.52l.69.504c.719.108 1.474.148 2.15.447.406.292.408.775.41 1.233 0 .116 0 .231.008.34-.134.111-.398.34-.529.454.213.644.364 1.372.913 1.837.425.371 1.004.478 1.547.586q1.358.34 2.299.013c.704-1.399 1.089-2.925 1.51-4.422.24-.958.517-2.11-.178-2.955-.934-1.087-2.463-1.399-3.832-1.516-.655-.071-1.31-.02-1.962.03-.617.048-1.234.096-1.85.04-.222-.125-.413-.326-.604-.526-.375-.394-.746-.785-1.35-.585" style="mix-blend-mode:passthrough"/><path fill="url(#a)" fill-rule="evenodd" d="M61.453 3.639H112.8c.447 0 .808.362.808.808v67.876a.81.81 0 0 1-.808.808H61.453a.81.81 0 0 1-.808-.808V4.447c0-.446.361-.808.808-.808" style="mix-blend-mode:passthrough"/><path fill="url(#b)" fill-rule="evenodd" d="m70.503 11.896 4.86-6.33 33.393.023a.81.81 0 0 1 .808.808v60.645H63.677v-50.14l6.66-4.845a.7.7 0 0 0 .166-.161" style="mix-blend-mode:passthrough"/><path fill="#95B3EF" d="M68.73 19.875h32.51v-.606H68.73zM68.73 27.188h32.51v-.606H68.73zM68.73 34.466h32.51v-.607H68.73zM100.86 42.438l.428.429-3.323 3.323 3.323 3.324-.428.428-3.323-3.323-3.324 3.323-.428-.428 3.323-3.324-3.323-3.323.428-.429 3.324 3.324z" style="mix-blend-mode:passthrough"/><path fill="url(#c)" fill-rule="evenodd" d="M75.363 5.566q-8.565 4.444-11.686 11.337 3.744-2.388 9.782-2.173.058-3.379.442-4.947.385-1.565 1.462-4.217" style="mix-blend-mode:passthrough"/><path fill="url(#d)" fill-rule="evenodd" d="M97.436.202v7.075H77.625c-.558 0-1.01-.452-1.01-1.01V.202zm-10.007.809a1.314 1.314 0 1 0 0 2.628 1.314 1.314 0 0 0 0-2.628" style="mix-blend-mode:passthrough"/><path fill="#A8BAFF" fill-rule="evenodd" d="M76.614.202 77.746 0h20.086l-.396.202z" style="mix-blend-mode:passthrough"/><path fill="url(#e)" fill-rule="evenodd" d="M97.832 0v7.04l-.396.237V.202z" style="mix-blend-mode:passthrough"/><path fill="#243E9C" fill-rule="evenodd" d="M87.43 1.01h.05a1.213 1.213 0 1 0 1.263 1.264v.05a1.314 1.314 0 1 1-1.314-1.313" style="mix-blend-mode:passthrough"/><path fill="#60A3FF" d="m36.95 39.402.087.395q-.3.066-.608.115l-.063-.398q.297-.05.585-.112m-1.576.223q.299-.021.592-.057l.049.402q-.304.038-.615.059zm2.537-.485.125.384a10 10 0 0 1-.592.176l-.103-.39q.288-.077.57-.17m-3.522.511q.302.003.597-.006l.014.404q-.304.009-.615.006zm4.442-.867.165.368a10 10 0 0 1-.572.236l-.141-.378q.277-.105.548-.226m-5.242.833q.202.015.4.024l-.018.402a10 10 0 0 1-.41-.022zm6.125-1.288.204.35q-.267.155-.544.295l-.182-.362q.264-.134.522-.283m.829-.544.238.328q-.251.182-.51.35l-.217-.342q.248-.159.489-.336m.786-.62.257.313q-.234.191-.475.382l-.25-.315q.238-.19.468-.38m.764-.655.27.3q-.225.204-.462.403l-.263-.307q.234-.199.455-.396m.736-.686.281.291q-.215.21-.443.42l-.275-.296q.225-.209.437-.415m.704-.715.295.277q-.207.219-.425.44l-.287-.285q.214-.216.417-.432m.663-.752.31.259q-.193.232-.4.464l-.303-.268q.206-.228.393-.455m.616-.789.328.239q-.178.243-.372.49l-.318-.252q.19-.24.362-.477m.532-.794.345.21q-.157.258-.335.518l-.334-.229q.173-.25.324-.5m.48-.881.14.066.037-.014.068-.03.07-.033.18.362a3 3 0 0 1-.22.097l-.056.02-.062.118-.075.137-.354-.196q.037-.066.073-.133l.026-.049-.028-.184q.06-.009.121-.024l.016-.004.002-.002zm-1.026-.043c.164.11.32.176.483.202l-.069.4a1.65 1.65 0 0 1-.636-.264zm2.139-.51.258.31a6 6 0 0 1-.503.378l-.222-.338q.22-.146.467-.35m-.746-.371.386.119q-.089.288-.212.588l-.374-.153q.114-.285.2-.554m1.465-.308.291.281q-.228.237-.44.433l-.275-.297q.203-.188.424-.417m-3.497.522c.12.192.239.346.34.439l-.275.295a2.6 2.6 0 0 1-.406-.52zm4.166-1.263.308.262q-.21.243-.405.461l-.299-.273q.191-.21.396-.45m-1.944.093.402.03q-.021.3-.095.629l-.394-.09q.066-.3.087-.57m-2.64.3c.064.18.143.363.23.534l-.362.182a6 6 0 0 1-.25-.578zm5.203-1.174.328.237a10 10 0 0 1-.376.491l-.314-.255q.183-.224.362-.473m-2.274-.17q.1.298.12.651l-.405.02a2 2 0 0 0-.097-.541zm2.818-.663.345.207q-.16.272-.327.521l-.336-.222q.161-.244.318-.506m-6.358 1.096.405-.02q.014.262.09.558l-.392.1a3.3 3.3 0 0 1-.103-.638m6.839-1.97.36.183q-.141.28-.29.542l-.351-.198q.142-.255.28-.528m-3.999.632q.302.183.498.485l-.338.22a1.14 1.14 0 0 0-.37-.36zm-2.549.238.318.251a1 1 0 0 0-.19.467l-.399-.063c.039-.252.128-.475.271-.655m1.474-.509q.206.01.435.044.112.019.214.045l-.107.39a2 2 0 0 0-.168-.034 4 4 0 0 0-.394-.043zm5.504-1.265.37.165q-.127.286-.258.556l-.364-.176c.085-.178.17-.357.252-.545m-6.598 1.461q.277-.152.66-.188l.04.402q-.306.032-.51.142zm6.987-2.383.376.147a22 22 0 0 1-.233.566l-.372-.157q.114-.27.229-.556m.351-.942.38.135q-.104.293-.21.574l-.378-.143q.105-.276.208-.566m.32-.952.384.123q-.094.294-.19.58l-.382-.131zm.293-.963.388.114q-.086.298-.174.584l-.388-.12q.088-.282.174-.578m.269-.968.392.103q-.08.298-.162.588l-.388-.109q.08-.288.158-.582m.25-.976.393.097-.148.59-.392-.101q.073-.289.147-.586m.23-.98.395.088q-.068.3-.137.593l-.395-.093q.07-.291.138-.589m.215-.985.394.083q-.06.3-.127.594l-.394-.087q.063-.29.127-.59" style="mix-blend-mode:passthrough"/><path fill="url(#f)" fill-rule="evenodd" d="M21.689 53.81q-2.525-.595-7.431 3.742-3.13 2.117-4.555 1.387 4.54 2.814 8.931.986 4.391-1.83 3.055-6.115" style="mix-blend-mode:passthrough"/><path fill="#F3C753" fill-rule="evenodd" d="M21.665 53.735q1.875-1.283 2.359-1.167l.167.477q-1.699.451-2.326 1.367M15.651 59.556q1.913-.594 5.107-3.512l-.674-.738q-3.03 2.767-4.73 3.296-1.709.527-4.927.134l-.121.993q3.43.419 5.345-.173" style="mix-blend-mode:passthrough"/><path fill="url(#g)" d="M154.24 9.299q0 .179-.018.356-.018.178-.053.354-.035.175-.086.346-.052.171-.12.336-.07.165-.153.323-.085.158-.184.306-.1.149-.213.287t-.24.265q-.126.126-.264.24t-.287.212q-.149.1-.306.184-.158.084-.323.153t-.336.12-.347.087q-.175.034-.353.052t-.356.018q-.18 0-.357-.018-.178-.018-.353-.052-.176-.035-.347-.087t-.336-.12-.323-.153-.306-.184-.287-.212-.264-.24-.24-.265q-.114-.138-.213-.287-.1-.148-.183-.306-.085-.158-.153-.323-.069-.165-.12-.336-.052-.171-.087-.346-.035-.176-.053-.354-.017-.177-.017-.356t.017-.357q.018-.178.053-.353t.087-.346q.051-.171.12-.337.068-.165.153-.322.084-.158.183-.307.1-.148.213-.287t.24-.264q.126-.127.264-.24t.287-.213.306-.183.323-.153q.165-.068.336-.12t.347-.087.353-.052.357-.018.356.018.353.052.347.087q.17.052.336.12.165.069.323.153.157.084.306.183.149.1.287.213t.265.24q.126.126.24.264.113.139.212.287.1.149.184.307.084.157.152.322.069.166.12.337.052.17.087.346t.053.353q.017.178.017.357" style="mix-blend-mode:passthrough"/><path fill="#B3B4B8" d="M133.009 25.705q2.5 2 5-1 .3-.9.06-1.08-.16-.12-.56.08l.166-.167-.666.667q-1.904 1.904-4 1.5"/></svg>