<svg xmlns="http://www.w3.org/2000/svg" xmlns:xlink="http://www.w3.org/1999/xlink" fill="none" version="1.1" width="180" height="95" viewBox="0 0 180 95"><defs><linearGradient x1="0.7281908392906189" y1="-0.02567354030907154" x2="0.2579071565079652" y2="0.9275442114733559" id="master_svg0_98_023971"><stop offset="0%" stop-color="#D2E4FF" stop-opacity="1"/><stop offset="8.935772627592087%" stop-color="#D0E2FE" stop-opacity="1"/><stop offset="100%" stop-color="#2855B3" stop-opacity="1"/></linearGradient><linearGradient x1="0.7375634908676147" y1="0.06418085843324661" x2="0.5000000764554108" y2="0.5000000119721617" id="master_svg1_98_024072"><stop offset="0%" stop-color="#E8F3FF" stop-opacity="1"/><stop offset="100%" stop-color="#BFDBFF" stop-opacity="1"/></linearGradient><linearGradient x1="0.37263792753219604" y1="0.36146801710128784" x2="0.7960914056667666" y2="0.7664539474416819" id="master_svg2_98_024076"><stop offset="0%" stop-color="#EAF3FF" stop-opacity="1"/><stop offset="100%" stop-color="#84A0E9" stop-opacity="1"/></linearGradient><linearGradient x1="1" y1="0.4422660171985626" x2="0.25810642405334994" y2="0.5038810064470591" id="master_svg3_98_024090"><stop offset="0%" stop-color="#E2EFFF" stop-opacity="1"/><stop offset="29.22312021255493%" stop-color="#CBE2FF" stop-opacity="1"/><stop offset="100%" stop-color="#BBD1FF" stop-opacity="1"/></linearGradient><linearGradient x1="0.5" y1="0" x2="0.5" y2="1" id="master_svg4_98_024086"><stop offset="0%" stop-color="#CEEAFF" stop-opacity="1"/><stop offset="100%" stop-color="#A8BAFF" stop-opacity="1"/></linearGradient><linearGradient x1="1" y1="0.3422780930995941" x2="0.1343350379518315" y2="0.5872666939433222" id="master_svg5_98_024034"><stop offset="0%" stop-color="#FDE50F" stop-opacity="1"/><stop offset="100%" stop-color="#EFBD67" stop-opacity="1"/></linearGradient><radialGradient cx="0" cy="0" r="1" gradientUnits="userSpaceOnUse" id="master_svg6_98_024083" gradientTransform="translate(149.59564546104247 9.973862427279585) rotate(0) scale(4.6143706607591355 4.6143706607591355)"><stop offset="0%" stop-color="#BFD7FF" stop-opacity="1"/><stop offset="100%" stop-color="#7195FF" stop-opacity="1"/></radialGradient></defs><g><g><g><g><path d="M179.50781,69.33691437499999C179.50781,76.038139375,170.05132,82.466461375,153.22044,87.204818375C136.38753,91.943180375,113.55891,94.605468375,89.753906,94.605468375C65.948906,94.605468375,43.120285,91.943180375,26.287382,87.204818375C9.4565039,82.466461375,0,76.038139375,0,69.33691437499999C0,62.635690374999996,9.4565039,56.207371375,26.287382,51.469010875C43.120285,46.730650875,65.948906,44.068359375,89.753906,44.068359375C113.55891,44.068359375,136.38753,46.730650875,153.22044,51.469010875C170.05132,56.207371375,179.50781,62.635690374999996,179.50781,69.33691437499999Z" fill-rule="evenodd" fill="#D4E1FA" fill-opacity="1" style="mix-blend-mode:passthrough"/></g></g><g><g><g><path d="M144.78155366064453,78.9461012Q144.78155166064454,79.1087551,144.76773666064452,79.2712131Q144.75391766064453,79.433671,144.72631866064452,79.595542Q144.69871866064454,79.75741239999999,144.65739966064453,79.91830590000001Q144.61608166064454,80.0791988,144.56114766064454,80.2387276Q144.50621266064454,80.3982563,144.43779366064453,80.556036Q144.36937366064453,80.7138157,144.28763166064454,80.8694658Q144.20589066064454,81.025116,144.11102666064454,81.1782618Q144.01616266064454,81.3314075,143.90840366064452,81.4816799Q143.80064366064454,81.6319523,143.68025066064453,81.7789898Q143.55985666064453,81.9260273,143.42711666064454,82.0694752Q143.29437666064453,82.212923,143.14960866064453,82.3524365Q143.00484466064452,82.4919495,142.84840366064452,82.6271915Q142.69196366064455,82.7624345,142.52422166064454,82.8930785Q142.35647966064454,83.0237235,142.17784466064452,83.1494565Q141.99920666064452,83.27519050000001,141.81010466064453,83.3957095Q141.62100266064454,83.5162275,141.42189066064452,83.6312405Q141.22277866064454,83.74625449999999,141.01413566064454,83.8554865Q140.80549266064452,83.9647185,140.58782166064452,84.0679055Q140.37015166064452,84.1710915,140.14397766064454,84.2679845Q139.91780466064452,84.3648765,139.68367166064453,84.4552425Q139.44954066064452,84.5456085,139.20801566064452,84.6292295Q138.96649166064452,84.7128505,138.71815266064453,84.7895255Q138.46981466064454,84.8661995,138.21526166064453,84.9357435Q137.96071066064454,85.0052855,137.70055666064454,85.0675305Q137.44040366064453,85.1297765,137.17527766064453,85.1845735Q136.91015066064452,85.2393685,136.64068866064454,85.2865845Q136.37122566064454,85.3338005,136.09807666064452,85.3733215Q135.82492866064453,85.4128435,135.54875066064454,85.4445765Q135.27257366064453,85.4763085,134.99403366064453,85.5001745Q134.71549366064454,85.52404250000001,134.43526266064453,85.5399855Q134.15503166064454,85.5559275,133.87378166064454,85.5639085Q133.59253366064453,85.5718895,133.31094666064453,85.5718895Q133.02935866064453,85.5718895,132.74811066064453,85.5639085Q132.46686266064452,85.5559275,132.18663166064454,85.5399835Q131.90639866064453,85.5240405,131.62785916064453,85.5001745Q131.34931946064452,85.4763085,131.07314206064453,85.4445765Q130.79696466064453,85.4128435,130.52381606064452,85.3733225Q130.25066756064453,85.3338005,129.98120496064453,85.2865845Q129.71174236064454,85.2393685,129.44661526064453,85.1845725Q129.18148806064454,85.1297765,128.92133526064453,85.0675305Q128.66118236064455,85.0052855,128.40663056064454,84.9357425Q128.15207816064452,84.8661985,127.90373996064453,84.7895245Q127.65540166064453,84.7128495,127.41387556064453,84.6292285Q127.17234996064454,84.5456085,126.93821856064453,84.4552425Q126.70408676064453,84.3648765,126.47791386064453,84.2679845Q126.25174046064453,84.1710915,126.03407046064453,84.0679045Q125.81640026064453,83.9647175,125.60775776064453,83.8554855Q125.39911506064453,83.7462535,125.20000246064453,83.63123949999999Q125.00089006064454,83.5162255,124.81178736064453,83.3957085Q124.62268476064453,83.2751895,124.44404746064453,83.1494565Q124.26540996064453,83.0237235,124.09766866064453,82.8930775Q123.92992686064453,82.7624335,123.77348526064453,82.6271905Q123.61704366064453,82.4919495,123.47227876064453,82.3524365Q123.32751366064453,82.212923,123.19477426064454,82.0694752Q123.06203486064453,81.9260273,122.94164066064454,81.7789898Q122.82124644064453,81.6319523,122.71348751064453,81.481679Q122.60572863064453,81.3314066,122.51086467064454,81.1782608Q122.41600066064453,81.025115,122.33426011064454,80.8694649Q122.25251955064454,80.7138147,122.18409935064453,80.556035Q122.11567914064453,80.3982563,122.06074412064453,80.2387276Q122.00580911064453,80.0791988,121.96449163064453,79.91830590000001Q121.92317416564453,79.75741239999999,121.89557376164453,79.595542Q121.86797335364453,79.433671,121.85415650764453,79.2712131Q121.84033966064453,79.1087551,121.84033966064453,78.9461012Q121.84033966064453,78.78344680000001,121.85415650764453,78.6209888Q121.86797335364453,78.4585309,121.89557376164453,78.29666040000001Q121.92317416564453,78.1347895,121.96449163064453,77.973896Q122.00580911064453,77.8130026,122.06074412064453,77.6534739Q122.11567914064453,77.4939451,122.18409935064453,77.3361659Q122.25251955064454,77.1783867,122.33426011064454,77.0227365Q122.41600066064453,76.8670864,122.51086461064453,76.7139401Q122.60572863064453,76.5607939,122.71348751064453,76.4105215Q122.82124644064453,76.2602487,122.94164066064454,76.1132114Q123.06203486064453,75.9661739,123.19477436064453,75.822726Q123.32751386064453,75.6792779,123.47227876064453,75.5397649Q123.61704366064453,75.4002519,123.77348526064453,75.2650099Q123.92992686064453,75.1297681,124.09766836064453,74.9991233Q124.26540996064453,74.8684785,124.44404746064453,74.7427454Q124.62268476064453,74.617012,124.81178736064453,74.4964936Q125.00089006064454,74.3759747,125.20000246064453,74.2609609Q125.39911506064453,74.1459472,125.60775756064453,74.0367155Q125.81640026064453,73.9274838,126.03407046064453,73.8242972Q126.25174046064453,73.7211106,126.47791336064454,73.6242177Q126.70408676064453,73.5273248,126.93821856064453,73.436959Q127.17234996064454,73.3465934,127.41387556064453,73.26297247Q127.65540126064454,73.17935169,127.90373946064453,73.10267711Q128.15207766064452,73.02600253,128.40662956064452,72.95645905Q128.66118146064454,72.8869155,128.92133476064453,72.82467055Q129.18148806064454,72.76242557,129.44661526064453,72.70762911Q129.71174236064454,72.65283263,129.98120496064453,72.60561669Q130.25066756064453,72.55840074,130.52381606064452,72.51887904Q130.79696466064453,72.47935736,131.07314206064453,72.44762515Q131.34931946064452,72.415892944,131.62785916064453,72.392026655Q131.90639866064453,72.36816036,132.18663166064454,72.352217481Q132.46686266064452,72.336274603,132.74811066064453,72.3282935517Q133.02935866064453,72.3203125,133.31094666064453,72.3203125Q133.59253366064453,72.3203125,133.87378166064454,72.3282935517Q134.15503166064454,72.336274603,134.43526366064452,72.352217481Q134.71549366064454,72.36816036,134.99403366064453,72.392026648Q135.27257366064453,72.415892944,135.54874966064455,72.44762515Q135.82492766064453,72.47935736,136.09807566064453,72.51887906Q136.37122566064454,72.55840074,136.64068766064452,72.60561669Q136.91015066064452,72.65283263,137.17527666064453,72.70762908Q137.44040366064453,72.76242557,137.70055666064454,72.82467055Q137.96071066064454,72.8869155,138.21526166064453,72.95645905Q138.46981466064454,73.02600259,138.71815266064453,73.10267717Q138.96649166064452,73.17935169,139.20801566064452,73.26297259Q139.44954066064452,73.3465934,139.68367166064453,73.436959Q139.91780466064452,73.5273248,140.14397766064454,73.6242176Q140.37015166064452,73.7211106,140.58782166064452,73.8242972Q140.80549266064452,73.9274838,141.01413566064454,74.0367155Q141.22277866064454,74.1459472,141.42189066064452,74.2609609Q141.62100266064454,74.3759747,141.81010466064453,74.4964933Q141.99920666064452,74.617012,142.17784466064452,74.7427452Q142.35648166064453,74.8684783,142.52422366064454,74.9991233Q142.69196366064455,75.1297681,142.84840566064452,75.2650099Q143.00484666064455,75.4002519,143.14961266064452,75.5397649Q143.29437666064453,75.6792777,143.42711666064454,75.8227258Q143.55985666064453,75.9661736,143.68024866064454,76.1132109Q143.80064366064454,76.2602484,143.90840366064452,76.410521Q144.01616266064454,76.5607939,144.11102666064454,76.7139397Q144.20589066064454,76.8670855,144.28763166064454,77.0227361Q144.36937366064453,77.1783857,144.43779166064454,77.3361654Q144.50621266064454,77.4939446,144.56114766064454,77.6534734Q144.61608166064454,77.8130021,144.65739966064453,77.973896Q144.69871866064454,78.1347895,144.72631866064452,78.29666040000001Q144.75391766064453,78.4585309,144.76773666064452,78.6209888Q144.78155166064454,78.78344680000001,144.78155366064453,78.9461012Z" fill="#99B9E1" fill-opacity="0.4000000059604645" style="mix-blend-mode:passthrough"/></g></g><g><path d="M142.79243329375,28.4873046875C142.92525769375,29.6319142875,144.29096889375,34.5782613875,143.99807309375,36.2713288875C143.70517779375,37.9643973875,139.04949903375,40.7986696875,139.04949903375,40.7986696875L138.41943359375,37.8962668875L141.00440809375,35.3788089875L140.30622599375,30.5721284875L142.79243329375,28.4873046875Z" fill="#FFCEA9" fill-opacity="1" style="mix-blend-mode:passthrough"/></g><g><path d="M139.17822265625,23.616603215C139.63118955625,23.405394576,140.14886426625,23.371329334,140.62907775625,23.514406197C141.10928885625,23.657481745,141.51797935625,23.974293414999998,141.78022435625,24.400115315C142.46137685625,25.541317675000002,143.18339915625,29.438440775,143.24470045625,30.109535675C143.24470045625,30.109535675,142.28087165625,31.444913874999997,140.83682695625,31.220079875L139.17822265625,23.616603215Z" fill="#EDEDED" fill-opacity="1" style="mix-blend-mode:passthrough"/></g><g><path d="M133.8485288875,78.7592773375C132.8302068875,79.0420236375,131.7437681875,78.9091675375,130.8242120875,78.3947712775C130.0953793875,78.4152150175,126.1446956975,76.7255512475,125.6065846905,78.1460927175C125.1365891375,79.4065247375,126.8462818875,80.5306954375,127.7624327875,80.7623455375C129.7582096875,81.2494828375,131.2260923875,82.2442026375,132.0366644875,82.4111266375C132.6360778875,82.5371680375,133.3989691875,82.6223325375,133.8859929875,82.1522288375C134.4547547875,81.5731067375,134.4070739875,79.4882843375,133.8485288875,78.7592773375Z" fill="#203561" fill-opacity="1" style="mix-blend-mode:passthrough"/></g><g><path d="M132.03667213125,82.0541246375C131.23631813125,81.8837955375,129.75821783125,80.8890757375,127.76244093125,80.4053428375C126.99614463125,80.2213846375,125.67470863125,79.3833700375,125.54188412525,78.3818359375C125.36478436125,79.5264455375,126.90418883125,80.5450134375,127.76244093125,80.7494051375C129.75821783125,81.2365479375,131.22610043125,82.2312677375,132.03667213125,82.3981866375C132.63608553125,82.5242338375,133.39897723125,82.60939743750001,133.88600063125,82.1392884375C134.00860883125,82.0030274375,134.10056403125,81.8395083375,134.14824393125,81.6589601375C133.85194203125,81.8872003375,133.50455523125,82.0370905375,133.14013763125,82.1086304375C132.77231593125,82.1767611375,132.39427613125,82.1563227375,132.03667213125,82.0541246375Z" fill="#203561" fill-opacity="1" style="mix-blend-mode:passthrough"/></g><g><path d="M140.2581710625,75.86840485C139.2398490625,76.15115125,138.1534099625,76.02170505,137.2338557625,75.50390393C136.5050229625,75.52434266,132.5543378625,73.83127397,132.0196333825,75.2518155C131.5462326425,76.49862345,133.2593303625,77.63641855,134.1720747625,77.87147305C136.1678504625,78.35520645,137.6357354625,79.35333585,138.4463057625,79.52366495C139.0457205625,79.64970585,139.8086109625,79.73146585,140.2956342625,79.26135685C140.8643960625,78.69586375,140.8303394625,76.61104115,140.2581710625,75.86840485Z" fill="#203561" fill-opacity="1" style="mix-blend-mode:passthrough"/></g><g><path d="M138.44640354375,79.174241825C137.64604994375,79.003912725,136.16794824375,78.009192925,134.17217254375,77.525460025C133.40587624375,77.341501825,132.08444048375,76.503487225,131.96864453475,75.501953125C131.79154478375,76.646562725,133.33094934375,77.665125325,134.17217254375,77.869522325C136.16794824375,78.353255225,137.63583274375,79.351384925,138.44640354375,79.521713725C139.04581834375,79.647755125,139.80870774375,79.72951462500001,140.29573154375,79.259405625C140.41833974375,79.123144625,140.50689034375,78.959625525,140.55797484375,78.779077325C140.26167484375,79.003912725,139.91428614375,79.157207725,139.54986904375,79.228747625C139.18204834375,79.296878325,138.80400994375,79.279844525,138.44640354375,79.174241825Z" fill="#203561" fill-opacity="1" style="mix-blend-mode:passthrough"/></g><g><path d="M140.336732875,65.13269775C140.166444875,63.66787175,139.859924875,62.22007775,139.423987875,60.80634875C139.423987875,60.80634875,139.696446875,57.05911775,139.832678875,53.52308975C139.985936875,49.50333265,141.382300875,45.96390005,140.278832875,42.76171875L127.888671875,45.51082495C127.888671875,45.51082495,128.637939755,61.53876075,128.808227895,63.46688475C128.896777175,64.97599375,129.084093775,66.47829675,129.363367275,67.96356175C129.928724075,71.07717275,130.848278275,78.47625775,130.848278275,78.47625775C132.159497775,79.23933075,133.879407375,78.81691375,133.879407375,78.81691375C133.879407375,78.81691375,133.787451275,69.45904875,133.702307175,67.21411675C133.600134375,64.48885775,133.514991275,64.69665675,133.514991275,64.69665675L133.923682175,57.88350775L134.192736675,54.49396275C134.192736675,54.49396275,134.533312775,56.984170750000004,134.758092875,59.21888375C134.955627875,61.15722675,135.422217375,62.91160975,135.946704875,66.51918075C136.399669675,69.64981675,137.135315875,75.94176075,137.135315875,75.94176075C138.446533875,76.70484175,140.227747875,76.07121275,140.227747875,76.07121275C140.227747875,76.07121275,140.687525875,67.85795974999999,140.336732875,65.13269775Z" fill="#2855B3" fill-opacity="1" style="mix-blend-mode:passthrough"/></g><g><path d="M138.5251656,23.68178025C137.5817685,23.72947225,136.8767762,23.97133925,136.7575746,23.68178025C136.6588073,23.19463925,136.5872874,22.70068645,136.5430126,22.20332625C136.6519966,21.93080045,136.7473578,21.63783455,136.7473578,21.63783455C137.9325619,20.905421750000002,138.3208179,19.62454895,138.4502392,18.13246875C138.715888,15.57753705,137.3365531,13.36326268,134.7856388,13.090736646C132.3845766,12.84205662,130.6237973,14.52831175,130.1538032,16.83797005C129.89837109,17.98257975,129.39431721,20.138941250000002,130.07887602,22.022778549999998C130.4569158,23.07200325,130.9507514,23.91002125,131.4411807,24.06672425C131.9179878,24.05309725,132.3913882,24.01221925,132.8613827,23.944086249999998C132.8613827,23.944086249999998,132.99080179999999,24.652655250000002,133.0759461,25.10573025C133.1610901,25.55880425,133.1304381,25.78704325,132.2245054,26.366162250000002C131.318573,26.94528025,133.5868099,28.06945125,135.0785341,27.960441250000002C136.5702567,27.851431249999997,138.2288628,26.93846825,138.6988583,25.98803125C139.2199392,24.914961249999998,139.1756639,23.65112125,138.5251656,23.68178025Z" fill="#FFCEA9" fill-opacity="1" style="mix-blend-mode:passthrough"/></g><g><path d="M137.15940856875,23.8254742075C137.42165376875,24.4761301875,136.75412276875,25.2732689375,134.98312856875,25.8319471375C133.21213196875,26.3906252375,133.04865596875,25.6718375375,133.04865596875,25.6718375375C133.04865596875,25.6718375375,130.44665216875,26.8573258375,129.59861836875,27.4466631375C128.53602105875,28.1927042375,128.06602555875,30.3456597375,127.91957768875,33.9838829375C127.75269477775,38.1910039375,127.74247790875,44.4318519375,127.87870889875,45.5117319375C127.87870889875,45.5117319375,129.87107916875,47.4943619375,132.41518356875,47.2831539375C134.95928666875,47.0719469375,139.22670696875,44.8236049375,140.28930596875,43.0828459375C140.25865296875,39.393524937500004,139.82952596875,38.790560937500004,140.42553496875001,36.6682639375C141.78783896875,31.800268137499998,142.51326896875,29.8108277375,141.84914196875,26.5882060375C141.30081696875,23.9208579075,140.53111396875,23.5904196515,139.46510996875,23.6176728811C138.69200196875,23.6449248135,137.92229996875,23.7164625875,137.15940856875,23.8254742075Z" fill="#F4F4F4" fill-opacity="1" style="mix-blend-mode:passthrough"/></g><g><path d="M123.9311873125,38.166402375000004C126.0223263125,38.694422375,126.5093503125,37.376076375,126.7886233125,36.275754975C127.4697763125,33.635658774999996,127.8103513125,31.237429175,128.3041873125,29.752162175C128.8865713125,27.980742695,129.4996083125,27.708216935,130.3476443125,27.367559411C131.3693733125,26.965583415,132.2378403125,27.817227245,131.8870473125,30.068973775C131.4919793125,32.729509375,130.9674933125,34.603124575,129.9730093125,37.750803375000004C129.7141713125,38.575193375,129.1317873125,40.036614375,128.2701283125,40.741776375C127.1939073125,41.613859375000004,125.5727653125,41.576386375,123.1138048125,40.966608375C122.0648298125,40.704302375,120.9102774125,40.080898375000004,118.9349360125,39.154310375C118.4036364125,38.905631375,117.9915395125,38.742115375,116.9698107125,38.265193375C115.9446771125,37.805306375,115.0455559125,37.106959375,114.3507806025,36.221248675C113.8126702928,35.444549574999996,113.7445550565,35.080046175,113.8535394335,34.902904975C113.9625237925,34.725761375,114.2315789125,34.729168875,114.5346917525,35.059607475C114.95019471250001,35.611471175,115.4576532125,36.078172675,116.0400383125,36.446083975C116.0400383125,36.446083975,115.3793206125,35.764768575,115.0183099125,35.321912775C114.6981682825,34.930156275,114.4325189025,34.497522375,114.2281731925,34.030821275C114.0374505825,33.581153875,114.4257074025,32.967970375,114.7220085225,33.288187975C115.0183099125,33.608405575,115.1613519125,33.938843775,115.7028677125,34.586093475C115.9821403125,34.926750675,116.2988760125,35.233343575,116.6496694125,35.495649375C116.3159053125,35.042573974999996,116.0161981125,34.562247775,115.7573602125,34.058073075C115.5325799125,33.666317975,115.4235955125,33.216649975,115.4406245125,32.760169075C115.4406245125,32.525114075,115.7812004125,32.242369175,116.1217768125,32.692037075C116.4623530125,33.141705075,116.5849602125,33.714010275,117.2456777125,34.395323775C117.7190788125,34.892685375,118.1277699125,35.175429775,118.1379871125,35.039168875C118.1482048125,34.902904975,117.8484974125,34.630378275,117.6782095125,34.054666975C117.5079217125,33.478956175,117.6782095125,32.865771775,117.9949450125,32.794234275C118.3116813125,32.722696775,118.2537832125,32.743135475,118.5092153125,33.284780475C118.7646475125,33.826426075,119.1563101125,34.231809575,119.4526110125,35.011914775C119.6126823125,35.570593875,119.9089827125,36.078172675,120.3108635125,36.490367875000004C120.7978873125,37.059266075,121.9320059125,37.665638375,123.9311873125,38.166402375000004Z" fill="#FFCEA9" fill-opacity="1" style="mix-blend-mode:passthrough"/></g><g><path d="M131.12077666875,27.0102815035C129.72441366875,26.7990741575,128.73674346875,27.4292901775,128.12370526875,29.5277406875C127.51066839875,31.6261915875,127.08154296875,33.387392087500004,127.08154296875,33.387392087500004C127.63327604875,34.187937687499996,128.47109316875,34.7432093875,129.42130086875,34.9407915875C131.09012506875,35.3427676875,131.68613286875,34.5490345875,131.68613286875,34.5490345875C131.68613286875,34.5490345875,132.14931586875,32.3415732875,132.43880656875,30.822239387499998C132.72829576875,29.302906987500002,132.84749746875,27.2589613775,131.12077666875,27.0102815035Z" fill="#EDEDED" fill-opacity="1" style="mix-blend-mode:passthrough"/></g><g><path d="M141.535632875,31.3603515625L127.888745305,44.0873165625L127.091796875,68.5601505625C127.091796875,68.5601505625,130.919873475,70.4303665625,135.265625975,69.4186135625L136.062573475,60.0232775625L137.268212875,68.5397145625L137.125172875,68.7986105625C139.185656875,67.8754305625,140.953247875,66.40378956250001,142.233815875,64.5403975625L141.535632875,31.3603515625Z" fill="#F4F4F4" fill-opacity="1" style="mix-blend-mode:passthrough"/></g><g><path d="M127.08172706875,33.38671875L126.40057326875,36.34022065C126.40057326875,36.34022065,125.82840586875,38.40801195,124.35711576875,37.88339905C122.97097106875,37.30087495,121.62229016875,36.63999815,120.31447756875,35.89736465L118.55029296875,39.51855325L122.19786376875,41.22184185C122.19786376875,41.22184185,127.26222996875,43.02732755,128.66881096875,41.22184185C130.07538996875,39.41635795,131.65566396875,34.54154635,131.65566396875,34.54154635L127.08172706875,33.38671875Z" fill="#EDEDED" fill-opacity="1" style="mix-blend-mode:passthrough"/></g><g><path d="M129.21982038375,11.374384694C127.63246172375,12.5344698,128.38104640675,15.1013961,129.99658989375,15.8941388L130.68766999375,16.397699799999998C131.40581989375,16.5060039,132.16116189375,16.5461998,132.83759259375,16.8454313C133.24295659375,17.1374054,133.24488689375,17.620284599999998,133.24671649375,18.0779338C133.24718139375,18.1943178,133.24764009375,18.3090701,133.25472589375,18.4186358C133.12056689375,18.5291743,132.85676289375,18.7580647,132.72598269375,18.8719511C132.93905969375,19.516194300000002,133.09012509375,20.2441807,133.63916779375,20.7086611C134.06418709375,21.0804682,134.64253569375,21.1865396,135.18593549375,21.294845600000002Q136.54412749375,21.6355425,137.48467349375,21.3082438C138.18928809375,19.9092178,138.57372359375,18.3829074,138.99536459375,16.8856268C139.23436959375,15.9276357,139.51170759375,14.7753668,138.81724259375,13.9312611C137.88263609375,12.8437519,136.35390379375,12.532236300000001,134.98526429375,12.415000899999999C134.32985159375,12.3438343,133.67593099375,12.3945054,133.02304079375,12.4450967C132.40576079375,12.492928599999999,131.78940149375,12.5406891,131.17357209375,12.4853418C130.95076299375,12.3601598,130.75951979375,12.15916395,130.56916449375,11.95910096C130.19413779375,11.56494932,129.82255599375,11.17441805,129.21982038375,11.374384694Z" fill="#30344E" fill-opacity="1" style="mix-blend-mode:passthrough"/></g></g></g><g><path d="M61.453125,3.638671875L112.79882825,3.638671875C113.24558225,3.638671875,113.60742225,4.000519275,113.60742225,4.447265565L113.60742225,72.322646875C113.60742225,72.769393875,113.24558225,73.131240875,112.79882825,73.131240875L61.453125,73.131240875C61.00637868,73.131240875,60.64453125,72.769393875,60.64453125,72.322646875L60.64453125,4.447265565C60.64453125,4.000519275,61.00637868,3.638671875,61.453125,3.638671875Z" fill-rule="evenodd" fill="url(#master_svg0_98_023971)" fill-opacity="1" style="mix-blend-mode:passthrough"/></g><g><path d="M70.5033088125,11.89567375L75.3629588125,5.56640625L108.7558598125,5.588639617C109.2026138125,5.590663075,109.56445281250001,5.95251051,109.56445281250001,6.39723337L109.56445281250001,67.04177425L63.6767578125,67.04177425L63.6767578125,16.90288825L70.3375511125,12.057389749999999C70.4002170125,12.01291705,70.4568186125,11.95833925,70.5033088125,11.89567375Z" fill-rule="evenodd" fill="url(#master_svg1_98_024072)" fill-opacity="1" style="mix-blend-mode:passthrough"/></g><g><path d="M68.73046875,19.8749999975L101.23998275,19.8749999975L101.23998275,19.2685546875L68.73046875,19.2685546875L68.73046875,19.8749999975Z" fill="#95B3EF" fill-opacity="1" style="mix-blend-mode:passthrough"/></g><g><path d="M68.73046875,27.18847656L101.23998275,27.18847656L101.23998275,26.58203125L68.73046875,26.58203125L68.73046875,27.18847656Z" fill="#95B3EF" fill-opacity="1" style="mix-blend-mode:passthrough"/></g><g><path d="M68.73046875,34.46582031L101.23998275,34.46582031L101.23998275,33.859375L68.73046875,33.859375L68.73046875,34.46582031Z" fill="#95B3EF" fill-opacity="1" style="mix-blend-mode:passthrough"/></g><g><path d="M100.85986376875,42.4384765625L101.28841736875,42.8670302625L97.96509646875,46.1903512625L101.28841736875,49.5136723625L100.85986376875,49.942225962500004L97.53654266875,46.6189050625L94.21322166875,49.942225962500004L93.78466796875,49.5136723625L97.10798886875,46.1903512625L93.78466796875,42.8670302625L94.21322166875,42.4384765625L97.53654266875,45.7617974625L100.85986376875,42.4384765625Z" fill="#95B3EF" fill-opacity="1" style="mix-blend-mode:passthrough"/></g><g><path d="M75.3629588125,5.56640625C69.6522655125,8.52787975,65.7568669125,12.30805775,63.6767578125,16.90288825C66.1732924125,15.31198125,69.4339476125,14.58626845,73.4587240125,14.72979255C73.4971266125,12.47786185,73.6446972125,10.82833005,73.9014238125,9.78321985C74.1581558125,8.74013305,74.6453338125,7.33318175,75.3629588125,5.56640625Z" fill-rule="evenodd" fill="url(#master_svg2_98_024076)" fill-opacity="1" style="mix-blend-mode:passthrough"/></g><g><path d="M97.43554681250001,0.2021484375L97.43554681250001,7.2773442375L77.6250000125,7.2773442375C77.0670683725,7.2773442375,76.6142578125,6.8245334375,76.6142578125,6.2666015375L76.6142578125,0.2021484375L97.43554681250001,0.2021484375ZM87.4291988125,1.0107421875C86.7034808125,1.0107421875,86.1152344125,1.5989949375,86.1152344125,2.3247070375C86.1152344125,3.0504193375,86.7034808125,3.6386718375,87.4291988125,3.6386718375C88.1549188125,3.6386718375,88.7431638125,3.0504193375,88.7431638125,2.3247070375C88.7431638125,1.5989949375,88.1549188125,1.0107421875,87.4291988125,1.0107421875Z" fill-rule="evenodd" fill="url(#master_svg3_98_024090)" fill-opacity="1" style="mix-blend-mode:passthrough"/></g><g><path d="M76.6142578125,0.20214844L77.7462903125,0L97.8317628125,0L97.43554681250001,0.20214844L76.6142578125,0.20214844Z" fill-rule="evenodd" fill="#A8BAFF" fill-opacity="1" style="mix-blend-mode:passthrough"/></g><g><path d="M97.831762255,0L97.831762255,7.0408273L97.435546875,7.2773442L97.435546875,0.20214844L97.831762255,0Z" fill-rule="evenodd" fill="url(#master_svg4_98_024086)" fill-opacity="1" style="mix-blend-mode:passthrough"/></g><g><path d="M87.429199175,1.0107421875C87.447398075,1.0107421875,87.463561075,1.0107421875,87.479736375,1.0107421875C86.832858865,1.0370224715,86.317382815,1.5706911675000002,86.317382815,2.2236327874999997C86.317382815,2.8927436875000003,86.861162605,3.4365233875,87.530273475,3.4365233875C88.183208975,3.4365233875,88.716883875,2.9210474875,88.743164075,2.2741698875000003C88.743164075,2.2903390875,88.743164075,2.3065144875000003,88.743164075,2.3247069875C88.743164075,3.0504192875,88.15491767500001,3.6386718875,87.429199175,3.6386718875C86.703480895,3.6386718875,86.115234375,3.0504192875,86.115234375,2.3247069875C86.115234375,1.5989949074999998,86.703480895,1.0107421875,87.429199175,1.0107421875Z" fill-rule="evenodd" fill="#243E9C" fill-opacity="1" style="mix-blend-mode:passthrough"/></g><g><g><path d="M36.95056221621094,39.40237775L37.03748461621094,39.79656975C36.83735971621094,39.84104875,36.63521121621094,39.87945775,36.429015916210936,39.91179675L36.36635021621094,39.513557750000004C36.56445761621094,39.48121875,36.758518716210936,39.44483375,36.95056221621094,39.40237775ZM35.37380041621094,39.62474775C35.573931716210936,39.61059575,35.770015716210935,39.59239775,35.96610021621094,39.568141749999995L36.01461391621094,39.97041475C35.81246541621094,39.99467075,35.608293516210935,40.01489275,35.40008071621094,40.02904475L35.37380041621094,39.62474775ZM37.91076751621094,39.139587750000004L38.036098516210934,39.52367375C37.84203771621094,39.58836375,37.643929916210936,39.646981749999995,37.44380501621094,39.69954075L37.34070731621094,39.309396750000005C37.532750816210935,39.25885975,37.72276451621094,39.20225375,37.91076751621094,39.139587750000004ZM34.389338436210934,39.65102775C34.59148691621094,39.653039750000005,34.789594616210934,39.65102775,34.98567891621094,39.64495875L34.99983071621094,40.04925575C34.79768231621094,40.05532475,34.59148691621094,40.057336750000005,34.385297716210935,40.05532475L34.389338436210934,39.65102775ZM38.83054061621094,38.783803750000004L38.996303516210936,39.15171575C38.808307216210935,39.236613750000004,38.61828711621094,39.315456749999996,38.42422011621094,39.388225750000004L38.28271961621094,39.01020975C38.466675716210936,38.939462750000004,38.650631416210935,38.864667749999995,38.83054061621094,38.783803750000004ZM33.58883227821094,39.61665575C33.724271376210936,39.62677175,33.855669736210935,39.634853750000005,33.989088446210936,39.64091075L33.970889656210936,40.043197750000004C33.83545365621094,40.03914975,33.69799108621094,40.03106875,33.56053161621094,40.020951749999995L33.58883227821094,39.61665575ZM39.71392821621094,38.32896975L39.918099916210934,38.67869575C39.740208616210936,38.78177975,39.558276216210935,38.88084375,39.374320516210936,38.97382575L39.19238761621094,38.611982749999996C39.36825611621094,38.52303675,39.542100416210936,38.42802075,39.71392821621094,38.32896975ZM40.54273841621094,37.78519075L40.781271416210934,38.11266875C40.613491516210935,38.23396475,40.443687416210935,38.351203749999996,40.27185961621094,38.46239475L40.053542116210934,38.12076175C40.21929881621094,38.01564175,40.38303901621094,37.90243875,40.54273841621094,37.78519075ZM41.329098716210936,37.16459275L41.58582501621094,37.477931749999996C41.430172916210935,37.60528775,41.27249721621094,37.73262975,41.11077451621094,37.85998375L40.860112716210935,37.54463375C41.01981161621094,37.41727875,41.17546411621094,37.29194875,41.329098716210936,37.16459275ZM42.093218816210936,36.50963375L42.362074816210935,36.81083275C42.212486316210935,36.94628175,42.05885221621094,37.07969475,41.90117641621094,37.213119750000004L41.63838481621094,36.90584975C41.79403781621094,36.774448750000005,41.94564911621094,36.64103475,42.093218816210936,36.50963375ZM42.829036716210936,35.82434875L43.11002541621094,36.11544275C42.96649651621094,36.25492475,42.81893161621094,36.39440775,42.66732021621094,36.53591575L42.39239501621094,36.238761749999995C42.54198931621094,36.09927775,42.68753621621094,35.96181875,42.829036716210936,35.82434875ZM43.532515516210935,35.10874775L43.82765061621094,35.385690749999995C43.69019161621094,35.531242750000004,43.54868511621093,35.67880675,43.403137216210936,35.82637175L43.11608981621094,35.54134775C43.25961401621094,35.39781775,43.39707371621094,35.252275749999995,43.532515516210935,35.10874775ZM44.195562616210935,34.35675975L44.50687361621094,34.61550475C44.37749461621094,34.77116275,44.244075616210935,34.92479675,44.106616616210935,35.08044275L43.80339461621094,34.81159375C43.94085361621094,34.65998275,44.07023161621094,34.50837175,44.195562616210935,34.35675975ZM44.81211261621094,33.56837575L45.13959261621093,33.80691075C45.022348616210934,33.96862575,44.89701761621094,34.13236575,44.767639616210936,34.29610675L44.45027161621094,34.045443750000004C44.57761961621094,33.88575075,44.696885616210935,33.72605875,44.81211261621094,33.56837575ZM45.34376461621093,32.77393475L45.689435616210936,32.98416375C45.58432061621094,33.15599775,45.473142616210936,33.32781875,45.35386861621094,33.50166375L45.020324616210935,33.27323575C45.13555161621094,33.10546075,45.24268961621094,32.93969775,45.34376461621093,32.77393475ZM45.82487861621094,31.89257075L45.96436161621094,31.95927075L46.00074661621094,31.94513175C46.022986616210936,31.93501375,46.047243616210935,31.92490875,46.069476616210935,31.91480375L46.13820561621094,31.88245275L46.31812161621094,32.24430675C46.243327616210934,32.28069175,46.170549616210934,32.31302975,46.099797616210935,32.34133475L46.04319561621094,32.36155675L45.98052961621094,32.47879275L45.90573561621094,32.61625275L45.551976616210936,32.42017475C45.57623261621094,32.37569475,45.60251361621094,32.33122875,45.62475361621094,32.28674975L45.65102661621094,32.23823675L45.62273061621094,32.05428675C45.66316261621094,32.04821575,45.70358761621094,32.04013575,45.74402061621094,32.03002975L45.76018861621094,32.02598275L45.76221261621094,32.02395875L45.82487861621094,31.89257075ZM44.797960616210936,31.85011375C44.96170661621094,31.95927075,45.11735961621093,32.02598275,45.28109861621094,32.05226275L45.21236861621094,32.45251275C44.99000461621094,32.41410475,44.78381561621094,32.32515775,44.575602616210936,32.18769975L44.797960616210936,31.85011375ZM46.936694616210936,31.34069675L47.19544361621094,31.64998975C47.01957661621094,31.795530749999998,46.85178961621094,31.92288475,46.69209661621094,32.02800675L46.46973361621094,31.69042175C46.617297616210934,31.59338175,46.772955616210936,31.47614475,46.936694616210936,31.34069675ZM46.19076661621094,30.96874975L46.576869616210935,31.088010750000002C46.51824661621094,31.280054749999998,46.44749261621094,31.47614475,46.36461161621094,31.67626975L45.99064161621094,31.52263575C46.067458616210935,31.332615750000002,46.13416461621094,31.14866575,46.19076661621094,30.96874975ZM47.656342616210935,30.661480750000003L47.947436616210936,30.94247075C47.795824616210936,31.10013875,47.64825561621094,31.243669750000002,47.50675461621094,31.37507075L47.23182961621094,31.07790675C47.36727261621094,30.95257475,47.508771616210936,30.813091749999998,47.656342616210935,30.661480750000003ZM44.159176616210935,31.18302775C44.27844461621093,31.37507075,44.39771061621094,31.528692749999998,44.49878461621094,31.621685749999997L44.22385961621094,31.91682675C44.09448861621094,31.795530749999998,43.952981616210934,31.61562775,43.817545616210936,31.39730475L44.159176616210935,31.18302775ZM48.325453616210936,29.91959975L48.63271761621094,30.18238975C48.49324161621094,30.34410575,48.35779761621094,30.49774075,48.22842161621094,30.643294750000003L47.92924461621094,30.37038675C48.056598616210934,30.22887975,48.187994616210936,30.07929275,48.325453616210936,29.91959975ZM46.380785616210936,30.01257975L46.783059616210934,30.04290675C46.768908616210936,30.24303175,46.736569616210936,30.45327375,46.68804961621094,30.67158575L46.29386461621094,30.58263975C46.33833661621094,30.38251475,46.366635616210935,30.19249475,46.380785616210936,30.01257975ZM43.74072861621094,30.31379175C43.805416616210934,30.49369375,43.88425161621094,30.67563375,43.97117461621094,30.847452750000002L43.609332616210935,31.02939275C43.516340216210935,30.843418749999998,43.431441316210936,30.64732875,43.358664516210936,30.451249750000002L43.74072861621094,30.31379175ZM48.94402761621094,29.139308749999998L49.27150761621094,29.375819749999998C49.14819961621094,29.54764075,49.022868616210935,29.71138075,48.89551461621094,29.86703975L48.582180616210934,29.612330749999998C48.703470616210936,29.46274275,48.82476061621094,29.305060750000003,48.94402761621094,29.139308749999998ZM46.66985761621093,28.96949975C46.736569616210936,29.16760075,46.776994616210935,29.383900750000002,46.78912361621094,29.620424749999998L46.38482661621094,29.64063375C46.374721616210934,29.44253175,46.34035361621093,29.26059475,46.28779961621094,29.098876750000002L46.66985761621093,28.96949975ZM49.48780761621094,28.30645275L49.83347861621094,28.512641950000003C49.72634161621094,28.69458005,49.61718561621094,28.86842575,49.505999616210936,29.03418875L49.17043261621094,28.81183055C49.277571616210935,28.65010735,49.38269261621094,28.48030285,49.48780761621094,28.30645275ZM43.13023571621093,29.402099749999998L43.53453251621094,29.38187675C43.54262061621094,29.55573475,43.57496561621094,29.743730749999997,43.62550261621094,29.939808749999997L43.23333361621094,30.04088275C43.176732016210934,29.81852575,43.14034751621094,29.60424775,43.13023571621093,29.402099749999998ZM49.968921616210935,27.431152349999998L50.32874461621094,27.615101850000002C50.233735616210936,27.80108165,50.138725616210934,27.983014150000002,50.03967461621094,28.15686415L49.68793261621094,27.95875745C49.782941616210934,27.788953749999997,49.87593461621094,27.61308475,49.968921616210935,27.431152349999998ZM45.97042561621094,28.06387235C46.170549616210934,28.18516255,46.33833661621094,28.34890275,46.46770961621094,28.54903315L46.13012361621094,28.76937385C46.03309061621094,28.61978055,45.90775961621094,28.49849605,45.76018861621094,28.40954975L45.97042561621094,28.06387235ZM43.421330416210935,28.30241205L43.73870461621094,28.55307485C43.64167661621094,28.676381149999997,43.57698961621094,28.83203985,43.54868511621093,29.02003675L43.15045161621094,28.95737175C43.18886091621094,28.70468615,43.27780631621094,28.48232075,43.421330416210935,28.30241205ZM44.89499361621094,27.792994450000002C45.03245361621094,27.799057949999998,45.17800061621094,27.81523325,45.32961161621094,27.837467150000002C45.406429616210936,27.849595049999998,45.47515861621093,27.86374755,45.543888616210936,27.881939850000002L45.43675061621094,28.27208425C45.384196616210936,28.25793835,45.32961161621094,28.24782845,45.268970616210936,28.23772335C45.12948661621094,28.21548365,44.998091616210935,28.20133785,44.874777616210935,28.19527335L44.89499361621094,27.792994450000002ZM50.39949961621094,26.52754925L50.769426616210936,26.69330595C50.68452861621094,26.88332655,50.59760061621094,27.06930545,50.510679616210936,27.24921415L50.14681461621094,27.07334615C50.23171261621094,26.895454450000003,50.31661561621094,26.71554515,50.39949961621094,26.52754925ZM43.80137061621094,27.989078550000002C43.985325616210936,27.88800435,44.20566761621094,27.825338350000003,44.46037661621094,27.80108165L44.50080861621094,28.20335485C44.29663661621094,28.22357085,44.12683261621093,28.27208425,43.991390616210936,28.344861950000002L43.80137061621094,27.989078550000002ZM50.78762061621094,25.60575245L51.16361961621094,25.75331685C51.086801616210934,25.94737725,51.009984616210936,26.13538025,50.93115061621094,26.31933645L50.559192616210936,26.16166065C50.63600961621094,25.98174525,50.71080361621094,25.795765850000002,50.78762061621094,25.60575245ZM51.13936261621094,24.66374015L51.51939761621094,24.79917575C51.45066661621094,24.99525975,51.37991861621094,25.18528035,51.30916761621094,25.37327675L50.93115061621094,25.22975305C51.00189761621094,25.045796850000002,51.07063461621094,24.857800949999998,51.13936261621094,24.66374015ZM51.45875561621094,23.71161655L51.84283661621094,23.83492995C51.78017061621094,24.03101445,51.71750461621094,24.22507525,51.65281461621093,24.41509485L51.27075961621094,24.28369995C51.333423616210936,24.09772065,51.396089616210936,23.90568305,51.45875561621094,23.71161655ZM51.75187261621094,22.74939375L52.13999361621094,22.86259655C52.083392616210936,23.060698549999998,52.024768616210935,23.25678255,51.96615061621094,23.44680215L51.57802161621093,23.32753515C51.63664661621094,23.13953925,51.695270616210934,22.94547795,51.75187261621094,22.74939375ZM52.020727616210934,21.78110125L52.41289561621094,21.88419895C52.36033661621094,22.08432385,52.30575761621094,22.27838465,52.251178616210936,22.47245145L51.863052616210936,22.36328955C51.91561361621093,22.17124605,51.97018961621094,21.97718545,52.020727616210934,21.78110125ZM52.27138861621094,20.80472685L52.663558616210935,20.90175415C52.61504361621094,21.09986185,52.564506616210934,21.29796335,52.515993616210935,21.49203035L52.12382461621094,21.39095615C52.172338616210936,21.19891265,52.22287561621094,21.00282835,52.27138861621094,20.80472685ZM52.50184061621094,19.82430571L52.89603261621094,19.91325155C52.84953661621094,20.11337645,52.80506361621094,20.31148425,52.75856761621094,20.50554495L52.364381616210935,20.41255845C52.410873616210935,20.21849145,52.45736861621094,20.02240715,52.50184061621094,19.82430571ZM52.71611761621094,18.83984375L53.11030961621094,18.922719181C53.06987761621094,19.12285033,53.02742961621094,19.32095188,52.98295561621094,19.51703608L52.58876461621094,19.43011373C52.63121461621094,19.23605296,52.67366961621094,19.03996873,52.71611761621094,18.83984375Z" fill="#60A3FF" fill-opacity="1" style="mix-blend-mode:passthrough"/></g></g><g><path d="M21.688505,53.810484171C20.004611,53.41224533,17.5282922,54.66153359,14.2575293,57.55225395C12.1713591,58.96324585,10.65322208,59.42616175,9.703125,58.93898915C12.7292874,60.81493285,15.7069335,61.14442345,18.6340418,59.92547465C21.561152999999997,58.70450255,22.57998,56.66684265,21.688505,53.810484171Z" fill-rule="evenodd" fill="url(#master_svg5_98_024034)" fill-opacity="1" style="mix-blend-mode:passthrough"/></g><g><path d="M21.66455078125,53.73450695C22.91382978125,52.87942296,23.70220758125,52.491289079,24.02362278125,52.5681064725L24.19140628125,53.04517385C23.05937698125,53.34638536,22.28312451125,53.80121935,21.86467884125,54.41169925" fill-rule="evenodd" fill="#F3C753" fill-opacity="1" style="mix-blend-mode:passthrough"/></g><g><path d="M15.651257037499999,59.5564429875Q17.5635604375,58.9618494875,20.7582699375,56.0439929075L20.0838813375,55.3056164675Q17.0537757375,58.0731329875,15.3543477375,58.601537487499996Q13.6454534375,59.1291040875,10.4267795645,58.7363071875L10.3056413975,59.7289423875Q13.7363410375,60.1476144875,15.651257037499999,59.5564429875Z" fill-rule="evenodd" fill="#F3C753" fill-opacity="1" style="mix-blend-mode:passthrough"/></g><g><path d="M154.2392582625,9.29882835Q154.23925876250001,9.47758505,154.2217373625,9.65548085Q154.2042159625,9.83337645,154.1693415625,10.00869795Q154.1344680625,10.18402005,154.0825776625,10.35507915Q154.0306873625,10.52613835,153.9622802625,10.69128705Q153.8938736625,10.85643675,153.8096084625,11.01408625Q153.7253432625,11.17173575,153.6260309625,11.32036595Q153.5267195625,11.468997049999999,153.4133176625,11.60717725Q153.2999162625,11.745357949999999,153.1735157625,11.87175755Q153.0471162625,11.99815755,152.9089350625,12.11155935Q152.7707548625,12.22496125,152.6221237625,12.32427315Q152.4734935625,12.423585450000001,152.3158440625,12.50785065Q152.1581950625,12.592115849999999,151.9930453625,12.66052245Q151.8278961625,12.72892955,151.6568369625,12.78081985Q151.4857778625,12.83271025,151.3104557625,12.86758425Q151.1351342625,12.902458150000001,150.9572386625,12.91997955Q150.7793428625,12.93750045,150.6005861625,12.93750045Q150.4218296625,12.93750045,150.2439341625,12.91997955Q150.0660383625,12.902458150000001,149.8907165625,12.86758375Q149.7153949625,12.83271025,149.5443355625,12.78081985Q149.3732762625,12.72892955,149.2081265625,12.66052245Q149.0429773625,12.592115849999999,148.8853280625,12.50785065Q148.7276790625,12.423585450000001,148.5790482625,12.32427315Q148.4304177625,12.22496175,148.2922370625,12.111559849999999Q148.1540564625,11.99815845,148.0276564625,11.87175795Q147.9012565625,11.745358450000001,147.7878546725,11.60717725Q147.6744527225,11.468997049999999,147.5751408925,11.32036595Q147.4758291225,11.17173575,147.3915638325,11.01408625Q147.3072986025,10.856437249999999,147.2388914525,10.69128755Q147.1704843325,10.52613835,147.1185940525,10.35507915Q147.0667037825,10.18402005,147.0318301175,10.00869795Q146.9969564605,9.83337645,146.9794352615,9.65548085Q146.9619140625,9.47758505,146.9619140625,9.29882835Q146.9619140625,9.12007185,146.9794352615,8.94217635Q146.9969564605,8.76428055,147.0318301175,8.58895875Q147.0667037825,8.41363715,147.1185940525,8.24257775Q147.1704843325,8.07151845,147.2388914525,7.90636875Q147.3072986025,7.74121955,147.3915638325,7.58357025Q147.4758290625,7.42592125,147.5751408325,7.27729045Q147.6744526625,7.12865995,147.7878546125,6.99047925Q147.9012565625,6.85229865,148.0276564625,6.7258986499999995Q148.1540564625,6.59949875,148.2922370625,6.48609686Q148.4304177625,6.37269491,148.5790482625,6.27338308Q148.7276790625,6.17407131,148.8853280625,6.08980602Q149.0429773625,6.00554079,149.2081265625,5.93713364Q149.3732762625,5.86872652,149.5443353625,5.81683624Q149.7153949625,5.76494597,149.8907165625,5.730072305Q150.0660383625,5.695198648,150.2439341625,5.677677449Q150.4218296625,5.66015625,150.6005861625,5.66015625Q150.7793428625,5.66015625,150.9572386625,5.677677449Q151.1351342625,5.695198648,151.3104557625,5.730072305Q151.4857778625,5.76494597,151.6568369625,5.81683624Q151.8278961625,5.86872652,151.9930448625,5.93713364Q152.1581945625,6.00554079,152.3158440625,6.08980602Q152.4734935625,6.17407125,152.6221237625,6.27338302Q152.7707548625,6.37269485,152.9089350625,6.4860968Q153.0471157625,6.59949875,153.1735153625,6.7258986499999995Q153.2999153625,6.85229865,153.4133171625,6.99047925Q153.5267190625,7.12865995,153.6260309625,7.27729045Q153.7253432625,7.42592125,153.8096084625,7.58357025Q153.8938736625,7.74121955,153.9622802625,7.90636875Q154.0306873625,8.07151845,154.0825776625,8.24257755Q154.1344680625,8.41363715,154.1693420625,8.58895875Q154.2042159625,8.76428055,154.2217373625,8.94217635Q154.23925876250001,9.12007185,154.2392582625,9.29882835Z" fill="url(#master_svg6_98_024083)" fill-opacity="1" style="mix-blend-mode:passthrough"/></g><g><path d="M133.0087890625,25.7049436375Q135.5087890625,27.7050781375,138.0087890625,24.7050781375Q138.3087892625,23.8050781475,138.0687889625,23.6250781265Q137.9087891625,23.5050781225,137.5087890625,23.7050781275Q137.6754631625,23.53840398788,137.6754555625,23.53839651711Q137.6754407625,23.53838157654,137.0087890625,24.2049435975Q135.1047177625,26.1087589375,133.0087890625,25.7049436375Z" fill="#B3B4B8" fill-opacity="1"/></g></g></svg>