<svg xmlns="http://www.w3.org/2000/svg" xmlns:xlink="http://www.w3.org/1999/xlink" fill="none" version="1.1" width="16" height="16" viewBox="0 0 16 16"><defs><clipPath id="master_svg0_114_062809"><rect x="0" y="0" width="17" height="17" rx="0"/></clipPath></defs><g clip-path="url(#master_svg0_114_062809)"><g><path d="M8.500204084375,3.966796875C3.987271584375,3.966796875,0.978271484375,8.479730175,0.978271484375,8.479730175C0.978271484375,8.479730175,3.987271584375,12.993796375,8.500204084375,12.993796375C13.013138484375,12.993796375,16.022136484375,8.480296575,16.022136484375,8.480296575C16.022136484375,8.480296575,13.011437484375,3.966796875,8.500204084375,3.966796875ZM8.500204084375,11.455295575000001C6.830878284375,11.478105975,5.465444084375,10.131074875,5.465602384375,8.461592175C5.465760684375,6.7921101749999995,6.831448984375,5.445336975,8.500771084375,5.468462775C10.137927984375,5.491143475,11.453157484375,6.8248462750000005,11.453001484375,8.462159175C11.452847484375,10.099472075000001,10.137364384375,11.432924775,8.500204084375,11.455295575000001ZM7.434871184375,9.530329275C7.716775884375,9.809339075,8.096777884375001,9.966792075,8.493403884374999,9.968929275C8.885537584375001,9.968929275,9.275403984375,9.806862875,9.553070984375,9.530329275C9.832146684375,9.248052075,9.989413284375,8.867601375,9.991105084375,8.470662575C9.991105084375,8.079096275000001,9.829604184375,7.688662975,9.552504584375,7.412129675C9.270460084375,7.132982775,8.890227284375001,6.975518975,8.493404884375,6.973529375C8.101271584374999,6.973529375,7.711405284375,7.135029575,7.434305184375,7.412129675C7.155518084375,7.694413875,6.998117484375,8.074491975,6.995705084375,8.471229574999999C6.995705084375,8.863362774999999,7.157771584375,9.253229175000001,7.434305184375,9.530329275L7.434871184375,9.530329275Z" fill="#7A8790" fill-opacity="1" style="mix-blend-mode:passthrough"/></g></g></svg>