<svg xmlns="http://www.w3.org/2000/svg" xmlns:xlink="http://www.w3.org/1999/xlink" fill="none" version="1.1" width="16" height="16" viewBox="0 1 16 16"><defs><clipPath id="master_svg0_110_036245"><rect x="0" y="0" width="17" height="17" rx="0"/></clipPath></defs><g><g clip-path="url(#master_svg0_110_036245)"><g><path d="M15.936844078125,3.6987157125000003L10.047365178125,14.7714963125C9.788722078125,15.2577173125,9.262376778125,15.5399553125,8.714260078125001,15.4863353125C8.166144378125,15.4327143125,7.704473478125,15.0538223125,7.544964278125,14.5266963125L6.180544378125,10.0216951125C6.007090578125,9.4485388125,6.228941478125,8.8293724125,6.726923978125,8.4967952125L12.157405078125,4.8700151125C12.305364078125,4.7712409125,12.352165078125,4.575108312499999,12.264749078125,4.4201677125C12.177332078125,4.2652275125,11.985257078125,4.2038681125,11.824203078125,4.2794351125L5.890524378125,7.0572357125C5.397918178125,7.2878771125,4.815266378125,7.2028265125,4.409144378125,6.8409958125L1.3059641981249999,4.0754354125C0.884828508125,3.7000602125,0.739163968125,3.1036591125,0.939843885125,2.5764124425C1.1405239681250001,2.0491653725,1.645877478125,1.70055377012,2.210024078125,1.7001953125L14.735625078125,1.7001953125C15.761619078125,1.700124950396,16.418210078125,2.7928312125000003,15.936505078125,3.6987157125000003L15.936844078125,3.6987157125000003Z" fill="#2855B3" fill-opacity="1" style="mix-blend-mode:passthrough"/></g></g></g></svg>