<svg xmlns="http://www.w3.org/2000/svg" xmlns:xlink="http://www.w3.org/1999/xlink" fill="none" version="1.1" width="62" height="58" viewBox="-1 1 62 58"><defs><clipPath id="master_svg0_103_016109"><rect x="0" y="0" width="62" height="62" rx="0"/></clipPath><clipPath id="master_svg1_103_020442"><rect x="22" y="20" width="33" height="33" rx="0"/></clipPath></defs><g clip-path="url(#master_svg0_103_016109)"><g clip-path="url(#master_svg1_103_020442)"><g><path d="M37.33092746875,20.588894185C37.91391546875,19.806306095,39.08622246875,19.806306095,39.669212468750004,20.588894185L40.691034468750004,21.987859125L41.30978546875,22.860001825C42.55713746875,24.630648625,43.75426146875,26.436153925,44.89971546875,28.274359725C45.61930246875,29.427639925,46.30860946875,30.599543125,46.96692646875,31.788860125C49.08835946875,35.642791125,50.28460846875,38.735361125,50.28460846875,41.000576124999995C50.28578546875,47.627687125,45.00932146875,53.000790125,38.500070468749996,53.000790125C31.99082086875,53.000790125,26.71435546875,47.627687125,26.71435546875,41.000578125000004C26.71435546875,38.735361125,27.91060516875,35.641613125,30.03203436875,31.788860125C30.69073916875,30.599530125,31.38043976875,29.427628525,32.10042766875,28.274359725C33.34263326875,26.280885225,34.64556506875,24.325899125,36.00739286875,22.412144425L36.60021396875,21.584787125L37.33092746875,20.588894185Z" fill="#EEBF8B" fill-opacity="1" style="mix-blend-mode:passthrough"/></g><g><path d="M42.702779040625,39.63340038C42.851183640625,39.455533206,43.149603840625,39.455533206,43.298008440625,39.63340038L43.558121440625,39.95135814L43.715629540625,40.14957941C44.033153540625,40.5520133,44.337891140625,40.9623698,44.629476040625,41.3801583C44.812652540625,41.6422768,44.988121540625,41.908628,45.155701140625,42.1789367C45.695729240625,43.0548608,46.000244140625,43.7577424,46.000244140625,44.2725821C46.000543140625,45.7787967,44.657376740625,47,43.000393640625,47C41.343411440625,47,40.000244140625,45.7787967,40.000244140625,44.2725825C40.000244140625,43.7577424,40.304759260625,43.0545933,40.844786400625,42.1789367C41.012464840625,41.9086246,41.188033940625,41.6422744,41.371312740625,41.3801583C41.687526140625,40.9270803,42.019197940625,40.48274952,42.365862640625,40.04778999L42.516769840625,39.85974762L42.702779040625,39.63340038Z" fill="#FFFFFF" fill-opacity="1" style="mix-blend-mode:passthrough"/></g></g></g></svg>