<svg xmlns="http://www.w3.org/2000/svg" xmlns:xlink="http://www.w3.org/1999/xlink" fill="none" version="1.1" width="42" height="42" viewBox="0 0 42 42"><defs><clipPath id="master_svg0_98_034218"><rect x="7.304347991943359" y="7.304347991943359" width="27.39130401611328" height="27.39130401611328" rx="0"/></clipPath></defs><g><g><rect x="0" y="0" width="42" height="42" rx="16" fill="#2855B3" fill-opacity="1"/></g><g clip-path="url(#master_svg0_98_034218)"><g><path d="M30.701150898193358,30.13064767944336L11.29897689819336,30.13064767944336L11.29897689819336,11.86977767944336L17.57615139819336,11.86977767944336L19.85875989819336,16.43499467944336L30.701150898193358,16.43499467944336L30.701150898193358,30.13064767944336Z" fill="#EAF1FD" fill-opacity="1" style="mix-blend-mode:passthrough"/></g><g><path d="M10.157375596917209,11.869480216943359C10.15737533569336,11.239155296943359,10.66835474569336,10.72817611694336,11.298680035693359,10.72817611694336L17.575854335693357,10.72817611694336C18.00823263569336,10.728190484254359,18.40347763569336,10.972540036943359,18.59675023569336,11.35931747694336L20.56378833569336,15.29339311694336L30.70085333569336,15.29339311694336C31.33117833569336,15.29339311694336,31.842157335693358,15.80437281694336,31.842157335693358,16.43469761694336L31.842157335693358,30.130350116943358C31.842157335693358,30.76067311694336,31.33117833569336,31.27165411694336,30.70085333569336,31.271652116943358L11.298679735693359,31.271652116943358C10.66835504569336,31.27165411694336,10.15737533569336,30.76067311694336,10.15737533569336,30.130350116943358L10.157375596917209,11.869480216943359ZM12.43998403569336,13.010784416943359L12.43998403569336,28.989044116943358L29.559549335693358,28.989044116943358L29.559549335693358,17.57600211694336L19.85846233569336,17.57600211694336C19.426081635693357,17.57598731694336,19.030838035693357,17.33163781694336,18.83756543569336,16.94486041694336L16.870527735693358,13.01078481694336L12.43998403569336,13.010784416943359Z" fill="#EAF1FD" fill-opacity="1" style="mix-blend-mode:passthrough"/></g><g><path d="M17.57632064819336,11.86977767944336L29.56001664819336,11.86977767944336C30.19034064819336,11.86977767944336,30.701319648193362,12.38075708944336,30.701319648193362,13.011081779443359L30.701319648193362,16.43499467944336L28.41871064819336,16.43499467944336L28.41871064819336,14.15238637944336L17.57632064819336,14.15238637944336L17.57632064819336,11.86977767944336Z" fill="#28B3A5" fill-opacity="1" style="mix-blend-mode:passthrough"/></g><g><path d="M17.00551986694336,22.14126205444336L24.99465086694336,22.14126205444336L24.99465086694336,24.42387035444336L17.00551986694336,24.42387035444336L17.00551986694336,22.14126205444336Z" fill="#2855B3" fill-opacity="1" style="mix-blend-mode:passthrough"/></g><g><path d="M22.14115551069336,19.28774642944336L22.14115551069336,27.27687642944336L19.85854721069336,27.27687642944336L19.85854721069336,19.28774642944336L22.14115551069336,19.28774642944336Z" fill="#2855B3" fill-opacity="1" style="mix-blend-mode:passthrough"/></g></g></g></svg>