<svg xmlns="http://www.w3.org/2000/svg" xmlns:xlink="http://www.w3.org/1999/xlink" fill="none" version="1.1" width="23" height="23" viewBox="0 0 23 23"><defs><clipPath id="master_svg0_103_016168"><rect x="0" y="0" width="23" height="23" rx="0"/></clipPath></defs><g clip-path="url(#master_svg0_103_016168)"><g><path d="M18.89575023841858,7L2.000000238418579,7L2.000000238418579,18.994838C2.000000238418579,20.1005,2.941340088418579,20.997512999999998,4.104250438418579,21L18.89575023841858,21C20.05866423841858,20.997509,21.00000423841858,20.100496,21.00000023841858,18.994838L21.00000023841858,9.0051608C21.00000023841858,7.89949942,20.05866123841858,7.0024876059,18.89575023841858,7ZM11.471716138418579,16.1856079L11.50021673841858,16.2127037L11.538215838418578,16.1856079C11.57677103841858,16.1779099,11.608799238418579,16.1525326,11.623716638418578,16.1178646C11.62577553841858,16.108939200000002,11.62577553841858,16.0996952,11.623716638418578,16.0907688C11.875466538418578,15.896575,13.02021723841858,15.246253,13.732716238418579,14.8488331C14.46155523841858,14.4496045,14.84671423841858,13.657052,14.69408623841858,12.870597400000001C14.541457238418579,12.0841432,13.884167238418579,11.4744701,13.053467238418579,11.3488326C12.47388123841858,11.312494300000001,11.90651913841858,11.5186968,11.50021673841858,11.9133487C11.09613253841858,11.5211668,10.53281803841858,11.315174599999999,9.956465938418578,11.348833599999999C9.12504653841858,11.473039199999999,8.466317438418578,12.0821247,8.312569838418579,12.8688421C8.15882233841858,13.655559499999999,8.54346493841858,14.448966500000001,9.272465938418579,14.848834C9.989716338418578,15.2417374,11.134465438418578,15.896575,11.38621543841858,16.0907688C11.384156438418579,16.0996952,11.384156438418579,16.108939200000002,11.38621543841858,16.1178646C11.40292953841858,16.1512432,11.434170038418578,16.1759949,11.471716138418579,16.1856079Z" fill-rule="evenodd" fill="#153880" fill-opacity="1" style="mix-blend-mode:passthrough"/></g><g><path d="M3.9506395000000003,2L10.9890308,2C12.099659,2,13,3.0103586,13,4.2566993L13,6L2,6L2,4.1889985C2.0000002684933,2.98004824,2.87333113,2.00000030130187,3.9506395000000003,2Z" fill="#B468F6" fill-opacity="1" style="mix-blend-mode:passthrough"/></g></g></svg>