<svg xmlns="http://www.w3.org/2000/svg" width="42" height="42" fill="none"><defs><clipPath id="a"><rect width="27.391" height="27.391" x="7.304" y="7.304" rx="0"/></clipPath></defs><rect width="42" height="42" fill="#2855B3" rx="16"/><g clip-path="url(#a)"><path fill="#EAF1FD" d="M30.701 30.13H11.3V11.87h6.277l2.283 4.565H30.7z" style="mix-blend-mode:passthrough"/><path fill="#EAF1FD" d="M10.157 11.87c0-.63.511-1.142 1.142-1.142h6.277c.432 0 .827.245 1.02.631l1.968 3.934H30.7c.63 0 1.141.511 1.141 1.142V30.13c0 .63-.51 1.142-1.141 1.142H11.299c-.63 0-1.142-.511-1.142-1.142zm2.283 1.14V28.99h17.12V17.576h-9.702c-.432 0-.827-.244-1.02-.631L16.87 13.01z" style="mix-blend-mode:passthrough"/><path fill="#28B3A5" d="M17.576 11.87H29.56c.63 0 1.141.51 1.141 1.141v3.424H28.42v-2.283H17.576z" style="mix-blend-mode:passthrough"/><path fill="#2855B3" d="M17.006 22.141h7.989v2.283h-7.99z" style="mix-blend-mode:passthrough"/><path fill="#2855B3" d="M22.141 19.288v7.989H19.86v-7.99z" style="mix-blend-mode:passthrough"/></g></svg>