<svg xmlns="http://www.w3.org/2000/svg" width="32" height="34" fill="none" viewBox="3 2 32 34"><defs><clipPath id="a"><rect width="37" height="37" rx="0"/></clipPath></defs><g clip-path="url(#a)"><path fill="#F4AF6E" d="M27.75 2.313H9.25A3.476 3.476 0 0 0 5.781 5.78V31.22a3.476 3.476 0 0 0 3.469 3.468h18.5a3.476 3.476 0 0 0 3.469-3.468V5.78a3.476 3.476 0 0 0-3.469-3.468m-8.094 16.152c.639 0 1.157.517 1.157 1.156v1.156a4.63 4.63 0 0 1-3.47 4.472v.767c.002 2.049 2.076 3.446 3.975 2.678a3.476 3.476 0 1 1 1.969 1.541 5.21 5.21 0 0 1-8.256-4.22v-.766a4.63 4.63 0 0 1-3.469-4.472v-1.156a1.156 1.156 0 1 1 2.313 0v1.156a2.313 2.313 0 0 0 4.625 0v-1.156c0-.639.518-1.156 1.156-1.156m4.625 7.298a1.156 1.156 0 1 0 0 2.312 1.156 1.156 0 0 0 0-2.312M10.406 13.875a1.156 1.156 0 1 1 0-2.312h6.938a1.156 1.156 0 1 1 0 2.312zM26.594 9.25H10.406a1.156 1.156 0 0 1 0-2.312h16.188a1.156 1.156 0 1 1 0 2.312" style="mix-blend-mode:passthrough"/></g></svg>