<svg xmlns="http://www.w3.org/2000/svg" width="32" height="34" fill="none" viewBox="1 0 32 34"><defs><clipPath id="a"><rect width="33" height="33" rx="0"/></clipPath></defs><g clip-path="url(#a)"><path fill="#988AEA" d="M27.563 2A2.435 2.435 0 0 1 30 4.434v24.132A2.435 2.435 0 0 1 27.563 31H6.437A2.436 2.436 0 0 1 4 28.566V4.434A2.435 2.435 0 0 1 6.437 2zm-8.391 12.973a5.546 5.546 0 0 0-5.558 5.535 5.546 5.546 0 0 0 5.558 5.533c1.27 0 2.428-.441 3.364-1.156l2.023 2.017a.96.96 0 0 0 1.576-.311.955.955 0 0 0-.208-1.048l-2.075-2.068a5.47 5.47 0 0 0 .455-5.087 5.55 5.55 0 0 0-5.135-3.415m0 1.925a3.625 3.625 0 0 1 3.342 2.23 3.61 3.61 0 0 1-.777 3.938 3.63 3.63 0 0 1-5.045-.077 3.61 3.61 0 0 1-.081-5.035 3.63 3.63 0 0 1 2.56-1.058zm-6.377-4.977H8.971a1.146 1.146 0 1 0 0 2.29h3.822a1.146 1.146 0 1 0 0-2.29zm9.178-5.342H8.97a1.146 1.146 0 1 0 0 2.29h13a1.146 1.146 0 1 0 0-2.29z" style="mix-blend-mode:passthrough"/></g></svg>