<svg xmlns="http://www.w3.org/2000/svg" width="32" height="34" fill="none" viewBox="1 0 32 34"><defs><clipPath id="a"><rect width="34" height="34" rx="0"/></clipPath></defs><g clip-path="url(#a)"><path fill="#57CC72" d="M19.99 13.652a2.353 2.353 0 0 1-2.352-2.353V1.7H6.603A2.353 2.353 0 0 0 4.25 4.052v25.894A2.353 2.353 0 0 0 6.603 32.3h20.634a2.353 2.353 0 0 0 2.353-2.353V13.652zM6.239 9.967a2.9 2.9 0 0 1-.246-1.144c0-.666.249-1.28.707-1.721.474-.461 1.127-.7 1.837-.676.372.01.741.106 1.08.273.345.173.654.412.908.704l.31.358.311-.358c.52-.598 1.243-.953 1.988-.977.71-.024 1.363.218 1.837.676.458.444.71 1.055.71 1.725 0 .375-.078.751-.245 1.144h-2.75l-.235-.489a.53.53 0 0 0-.461-.293h-.007a.52.52 0 0 0-.461.293l-.55 1.114-.72-1.51a.55.55 0 0 0-.468-.324h-.02a.52.52 0 0 0-.448.25l-.605.959H6.238zm.536.933h2.455l.489-.779.765 1.602c.09.19.283.312.495.31.215 0 .403-.119.492-.314l.519-1.051.095.204h2.835c-.738 1.039-1.967 2.138-3.5 3.511l-.417.366a.25.25 0 0 1-.335 0l-.417-.366c-1.52-1.362-2.739-2.455-3.476-3.483m16.488 14.115a1.2 1.2 0 0 1-.843.351H10.828c-.796-.744-.718-1.57-.25-2.039.223-.225.527-.351.844-.351h11.591c.8.744.717 1.574.25 2.039m0-5.977a1.19 1.19 0 0 1-.843.352H10.828c-.796-.745-.718-1.571-.25-2.04.223-.224.527-.35.844-.35h11.591c.8.744.717 1.574.25 2.038m5.97-8.63-8.34-8.34a1.2 1.2 0 0 0-.843-.348h-.021v7.189a2.353 2.353 0 0 0 2.353 2.353h7.2a1.19 1.19 0 0 0-.349-.854" style="mix-blend-mode:passthrough"/></g></svg>