<svg xmlns="http://www.w3.org/2000/svg" width="32" height="34" fill="none" viewBox="0 -2 32 34"><defs><clipPath id="a"><rect width="31" height="31" rx="0"/></clipPath></defs><g clip-path="url(#a)"><path fill="#FF7B7B" d="M13.245 19.093V4.298C13.245 2.043 11.343 0 9.16 0 6.905 0 5.146 1.973 5.146 4.227v14.655C3.943 20.01 3.1 21.56 3.1 23.39c0 3.451 2.748 6.27 6.06 6.27 3.31 0 6.058-2.747 6.058-6.2 0-1.831-.704-3.24-1.973-4.369zM9.16 27.97c-2.394 0-4.367-2.043-4.439-4.51-.07-2.605 1.763-3.733 1.763-3.733V3.875c0-1.198 1.409-2.395 2.607-2.395 1.196 0 2.677 1.197 2.677 2.395v15.993c1.057.775 1.69 2.325 1.69 3.593.142 2.466-1.901 4.51-4.298 4.51zm6.061-22.827h2.325a.705.705 0 0 0 0-1.41l-2.325.001a.705.705 0 0 0-.705.705c0 .352.352.704.703.704zm2.325.705h-2.325a.705.705 0 0 0 0 1.41h2.325a.705.705 0 0 0 0-1.411zm0 2.113h-2.325a.705.705 0 0 0 0 1.41h2.325a.705.705 0 0 0 0-1.41m-6.06 12.894-.915-.775v-3.735c0-.775-.564-1.41-1.34-1.41-.774 0-1.41.636-1.41 1.411v3.734l-.914.775c-.775.704-1.129 1.62-1.129 2.606 0 1.903 1.55 3.523 3.454 3.523 1.902 0 3.452-1.55 3.452-3.523a4.08 4.08 0 0 0-1.199-2.606m10.426-8.032c-2.253 2.254-5.987 7.679-5.987 10.92s2.677 5.918 5.987 5.918c3.313 0 5.99-2.606 5.99-5.918 0-3.24-3.665-8.665-5.99-10.92" style="mix-blend-mode:passthrough"/></g></svg>