<svg xmlns="http://www.w3.org/2000/svg" width="32" height="34" fill="none" viewBox="-1 -1 32 34"><defs><clipPath id="a"><rect width="31" height="31" rx="0"/></clipPath></defs><g clip-path="url(#a)"><path fill="#19B4A5" d="M23.424 31H7.9a5.005 5.005 0 0 1-4.818-5.162V5.161A5.005 5.005 0 0 1 7.899 0h15.525a5.005 5.005 0 0 1 4.819 5.161v20.677A5.005 5.005 0 0 1 23.424 31" style="mix-blend-mode:passthrough"/><path fill="#92D4D7" d="m16.87 6.077 4.11 4.11q1.37 1.37 0 2.74l-4.11 4.11q-1.37 1.37-2.74 0l-4.11-4.11q-1.37-1.37 0-2.74l4.11-4.11q1.37-1.37 2.74 0" style="mix-blend-mode:passthrough"/><path fill="#FFF" d="M19.375 23.25H7.75a.969.969 0 1 1 0-1.937h11.625a.969.969 0 1 1 0 1.937M23.25 27.125H7.75a.969.969 0 1 1 0-1.937h15.5a.969.969 0 1 1 0 1.937" style="mix-blend-mode:passthrough"/><path fill="#92D4D7" d="M21.473 1.938H9.848a.969.969 0 1 1 0-1.938h11.625a.969.969 0 1 1 0 1.938" style="mix-blend-mode:passthrough"/><path fill="#FFF" d="M14.392 14.94v-2.201H12.18a1.105 1.105 0 1 1 0-2.211h2.21v-2.21a1.105 1.105 0 1 1 2.211 0v2.21h2.211a1.105 1.105 0 0 1 0 2.21h-2.21v2.211a1.105 1.105 0 0 1-2.211 0z" style="mix-blend-mode:passthrough"/></g></svg>