<svg xmlns="http://www.w3.org/2000/svg" width="32" height="34" fill="none"><defs><clipPath id="a"><rect width="17.059" height="16.361" x="14.941" y="16.639" rx="0"/></clipPath></defs><path fill="#2855B3" d="M23.915 33H5.969C4.33 33 3 31.593 3 29.859V5.14C3 3.405 4.33 2 5.97 2h17.943c1.64 0 2.97 1.407 2.97 3.141V29.86c0 1.736-1.33 3.141-2.968 3.141" style="mix-blend-mode:passthrough"/><path fill="#FFF" fill-opacity=".477" d="M6.625 7.88h13.05v1.765H6.625zm0 3.53h11.186v1.763H6.625zm0 3.528h7.99v1.764h-7.99z" style="mix-blend-mode:passthrough"/><g clip-path="url(#a)"><path fill="#E3F0FF" d="M23.471 27.546c7.888 0 7.81 4.684 7.81 4.684.06.425-.26.77-.715.77H16.377c-.455 0-.792-.35-.715-.77 0 0-.08-4.684 7.81-4.684M23.47 16.64h4.976v4.772c0 .944-.292 1.866-.839 2.651a4.94 4.94 0 0 1-2.233 1.758c-.909.36-1.91.455-2.874.271a5.05 5.05 0 0 1-2.548-1.306 4.7 4.7 0 0 1-1.362-2.443 4.6 4.6 0 0 1 .283-2.757 4.8 4.8 0 0 1 1.833-2.142 5.13 5.13 0 0 1 2.764-.804"/></g></svg>