<svg xmlns="http://www.w3.org/2000/svg" width="32" height="34" fill="none" viewBox="-2 -3 32 34"><defs><clipPath id="a"><rect width="29" height="29" rx="0"/></clipPath></defs><g clip-path="url(#a)"><path fill="#57CC72" d="M20.97 12.99q.73-.11 1.469-.119v-1.263q-.001-.103-.008-.205a3.115 3.115 0 0 0-3.104-2.906H16.46V5.635a3.115 3.115 0 0 0-3.111-3.112h-2.934a3.115 3.115 0 0 0-3.111 3.112v2.862H4.406a3.115 3.115 0 0 0-3.111 3.111v2.933a3.115 3.115 0 0 0 3.111 3.112h2.899v2.81a3.115 3.115 0 0 0 3.111 3.11h1.702a10 10 0 0 1 .05-1.467c.498-4.662 4.15-8.409 8.803-9.116" style="mix-blend-mode:passthrough"/><path fill="#57CC72" d="m27.37 15.21-.056-.486s-3.836-1.603-7.308-.42c-7.661 2.181-7.214 11.898-6.928 12.305.237.622.825 1.108 1.498.41 1.638-1.327 3.71-.989 4.293-.989h.001c2.668 0 4.77-.84 6.246-2.497 2.814-3.159 2.278-8.113 2.254-8.323" style="mix-blend-mode:passthrough"/></g></svg>