<svg xmlns="http://www.w3.org/2000/svg" width="32" height="34" fill="none" viewBox="-1 -2 32 34"><defs><clipPath id="a"><rect width="30" height="30" rx="0"/></clipPath></defs><g clip-path="url(#a)"><path fill="#5CD8DC" d="M13.937.535a1.325 1.325 0 0 1 2.126 0l.929 1.271.562.793a105 105 0 0 1 3.264 4.922 71 71 0 0 1 1.88 3.195c1.928 3.504 3.015 6.315 3.015 8.375C25.714 25.115 20.917 30 15 30 9.082 30 4.286 25.115 4.286 19.09c0-2.059 1.087-4.871 3.016-8.374a71 71 0 0 1 1.88-3.195q1.695-2.72 3.552-5.329l.539-.752zM15 13.636c-.74 0-1.34.61-1.34 1.364v2.727h-2.678l-.156.01a1.355 1.355 0 0 0-1.183 1.354c0 .753.6 1.364 1.34 1.364l2.677-.002v2.728l.01.16A1.35 1.35 0 0 0 15 24.545c.74 0 1.34-.61 1.34-1.364l-.002-2.728h2.68l.156-.008a1.355 1.355 0 0 0 1.183-1.354c0-.754-.6-1.364-1.34-1.364h-2.679L16.34 15l-.008-.159A1.35 1.35 0 0 0 15 13.636" style="mix-blend-mode:passthrough"/></g></svg>