<svg xmlns="http://www.w3.org/2000/svg" xmlns:xlink="http://www.w3.org/1999/xlink" fill="none" version="1.1" width="20" height="20" viewBox="1 1 20 20"><defs><clipPath id="master_svg0_103_019165"><rect x="0" y="0" width="22" height="22" rx="0"/></clipPath></defs><g clip-path="url(#master_svg0_103_019165)"><g><path d="M13.4837923125,7.67563766C13.0184121125,7.15709722,12.3532524125,6.859375,11.6591172125,6.859375L10.2740340125,6.859375C9.5799210125,6.859375,8.9147396125,7.15711907,8.449073112499999,7.67563766L6.2180263175,10.1633611C6.1066059095,10.2877531,6.1118821705,10.4780333,6.2289308905,10.5959182L6.9886696325,11.3601413C7.0500082925,11.4215674,7.1312209325,11.4576669,7.2196233125,11.4517097C7.3059149125000005,11.448851099999999,7.3871058125,11.410311700000001,7.4437398125000005,11.344796200000001L9.044825812500001,9.5015879L9.044825812500001,17.626399C9.044825812500001,17.800102000000003,9.1843433125,17.940499000000003,9.3564644125,17.940499000000003L10.4306345125,17.940499000000003C10.6024036125,17.940499000000003,10.7421856125,17.80008,10.7421856125,17.626399L10.7421856125,12.8936672L11.192594512500001,12.8936672L11.192594512500001,17.626442C11.192594512500001,17.800145999999998,11.332024112500001,17.940544,11.5041456125,17.940544L12.577414512499999,17.940544C12.7495355125,17.940544,12.888679512500001,17.800124,12.8880415125,17.626442L12.8880410125,9.501917800000001L14.4895000125,11.3448405C14.5467720125,11.410356499999999,14.6283579125,11.448873500000001,14.7145395125,11.4517322C14.7979727125,11.458261499999999,14.8841762125,11.4213481,14.9448767125,11.3601861L15.7037592125,10.5959623C15.8217316125,10.4777925,15.8257761125,10.2877975,15.7143116125,10.1633837L13.4837923125,7.67563766Z" fill="#2855B3" fill-opacity="1" style="mix-blend-mode:passthrough"/></g><g><path d="M10.96680473125,6.4053878875C11.92799303125,6.4053878875,12.71050833125,5.6173100875,12.71050833125,4.6492843875C12.71050833125,3.6812583175,11.92797133125,2.8935546875,10.96680473125,2.8935546875C10.00530839125,2.8935546875,9.22314453125,3.6812587975,9.22314453125,4.6492843875C9.223123550415,5.6175953875,10.00530922125,6.4053878875,10.96680473125,6.4053878875Z" fill="#2855B3" fill-opacity="1" style="mix-blend-mode:passthrough"/></g><g><path d="M18.189971265624997,17.88094175C18.192696265625003,17.86332875,18.194566265625,17.84541175,18.194589265624998,17.82703175L18.194589265624998,1.7521266C18.194589265624998,1.55887757,18.038713265625,1.40234375,17.845862265625,1.40234375L16.240619265625,1.40234375C16.047743265625,1.40234375,15.891144265625,1.55885564,15.891144265625,1.75252229C15.891144265625,1.94546354,16.047435265624998,2.10232717,16.240619265625,2.10232717L17.496076265625,2.10232717L17.496076265625,5.42132855L16.642748265625002,5.42132855C16.449190265625,5.42132855,16.293295265624998,5.57828045,16.293295265624998,5.77150775C16.293295265624998,5.96444795,16.449190265625,6.12137845,16.642748265625002,6.12137845L17.496054265625,6.12137845L17.496054265625,9.43998435L16.642748265625002,9.43998435C16.449190265625,9.43998435,16.293295265624998,9.59660725,16.293295265624998,9.78985505C16.293295265624998,9.98308275,16.449190265625,10.13994505,16.642748265625002,10.13994505L17.496054265625,10.13994505L17.496054265625,13.45828675L16.642748265625002,13.45828675C16.449190265625,13.45828675,16.293295265624998,13.61407475,16.293295265624998,13.80809275C16.293295265624998,14.00204575,16.449190265625,14.15827175,16.642748265625002,14.15827175L17.496054265625,14.15827175L17.496054265625,16.74703775C16.669261265625,16.09284875,15.289300265625,15.75513775,14.357638265625,15.58576375C14.037734265625,15.52176675,13.781806265625,15.71371675,13.717806865625,16.03362275C13.653808565625,16.353527749999998,13.845759265625,16.60945675,14.165685265625,16.673454749999998C15.408965265625,16.886599750000002,16.178729265625,17.19830475,16.617729265625,17.47727375C16.969423265625,17.70077475,17.108874265624998,17.90323475,17.108874265624998,18.01707275C17.108874265624998,18.06572675,17.089110265625,18.11958875,17.050129265625,18.17723675C16.679042265625,18.72589475,14.556449265625,19.61662075,10.966568465625,19.61662075C6.999666465624999,19.61662075,4.824263165625,18.59290875,4.824263165625,18.01707275C4.824263165625,17.76114475,5.5280939656250005,17.057336749999997,7.703474765625,16.673454749999998C8.023379765625,16.60945675,8.215332065624999,16.35354775,8.151355265625,16.03362275C8.087357065625,15.71373875,7.831450465625,15.52178875,7.511522765625,15.58576375C6.103905165625,15.84166875,3.736572265625,16.48150375,3.736572265625,17.95309875C3.736572265625,19.74459875,7.319549365625,20.64035775,10.902591265625,20.64035775C14.485612265625,20.64038075,18.132607265624998,19.74461975,18.196606265625,18.01711875C18.196591265625003,17.97090375,18.194281265625,17.92555075,18.189971265624997,17.88094175Z" fill="#1AFA29" fill-opacity="1" style="mix-blend-mode:passthrough"/></g></g></svg>