<svg xmlns="http://www.w3.org/2000/svg" xmlns:xlink="http://www.w3.org/1999/xlink" fill="none" version="1.1" width="42" height="42" viewBox="0 0 42 42"><defs><clipPath id="master_svg0_120_034247"><rect x="10" y="10" width="23" height="23" rx="0"/></clipPath></defs><g><g><rect x="0" y="0" width="42" height="42" rx="16" fill="#28B3A5" fill-opacity="1"/></g><g clip-path="url(#master_svg0_120_034247)"><g><path d="M13.2859152031,16.9825613125L27.89502353125,16.9825613125C28.90054653125,16.9848237125,29.71448753125,17.8006010125,29.71448753125,18.8061323125L29.71448753125,27.8911328125C29.71449053125,28.8966618125,28.90054953125,29.7124408125,27.89502353125,29.7147048125L15.10537943125,29.7147048125C14.09985548125,29.7124428125,13.28591498375,28.8966658125,13.2859152031,27.8911328125L13.2859152031,16.9825613125ZM13.2859152031,14.9289899125C13.26983391725,14.0421929925,13.97229230125,13.3085549265,14.85895093125,13.2861328125L20.74859383125,13.2861328125C21.63722513125,13.3040787505,22.34226893125,14.0404176125,22.32162953125,14.9289899125L22.32162953125,16.1611328125L13.2859152031,16.1611328125L13.2859152031,14.9289899125Z" fill="#FFFFFF" fill-opacity="1" style="mix-blend-mode:passthrough"/></g><g><path d="M11.23193359375,12.0537109375L24.37479159375,12.0537109375L24.37479159375,16.9822826375L11.23193359375,16.9822826375L11.23193359375,12.0537109375Z" fill="#68D4BC" fill-opacity="1" style="mix-blend-mode:passthrough"/></g><g><path d="M21.50006055,25.36072115L21.47541765,25.33607915C21.44295285,25.32733675,21.41594005,25.30482675,21.40148855,25.27447125C21.39970755,25.26635365,21.39970755,25.25794645,21.40148855,25.24982925C21.18380975,25.07322125,20.19398865,24.47768615,19.57380968,24.12036495C18.94347066,23.75671005,18.6108847,23.03515505,18.743824502,22.31968375C18.8767643,21.60421246,19.44634211,21.05028623,20.16523865,20.9373287586C20.66358805,20.906717833,21.15066405,21.09405522,21.50006055,21.45072091C21.85137515,21.09180914,22.34195085,20.904280469,22.84309675,20.9373278811C23.56137085,21.05158738,24.12970495,21.60604793,24.26167675,22.32127975C24.39364865,23.03651235,24.06061645,23.75729015,23.43041755,24.12036415C22.81434675,24.48179315,21.82452465,25.07322125,21.60684655,25.24982925C21.60862685,25.25794645,21.60862685,25.26635365,21.60684655,25.27447125C21.59394815,25.30599885,21.56625465,25.32907775,21.53291745,25.33607915L21.50006055,25.36072115Z" fill="#ED5564" fill-opacity="1" style="mix-blend-mode:passthrough"/></g></g></g></svg>