<svg xmlns="http://www.w3.org/2000/svg" width="68" height="72" fill="none" viewBox="12 2 68 72"><defs><clipPath id="a"><rect width="92.627" height="85.192" rx="0"/></clipPath></defs><g clip-path="url(#a)"><path fill="#FFF" d="M30.394 19.887h31.84q5.79 0 5.79 5.324v34.77q0 5.325-5.79 5.325h-31.84q-5.789 0-5.789-5.324v-34.77q0-5.325 5.79-5.325" style="mix-blend-mode:passthrough"/><path fill="#5D94FF" d="M46.314 48.266c3.373.02 6.337-2.054 7.215-5.049.21-.924 1.065-1.605 2.09-1.661h13.026c2.034-.019 3.7 1.483 3.72 3.354v16.773c-.04 3.743-3.373 6.747-7.443 6.71H27.706c-4.07.037-7.402-2.967-7.443-6.71V44.91c.02-1.871 1.686-3.373 3.72-3.354H37.01c1.024.057 1.88.737 2.09 1.661.878 2.995 3.842 5.07 7.215 5.05" style="mix-blend-mode:passthrough"/><path fill="#FFF" d="M36.283 58.331c0-1.39 1.224-2.516 2.735-2.516H53.61c1.51 0 2.736 1.127 2.736 2.517s-1.225 2.516-2.736 2.516H39.018c-1.511 0-2.736-1.127-2.735-2.517" style="mix-blend-mode:passthrough"/><path fill="#E3F0FF" d="M30.008 6.812c-4.794.005-8.679 3.578-8.684 7.986v9.161c.005 4.41 3.89 7.982 8.684 7.987H62.62c4.793-.005 8.678-3.578 8.684-7.987V14.8c-.006-4.41-3.89-7.982-8.684-7.987zm0-2.663H62.62c6.394 0 11.578 4.768 11.578 10.65v9.16c0 5.882-5.184 10.65-11.578 10.65H30.008c-6.395 0-11.579-4.768-11.579-10.65V14.8c0-5.882 5.184-10.65 11.579-10.65" style="mix-blend-mode:passthrough"/><path fill="#FFF" d="M49.209 25.291q0 .131-.014.261t-.042.259-.069.253-.096.246q-.054.12-.121.236t-.146.224q-.08.109-.17.21t-.19.194q-.1.092-.21.175t-.229.156-.243.134-.257.112q-.132.05-.268.088t-.275.063-.281.039q-.142.012-.284.012t-.284-.012q-.141-.013-.28-.039-.14-.025-.276-.063t-.268-.088-.256-.112q-.126-.062-.244-.134t-.228-.156-.21-.175q-.101-.093-.192-.194-.09-.101-.169-.21t-.146-.224-.121-.236-.096-.246-.069-.253-.042-.259-.014-.26q0-.132.014-.262t.042-.258q.028-.128.07-.254.04-.125.095-.246.054-.12.121-.236t.146-.224q.08-.109.17-.21t.19-.193q.1-.093.21-.176t.229-.155.244-.135.256-.111q.132-.05.268-.088t.275-.064.281-.038q.142-.013.284-.013t.284.013q.141.013.28.038t.276.064.268.088.257.111.243.135.228.155.21.176.192.193.169.21.146.224.121.236.096.246.069.254.042.258.014.261" style="mix-blend-mode:passthrough"/><path fill="#FFB444" d="M49.209 25.291q0 .131-.014.261t-.042.259-.069.253-.096.246q-.054.12-.121.236t-.146.224q-.08.109-.17.21t-.19.194q-.1.092-.21.175t-.229.156-.243.134-.257.112q-.132.05-.268.088t-.275.063-.281.039q-.142.012-.284.012t-.284-.012q-.141-.013-.28-.039-.14-.025-.276-.063t-.268-.088-.256-.112q-.126-.062-.244-.134t-.228-.156-.21-.175q-.101-.093-.192-.194-.09-.101-.169-.21t-.146-.224-.121-.236-.096-.246-.069-.253-.042-.259-.014-.26q0-.132.014-.262t.042-.258q.028-.128.07-.254.04-.125.095-.246.054-.12.121-.236t.146-.224q.08-.109.17-.21t.19-.193q.1-.093.21-.176t.229-.155.244-.135.256-.111q.132-.05.268-.088t.275-.064.281-.038q.142-.013.284-.013t.284.013q.141.013.28.038t.276.064.268.088.257.111.243.135.228.155.21.176.192.193.169.21.146.224.121.236.096.246.069.254.042.258.014.261M49.21 41.265q0 .13-.015.26t-.041.26-.07.253q-.04.125-.095.246-.055.12-.122.236t-.146.224q-.079.109-.169.21t-.19.193-.211.176-.228.155-.244.135-.257.111-.267.088-.276.064-.28.038-.284.013-.284-.013-.281-.038-.276-.064-.267-.088-.257-.111-.244-.135-.228-.155-.21-.176-.191-.193-.17-.21q-.078-.109-.145-.224-.067-.116-.122-.236-.054-.121-.095-.246-.042-.126-.07-.254-.027-.128-.041-.258t-.014-.261.014-.261.042-.259q.027-.128.069-.253.04-.125.095-.246.055-.12.122-.236t.146-.224q.079-.109.169-.21t.19-.194.211-.175.228-.156.244-.134.257-.112.267-.088.276-.063.28-.039.285-.012.283.012.281.039.276.063.267.088.257.112.244.134.228.156.21.175.191.194.17.21.145.224.122.236.095.246.07.253.041.259.014.26" style="mix-blend-mode:passthrough"/><path fill="#FFB444" d="M47.038 41.557h-1.447V25.583h1.447z" style="mix-blend-mode:passthrough"/></g></svg>