<svg xmlns="http://www.w3.org/2000/svg" xmlns:xlink="http://www.w3.org/1999/xlink" fill="none" version="1.1" width="16" height="16" viewBox="-1 -1 16 16"><defs><clipPath id="master_svg0_114_062805"><rect x="0" y="0" width="15" height="15" rx="0"/></clipPath></defs><g clip-path="url(#master_svg0_114_062805)"><g><path d="M10.332031225,12.3696294375L10.314453125,12.3696294375C9.769531225,12.3637704375,9.223144525,12.3637704375,8.676758325,12.3637704375L7.843262225,12.3637704375C7.286621525,12.3637704375,6.729980425,12.3637704375,6.171875025,12.3564464375C5.862792925,12.3476574375,5.558105425,12.2832034375,5.270996125,12.1660154375C4.783203325000001,11.9755864375,4.504883025,11.5507814375,4.506347925,10.9985354375L4.507812725,8.9272461375C4.507812725,7.7802739375,4.507812725,6.6318364375,4.5180666249999994,5.4848632375C4.519531525,5.1728515375,4.720215125,4.8798828375,4.891601525,4.7260742375C5.555175825,4.1196291375000005,6.275878925,3.3637697375,6.577636725,2.3442382375C6.661132825,2.0600587375,6.693359325,1.7465820375,6.727050825,1.4155273375C6.794433625,0.7563476874999999,7.222168425,0.3271484375,7.793457525,0.3271484375C8.017578624999999,0.3271484375,8.241699725,0.3945312495,8.461426225,0.5249023575C8.902343725,0.7900390875000001,9.196777325,1.2060547475,9.359375025,1.7993164375C9.620117225,2.7412109375,9.486816425,3.6552736375,9.340332025,4.4389648375L9.340332025,4.4418945375C9.306640625,4.6250000375,9.444335925,4.7949218375,9.631835925,4.7949218375L11.536133125,4.7949218375C11.864258125,4.7949218375,12.334473125,4.8359375375,12.624512125,5.1875000375C12.835449125,5.4438476375,12.895509125,5.7895507375,12.806152125,6.2465820375C12.533691125,7.6513676375,12.199707125,9.0678711375,11.880371125,10.3876954375C11.780762125,10.7993164375,11.615234125,11.1801754375,11.455566125,11.5493164375L11.386719125,11.7075194375C11.205078125,12.1352534375,10.830078125,12.3696294375,10.332031225,12.3696294375ZM2.1655273250000002,12.2319334375L1.991210925,12.2319334375C1.361328125,12.2319334375,0.845703125,11.7163084375,0.845703125,11.0864254375L0.845703125,5.9814453375C0.845703125,5.3515625375,1.361328125,4.8359375375,1.991210925,4.8359375375L2.1655273250000002,4.8359375375C2.7954103249999998,4.8359375375,3.311035125,5.3515625375,3.311035125,5.9814453375L3.311035125,11.0849604375C3.312500025,11.7163084375,2.7968751249999997,12.2319334375,2.1655273250000002,12.2319334375Z" fill="#7A8790" fill-opacity="1" style="mix-blend-mode:passthrough"/></g></g></svg>