<svg xmlns="http://www.w3.org/2000/svg" xmlns:xlink="http://www.w3.org/1999/xlink" fill="none" version="1.1" width="18" height="18" viewBox="0 0 18 18"><defs><clipPath id="master_svg0_98_081072"><rect x="0" y="0" width="19" height="19" rx="0"/></clipPath></defs><g clip-path="url(#master_svg0_98_081072)"><g><path d="M10.0080371140625,11.591425L10.0080371140625,16.119360999999998L10.387325314062501,16.119360999999998C10.5908623140625,16.119360999999998,10.7535505140625,16.281812000000002,10.7535505140625,16.484873999999998L10.7535505140625,16.971987C10.7535505140625,17.175049,10.5908623140625,17.3375,10.387325314062501,17.3375L8.678749514062499,17.3375C8.4763317140625,17.338556,8.3118620140625,17.174407000000002,8.3125243140625,16.971987L8.3125243140625,16.484873999999998C8.3125243140625,16.281812000000002,8.4752121140625,16.119360999999998,8.678749514062499,16.119360999999998L8.7875242140625,16.119360999999998L8.7875242140625,11.567438C8.1181488140625,11.475661,7.472913314062501,11.25499,6.8875244140625,10.9176378C5.2718359240625,9.9878197,4.2756981086525,8.265950199999999,4.2750244140625,6.4018121C4.2750244140625,3.522125,6.6143994140625,1.1875,9.5000243140625,1.1875C12.3856497140625,1.1875,14.7250244140625,3.522125,14.7250244140625,6.4018121C14.7244354140625,8.2660351,13.7282867140625,9.9880142,12.1125245140625,10.9178753C11.4670501140625,11.289855,10.7495284140625,11.519581,10.0080371140625,11.591662L10.0080371140625,11.591425Z" fill="#2855B3" fill-opacity="1" style="mix-blend-mode:passthrough"/></g><g><path d="M6.7445068359375,8.775722975C7.0266569559375,8.282197475,7.1788945459375,7.538347475,7.2009818559375,6.5436975749999995L7.6130444959375,6.566022675C7.6022175559375,6.901049875,7.5752697559375,7.235361075,7.5322946359375,7.567797375C7.6714692759375005,7.866572375,7.8560072359375,8.105021975,8.0861448359375,8.283147375L8.0861448359375,6.209772575000001L6.7725323889375,6.209772575000001L6.7725323889375,5.803409975L7.9134825359375,5.803409975L7.9134825359375,5.0073097749999995L6.9672826659375,5.0073097749999995L6.9672826659375,4.601184605L7.9134825359375,4.601184605L7.9134825359375,3.810546875L8.3476325359375,3.810546875L8.3476325359375,4.600946905L9.2829077359375,4.600946905L9.2829077359375,5.007309275L8.3476325359375,5.007309275L8.3476325359375,5.803409675L9.3942952359375,5.803409675L9.3942952359375,6.209534875L8.5036702359375,6.209534875L8.5036702359375,7.072372675L9.3496451359375,7.072372675L9.3496451359375,7.473273075L8.5036702359375,7.473273075L8.5036702359375,8.525397775C8.7615947359375,8.629185175,9.0584697359375,8.683097875,9.3942952359375,8.686897275C10.3034451359375,8.694022175,11.2627072359375,8.686897275,12.272082335937501,8.664334775C12.2053446359375,8.831534875,12.1533322359375,8.977835175,12.1162824359375,9.104184674999999C10.9473071359375,9.107984575,10.0008697359375,9.102284874999999,9.2774448359375,9.087559174999999C8.3792197359375,9.070933775,7.7659952359375,8.746034175,7.4375323659375,8.113334175C7.3337450059375,8.599496375000001,7.1843572859375,8.994696574999999,6.9896077559375,9.298933975C6.9140205659375,9.121730375,6.8322712329375,8.947220375,6.7445068359375,8.775722975ZM10.0790066359375,7.339560275C10.0790066359375,7.540010175,10.1789939359375,7.640235175,10.3794438359375,7.640235175L11.3368063359375,7.640235175C11.544619035937501,7.640235175,11.6617064359375,7.549272975,11.6875934359375,7.367584975C11.7099185359375,7.200384875,11.7303433359375,6.951960075000001,11.7488680359375,6.621597575C11.8638181359375,6.673609975,12.0048933359375,6.7272851750000005,12.1718564359375,6.783097274999999C12.1386065359375,7.142909575,12.1051192359375,7.406534875,12.071631435937501,7.573497075000001C12.0160565359375,7.885097075,11.7897195359375,8.040897375,11.3923812359375,8.040897375L10.2737565359375,8.040897375C9.8616938359375,8.040897375,9.6557817359375,7.829522175,9.6557817359375,7.406534875L9.6557817359375,5.5972597749999995L11.392619135937501,5.5972597749999995L11.392619135937501,4.539672195L9.5498566359375,4.539672195L9.5498566359375,4.139247865L11.8153686359375,4.139247865L11.8153686359375,6.187685275L11.3923812359375,6.187685275L11.3923812359375,5.998397575L10.0785312359375,5.998397575L10.0785312359375,7.339798175L10.0790066359375,7.339560275Z" fill="#FFFFFF" fill-opacity="1" style="mix-blend-mode:passthrough"/></g><g><path d="M10.1105875859375,10.9221668L10.1105875859375,15.397616L10.3549756859375,15.397616C10.5581831859375,15.397216,10.7227582859375,15.562538,10.7214383859375,15.765741L10.7214383859375,16.256892C10.7227592859375,16.460095000000003,10.5581845859375,16.625418,10.3549756859375,16.625017L8.6449756859375,16.625017C8.4417676859375,16.625418,8.2771925859375,16.460095000000003,8.2785131859375,16.256892L8.2785131859375,15.76598C8.2785131859375,15.561254,8.441437985937501,15.397854,8.6449756859375,15.397854L8.889363285937499,15.397854L8.889363285937499,10.9219294C8.3511387859375,10.8439798,7.8328332859375,10.6636333,7.3624755859375,10.3906412C6.0396006659375,9.623517,5.2249755859375,8.2051668,5.2249755859375,6.6706791C5.2249755859375,4.5065792,6.8176505859375,2.71630406,8.8893627859375,2.418479212L8.8893627859375,2.388316793L9.1613003859375,2.388316793C9.386734485937499,2.3705611895,9.6132163859375,2.3705611895,9.8386501859375,2.388316793L10.1105875859375,2.388316793L10.1105875859375,2.418479212C12.1823005859375,2.71630424,13.7749757859375,4.5065792,13.7749757859375,6.6706791C13.7749757859375,8.2051663,12.960350985937499,9.623279100000001,11.6374754859375,10.3906412C11.167135285937501,10.6637163,10.6488284859375,10.8441439,10.1105875859375,10.9221668Z" fill="#2855B3" fill-opacity="1" style="mix-blend-mode:passthrough"/></g><g><path d="M9.7374916921875,5.3653889325Q9.7374915921875,5.4551428625,9.7199813921875,5.5431722625Q9.7024712921875,5.6312014625,9.668123792187501,5.7141233625000005Q9.6337763921875,5.7970452625,9.5839118921875,5.8716728625000005Q9.5340473921875,5.9463006625,9.4705817921875,6.0097663625Q9.4071160921875,6.0732319624999995,9.3324882921875,6.1230964624999995Q9.2578606921875,6.1729609624999995,9.1749387921875,6.2073083625Q9.0920168921875,6.2416558625,9.0039876921875,6.2591659625Q8.9159582921875,6.2766761625,8.8262043621875,6.2766762625000005Q8.7364503721875,6.2766761625,8.6484209321875,6.2591659625Q8.5603915421875,6.2416558625,8.4774696821875,6.2073083625Q8.3945478521875,6.1729609624999995,8.3199201821875,6.1230964624999995Q8.2452924821875,6.0732319624999995,8.1818268621875,6.0097663625Q8.1183612021875,5.9463006625,8.0684965821875,5.8716728625000005Q8.0186319521875,5.7970452625,7.9842846021875,5.7141233625000005Q7.9499372501875,5.6312014625,7.9324271211875,5.5431722625Q7.9149169921875,5.4551428625,7.9149169921875,5.3653889325Q7.9149169921875,5.2756349425,7.9324271211875,5.1876055025Q7.9499372501875,5.0995761125,7.9842846021875,5.0166542525Q8.0186319521875,4.9337324225,8.0684965821875,4.8591047525Q8.1183612021875,4.7844770525,8.1818268621875,4.7210114325Q8.2452924821875,4.6575457725,8.3199201821875,4.6076811525Q8.3945478821875,4.5578165225,8.4774697421875,4.5234691725Q8.5603916021875,4.4891218205,8.6484209921875,4.4716116915Q8.7364503721875,4.4541015625,8.8262043621875,4.4541015625Q8.9159582921875,4.4541015625,9.0039876921875,4.4716116915Q9.0920168921875,4.4891218205,9.1749387921875,4.5234691725Q9.2578606921875,4.5578165225,9.3324882921875,4.6076811525Q9.4071160921875,4.6575457725,9.4705817921875,4.7210114325Q9.5340473921875,4.7844770525,9.5839118921875,4.8591047525Q9.6337763921875,4.9337324525,9.668123792187501,5.0166543125Q9.7024712921875,5.0995761725,9.7199813921875,5.1876055625Q9.7374915921875,5.2756349425,9.7374916921875,5.3653889325Z" fill="#FFFFFF" fill-opacity="1" style="mix-blend-mode:passthrough"/></g></g></svg>