<svg xmlns="http://www.w3.org/2000/svg" width="18" height="18" fill="none"><defs><clipPath id="a"><rect width="19" height="19" rx="0"/></clipPath></defs><g clip-path="url(#a)"><path fill="#2855B3" d="M10.008 11.591v4.528h.38c.203 0 .366.163.366.366v.487a.364.364 0 0 1-.367.365H8.68a.364.364 0 0 1-.366-.365v-.487c0-.203.162-.366.366-.366h.109v-4.552a5.212 5.212 0 0 1-4.512-5.166 5.22 5.22 0 0 1 5.224-5.213 5.22 5.22 0 0 1 5.225 5.214 5.21 5.21 0 0 1-2.612 4.516 5.2 5.2 0 0 1-2.105.674" style="mix-blend-mode:passthrough"/><path fill="#FFF" d="M6.745 8.776q.423-.741.456-2.232l.412.022q-.016.503-.08 1.002.207.448.553.715V6.21H6.773v-.407h1.14v-.796h-.946v-.406h.946v-.79h.435v.79h.935v.406h-.935v.796h1.046v.407h-.89v.862h.846v.401h-.846v1.052q.387.156.89.162 1.365.011 2.878-.023a5 5 0 0 0-.156.44q-1.753.005-2.839-.016-1.347-.026-1.84-.975-.155.73-.447 1.186a8 8 0 0 0-.245-.523m3.334-1.436q0 .3.3.3h.958q.312 0 .35-.272.034-.252.062-.746.173.078.423.161-.05.54-.1.79-.083.468-.68.468h-1.118q-.618 0-.618-.634v-1.81h1.737V4.54H9.55v-.4h2.265v2.048h-.423v-.19H10.08z" style="mix-blend-mode:passthrough"/><path fill="#2855B3" d="M10.11 10.922v4.476h.245c.203 0 .368.165.366.368v.49a.366.366 0 0 1-.366.369h-1.71a.366.366 0 0 1-.366-.368v-.491c0-.205.162-.368.366-.368h.244v-4.476a4.3 4.3 0 0 1-1.527-.531 4.3 4.3 0 0 1-2.137-3.72 4.29 4.29 0 0 1 3.664-4.253v-.03h.272q.339-.025.678 0h.272v.03a4.29 4.29 0 0 1 3.664 4.253 4.3 4.3 0 0 1-2.138 3.72c-.47.273-.988.453-1.526.531" style="mix-blend-mode:passthrough"/><path fill="#FFF" d="M9.737 5.365q0 .09-.017.178t-.052.171-.084.158-.113.138-.139.113-.157.084-.171.052-.178.018-.178-.018-.17-.052-.158-.084-.138-.113-.114-.138-.084-.158-.052-.17-.017-.179.017-.177.052-.171.084-.158.114-.138.138-.113.157-.085.171-.051.178-.018.178.018.17.051q.084.035.158.085.075.05.139.113.063.063.113.138t.084.158.052.17.017.178" style="mix-blend-mode:passthrough"/></g></svg>