<svg xmlns="http://www.w3.org/2000/svg" xmlns:xlink="http://www.w3.org/1999/xlink" fill="none" version="1.1" width="22" height="22" viewBox="1 1 22 22"><defs><clipPath id="master_svg0_98_028851"><rect x="0" y="0" width="24" height="24" rx="0"/></clipPath></defs><g clip-path="url(#master_svg0_98_028851)"><g><path d="M20.5,20.000002L3.5,20.000002L3.5,4L9.000000499999999,4L11,8L20.5,8L20.5,20.000002Z" fill="#153880" fill-opacity="1" style="mix-blend-mode:passthrough"/></g><g><path d="M2.50000022888185,3.99999994C2.5,3.4477151,2.9477153400000002,3,3.5000004000000002,3L9.000001000000001,3C9.3788466,3.000012588501,9.7251563,3.21410935,9.8945003,3.5530000900000003L11.618001,7L20.5,7C21.052286,7,21.5,7.4477153,21.5,8L21.5,20C21.5,20.552284,21.052286,21,20.5,20.999998L3.5000001000000003,20.999998C2.94771558,21,2.5,20.552284,2.5,20L2.50000022888185,3.99999994ZM4.500000200000001,4.9999999L4.500000200000001,19L19.500002,19L19.500002,9.000000499999999L11,9.000000499999999C10.6211529,8.9999876,10.2748437,8.7858906,10.1055002,8.447L8.382000399999999,5.000000200000001L4.500000200000001,4.9999999Z" fill="#153880" fill-opacity="1" style="mix-blend-mode:passthrough"/></g><g><path d="M9,4L19.500000999999997,4C20.052284999999998,4,20.5,4.44771534,20.5,4.99999994L20.5,8L18.499999000000003,8L18.499999000000003,6.000000200000001L9,6.000000200000001L9,4Z" fill="#28B3A5" fill-opacity="1" style="mix-blend-mode:passthrough"/></g><g><path d="M8.800048828125,12.7998046875L15.800049828125001,12.7998046875L15.800049828125001,14.7998045875L8.800048828125,14.7998045875L8.800048828125,12.7998046875Z" fill="#FFFFFF" fill-opacity="1" style="mix-blend-mode:passthrough"/></g><g><path d="M13.199951071875,10.400390625L13.199951071875,17.400390625L11.199951171875,17.400390625L11.199951171875,10.400390625L13.199951071875,10.400390625Z" fill="#FFFFFF" fill-opacity="1" style="mix-blend-mode:passthrough"/></g></g></svg>