<svg xmlns="http://www.w3.org/2000/svg" width="22" height="22" fill="none" viewBox="1 1 22 22"><defs><clipPath id="a"><rect width="24" height="24" rx="0"/></clipPath></defs><g clip-path="url(#a)"><path fill="#153880" d="M20.5 20h-17V4H9l2 4h9.5z" style="mix-blend-mode:passthrough"/><path fill="#153880" d="M2.5 4a1 1 0 0 1 1-1H9a1 1 0 0 1 .895.553L11.618 7H20.5a1 1 0 0 1 1 1v12a1 1 0 0 1-1 1h-17a1 1 0 0 1-1-1zm2 1v14h15V9H11a1 1 0 0 1-.894-.553L8.382 5z" style="mix-blend-mode:passthrough"/><path fill="#28B3A5" d="M9 4h10.5a1 1 0 0 1 1 1v3h-2V6H9z" style="mix-blend-mode:passthrough"/><path fill="#FFF" d="M8.8 12.8h7v2h-7z" style="mix-blend-mode:passthrough"/><path fill="#FFF" d="M13.2 10.4v7h-2v-7z" style="mix-blend-mode:passthrough"/></g></svg>