<svg xmlns="http://www.w3.org/2000/svg" xmlns:xlink="http://www.w3.org/1999/xlink" fill="none" version="1.1" width="16" height="16" viewBox="-1 -1 16 16"><defs><clipPath id="master_svg0_98_025498"><rect x="0" y="0" width="14" height="14" rx="0"/></clipPath></defs><g clip-path="url(#master_svg0_98_025498)"><g><path d="M8.6403971,10.37406825C8.0881357,10.03671075,7.499074,9.75906755,6.9114938,9.487038649999999C6.1727586,9.144577550000001,5.9689941,8.505589950000001,6.4096179,7.80280545C6.571888,7.54379085,6.7524352,7.29677005,6.9122353,7.03724525C7.4410324,6.17496825,7.6751752,5.23817775,7.5850253,4.21462325C7.4721522,2.93511655,6.4982862,1.85440037,5.338933,1.739310969C3.8952987,1.59666152,2.6914885,2.37906438,2.4037492,3.75222495C2.2859371,4.31491185,2.3259487,4.93297435,2.3958459,5.513014350000001C2.4946404,6.33701275,2.892041,7.04719785,3.3786037,7.70481395C3.9036963,8.41474345,3.7214205,9.10834165,2.9308176,9.473003349999999C2.8320234,9.51817225,2.7233493,9.54343505,2.6344347,9.60238365C1.9231145,10.07371425,1.1680778,10.49068835,0.51899827,11.04138185C-0.296056,11.73370325,-0.11871997,12.85499525,0.82402629,13.35643625C1.0658256,13.48403025,1.3291128,13.61162325,1.593635,13.64581925C2.8018909,13.80097225,5.2309999,14.01813625,5.233964,13.99874225C5.8425379,13.95969825,6.4612384,13.97858225,7.0567217,13.86655525C7.7670541,13.73283725,8.4793615,13.54399925,9.150424,13.27197025C9.7394857,13.03337125,9.9202805,12.45307525,9.7505999,11.81893625C9.5789442,11.17356875,9.1743813,10.70045185,8.6403971,10.37406825Z" fill="#2855B3" fill-opacity="1" style="mix-blend-mode:passthrough"/></g><g><path d="M13.111515965625,7.9640478625C12.441442465625,7.5856056625,11.754574765625,7.2388071625,11.072398165625,6.8835873625C10.569781765625,6.6217656625,10.464564765625,6.2928299625,10.747364265625,5.8061880625C10.851839065625,5.6275572625,10.977061065625,5.4598998625,11.087464765625,5.2838210625C11.733333565625,4.2531213625,11.974885465625,3.1338720625,11.742471665625,1.9237757625C11.551057765625,0.9285470825,10.826400765625,0.2012645125,9.897732265625,0.0404967595C8.860390165625,-0.1381340275,7.891711235625,0.2972147125,7.403172055625,1.1758231625C7.320925775625,1.3238315625,7.191257998625,1.4646946625,7.383166149625,1.6606780625C8.622048865625,2.9338052625,8.790986765625,4.4858517625,8.322948565625,6.1190476625C8.093498345625001,6.9210996625,7.652628185625,7.6583342625,7.288076577725,8.4667663625C7.425154045625,8.5338811625,7.617309275625,8.6308517625,7.811440045625,8.7219533625C8.891263265625,9.2307958625,9.888099665624999,9.8435001625,10.519148865625,10.9420785625C10.573980065625,11.0375195625,10.735508965625,11.1286215625,10.841713165625,11.1222405625C11.702460265625,11.0712035625,12.558266665625,10.9755085625,13.343682765625001,10.5608295625C13.807769765625,10.3155945625,14.013756265625,9.9146966625,14.001406665625,9.3831424625C13.986587065624999,8.7219533625,13.645499665625,8.2646579625,13.111515965625,7.9640478625Z" fill="#2855B3" fill-opacity="1" style="mix-blend-mode:passthrough"/></g></g></svg>