<svg xmlns="http://www.w3.org/2000/svg" width="16" height="16" fill="none" viewBox="-1 -1 16 16"><defs><clipPath id="a"><rect width="14" height="14" rx="0"/></clipPath></defs><g clip-path="url(#a)"><path fill="#2855B3" d="M8.64 10.374c-.552-.337-1.14-.615-1.729-.887-.738-.342-.942-.981-.501-1.684.162-.26.342-.506.502-.766.529-.862.763-1.799.673-2.822-.113-1.28-1.087-2.36-2.246-2.476-1.444-.142-2.648.64-2.935 2.013-.118.563-.078 1.181-.008 1.761.099.824.496 1.534.983 2.192.525.71.342 1.403-.448 1.768-.099.045-.208.07-.297.13-.71.47-1.466.888-2.115 1.438-.815.693-.638 1.814.305 2.315.242.128.505.256.77.29 1.208.155 3.637.372 3.64.353.609-.04 1.227-.02 1.823-.132a11 11 0 0 0 2.093-.595c.59-.239.77-.819.6-1.453-.171-.645-.576-1.119-1.11-1.445" style="mix-blend-mode:passthrough"/><path fill="#2855B3" d="M13.112 7.964c-.67-.378-1.357-.725-2.04-1.08-.502-.262-.607-.591-.325-1.078.105-.178.23-.346.34-.522.646-1.03.888-2.15.655-3.36C11.552.929 10.826.2 9.898.04 8.86-.138 7.892.297 7.403 1.176c-.082.148-.212.289-.02.485 1.239 1.273 1.408 2.825.94 4.458-.23.802-.67 1.54-1.035 2.348.137.067.33.164.523.255 1.08.509 2.077 1.122 2.708 2.22a.42.42 0 0 0 .323.18c.86-.05 1.716-.146 2.502-.561.464-.245.67-.646.657-1.178-.014-.661-.356-1.118-.89-1.419" style="mix-blend-mode:passthrough"/></g></svg>