<svg xmlns="http://www.w3.org/2000/svg" width="29" height="29" fill="none"><defs><clipPath id="a"><rect width="18" height="18" x="6" y="6" rx="0"/></clipPath></defs><circle cx="14.5" cy="14.5" r="13.5" fill="#2855B3"/><g clip-path="url(#a)"><path fill="#FFF" d="M13.29 18.713a1.13 1.13 0 0 1-.776.33l-2.888.045A.69.69 0 0 1 9 18.462l.045-2.888c.004-.292.124-.57.33-.776l5.389-5.389 3.915 3.915zM19.17 12.833l-3.919-3.915.735-.735a1.503 1.503 0 0 1 2.123 0l1.796 1.796a1.503 1.503 0 0 1 0 2.123zM19.875 22.256h-9.75A1.123 1.123 0 0 1 9 21.13c0-.623.502-1.125 1.125-1.125h9.75c.623 0 1.125.502 1.125 1.125 0 .622-.502 1.125-1.125 1.125" style="mix-blend-mode:passthrough"/></g></svg>