<svg xmlns="http://www.w3.org/2000/svg" xmlns:xlink="http://www.w3.org/1999/xlink" fill="none" version="1.1" width="29" height="29" viewBox="0 0 29 29"><defs><clipPath id="master_svg0_98_029317"><rect x="6" y="6" width="18" height="18" rx="0"/></clipPath></defs><g><g><ellipse cx="14.5" cy="14.5" rx="13.5" ry="13.5" fill="#2855B3" fill-opacity="1"/></g><g clip-path="url(#master_svg0_98_029317)"><g><path d="M13.29,18.7129296875C13.0837502,18.919180887499998,12.8025002,19.0391797875,12.5137498,19.042930587500003L9.62624991,19.0879306875C9.29250002,19.0579309875,9.029999888,18.7954301875,9,18.4616813875L9.045000002,15.574181087500001C9.048750117,15.2816810875,9.16875,15.004180887499999,9.37500012,14.7979311875L14.7637501,9.4091796875L18.67875,13.3241798875L13.29,18.7129296875Z" fill="#FFFFFF" fill-opacity="1" style="mix-blend-mode:passthrough"/></g><g><path d="M19.169970503125,12.832829024999999L15.251220703125,8.917829325L15.986220483125,8.182829205C16.572826603125,7.597911045,17.522113303125,7.597911045,18.108720103125002,8.182829205L19.904969703125,9.979079525C20.489890103125,10.565685225,20.489890103125,11.514974325,19.904969703125,12.101579625L19.169970503125,12.832829024999999Z" fill="#FFFFFF" fill-opacity="1" style="mix-blend-mode:passthrough"/></g><g><path d="M19.875000999999997,22.255859375L10.125,22.255859375C9.50249988,22.255859375,9,21.753359875,9,21.130859375C9,20.508358955,9.50249988,20.005859375,10.125,20.005859375L19.875000999999997,20.005859375C20.497501,20.005859375,21.000000999999997,20.508358955,21.000000999999997,21.130859375C21.000000999999997,21.753359875,20.497501,22.255859375,19.875000999999997,22.255859375Z" fill="#FFFFFF" fill-opacity="1" style="mix-blend-mode:passthrough"/></g></g></g></svg>