<svg xmlns="http://www.w3.org/2000/svg" xmlns:xlink="http://www.w3.org/1999/xlink" fill="none" version="1.1" width="22" height="22" viewBox="1 1 22 22"><defs><clipPath id="master_svg0_98_029077"><rect x="0" y="0" width="24" height="24" rx="0"/></clipPath></defs><g clip-path="url(#master_svg0_98_029077)"><g><path d="M11.999952821874999,14.3968749C14.709327721874999,14.3968749,16.907765421875,11.352344,16.907765421875,8.9265625C16.907765421875,8.8117187,16.898390721875,8.6992187,16.889016121875002,8.5867188L16.120265021875,7.9046875C16.049952521875,7.8460938,14.728077921875,6.7421875,12.145265621875,6.7421875L12.014015721875001,6.7445312501C9.323390521875,6.784375001,8.048390391875,7.8601563,7.996828021875,7.9070313L7.108546753875,8.6710938C7.101515503175,8.7554688,7.0944842529296,8.839844,7.0944842529296,8.9265625C7.092140502775,11.352344,9.290578121875,14.3968749,11.999952821874999,14.3968749Z" fill="#153880" fill-opacity="1" style="mix-blend-mode:passthrough"/></g><g><path d="M21.54573596875,18.3675134375C20.44182796875,13.4972014375,16.51370196875,13.1807954375,16.51370196875,13.1807954375L12.18479636875,18.0511074375C11.99964046875,18.3323574375,11.54260916875,18.3229804375,11.37385846875,18.0347024375L7.48792166875,13.1807954375C7.48792166875,13.1807954375,3.55979646875,13.4972014375,2.45589020075,18.3675134375C2.25901518875,19.2393894375,2.70198395875,20.5706384375,3.57620276875,20.9995484375C4.88167146875,21.6393894375,7.37073376875,22.3331414375,12.00198456875,22.2979854375C16.633233968749998,22.3331414375,19.12229696875,21.6393894375,20.42776696875,20.9995484375C21.29964296875,20.5706384375,21.74260896875,19.2393894375,21.54573596875,18.3675134375ZM16.90745296875,7.3331389375L16.90745296875,3.1167320375000003C16.90745296875,3.1167320375000003,11.99964046875,-0.06608066250000011,7.09182786875,3.1167320375000003L7.09182786875,7.3331389375C7.09182786875,7.3331389375,8.652765268749999,6.0323577375,11.93870256875,5.9878263375C15.22463996875,5.9432950375,16.90745296875,7.3331389375,16.90745296875,7.3331389375ZM11.51682756875,4.9518888375L11.51682756875,4.2675137375L10.84417246875,4.2675137375C10.59104636875,4.2675137375,10.38479616875,4.0659511375,10.38479616875,3.8151698375C10.38479616875,3.5643882375000002,10.59104636875,3.3628257374999997,10.84417246875,3.3628257374999997L11.51682756875,3.3628257374999997L11.51682756875,2.6784507675C11.51682756875,2.4276694675,11.72307876875,2.2261069975,11.97620296875,2.2261069975C12.22932716875,2.2261069975,12.43557796875,2.4276694675,12.43557796875,2.6784507675L12.43557796875,3.3628257374999997L13.15510796875,3.3628257374999997C13.40823496875,3.3628257374999997,13.61448496875,3.5643882375000002,13.61448496875,3.8151698375C13.61448496875,4.0659511375,13.40823496875,4.2675137375,13.15510796875,4.2675137375L12.43557796875,4.2675137375L12.43557796875,4.9518888375C12.43557796875,5.2026698375,12.22932716875,5.4042320375,11.97620296875,5.4042320375C11.72307876875,5.4042320375,11.51682756875,5.200326237500001,11.51682756875,4.9518888375Z" fill="#153880" fill-opacity="1" style="mix-blend-mode:passthrough"/></g><g><path d="M17.910427071875,16.7998046875C17.653448571875,16.7998046875,17.408846571875,17.0022678775,17.199951171875,17.1198047075C16.991233871875,17.0021164275,16.746275971875,16.7998046875,16.489475271875,16.7998046875C15.778376041875,16.7998046875,15.199951171875,17.2916114075,15.199951171875,17.8967139875C15.199951171875,18.3704962875,15.518904061875,18.8598794875,16.148083511875,19.3501715875C16.592587371875,19.6968748875,17.032817171875,19.9166504875,17.051338071875,19.9258899875L17.200040371875,19.9998046875L17.348564371875,19.9258899875C17.367085471875,19.9166504875,17.807315071875,19.6968748875,18.251818871875,19.3501715875C18.880998571875,18.8597280875,19.199951171875,18.3704962875,19.199951171875,17.8967139875C19.199951171875,17.2917628875,18.621348171875,16.7998046875,17.910427071875,16.7998046875Z" fill="#ED5564" fill-opacity="1" style="mix-blend-mode:passthrough"/></g></g></svg>