<svg xmlns="http://www.w3.org/2000/svg" width="22" height="22" fill="none" viewBox="1 1 22 22"><defs><clipPath id="a"><rect width="24" height="24" rx="0"/></clipPath></defs><g clip-path="url(#a)"><path fill="#153880" d="M12 14.397c2.71 0 4.908-3.045 4.908-5.47 0-.115-.01-.228-.019-.34l-.769-.682c-.07-.059-1.392-1.163-3.975-1.163l-.131.003c-2.69.04-3.966 1.115-4.017 1.162l-.888.764a3 3 0 0 0-.015.256c-.002 2.425 2.197 5.47 4.906 5.47" style="mix-blend-mode:passthrough"/><path fill="#153880" d="M21.546 18.368c-1.104-4.87-5.032-5.187-5.032-5.187l-4.33 4.87c-.184.281-.641.272-.81-.016L7.488 13.18s-3.928.316-5.032 5.187c-.197.871.246 2.203 1.12 2.632 1.306.64 3.795 1.333 8.426 1.298 4.631.035 7.12-.659 8.426-1.298.872-.43 1.315-1.76 1.118-2.632M16.907 7.333V3.117S12-.066 7.092 3.117v4.216s1.56-1.3 4.847-1.345c3.286-.045 4.968 1.345 4.968 1.345m-5.39-2.381v-.684h-.673a.456.456 0 0 1-.46-.453c0-.25.207-.452.46-.452h.673v-.685c0-.25.206-.452.46-.452.252 0 .459.202.459.452v.685h.72c.252 0 .458.201.458.452s-.206.453-.459.453h-.72v.684c0 .25-.206.452-.459.452a.457.457 0 0 1-.46-.452" style="mix-blend-mode:passthrough"/><path fill="#ED5564" d="M17.91 16.8c-.257 0-.501.202-.71.32-.209-.118-.454-.32-.71-.32-.712 0-1.29.492-1.29 1.097 0 .473.319.963.948 1.453.445.347.885.567.903.576L17.2 20l.149-.074c.018-.01.458-.23.903-.576.629-.49.948-.98.948-1.453 0-.605-.579-1.097-1.29-1.097" style="mix-blend-mode:passthrough"/></g></svg>