<svg xmlns="http://www.w3.org/2000/svg" xmlns:xlink="http://www.w3.org/1999/xlink" fill="none" version="1.1" width="24" height="24" viewBox="0 0 24 24"><defs><clipPath id="master_svg0_114_046448"><rect x="0" y="0" width="24" height="24" rx="0"/></clipPath></defs><g><g clip-path="url(#master_svg0_114_046448)"><g><path d="M3.234375,5.283203325000001C3.234375,3.658984425,4.5632813,2.330078125,6.187500200000001,2.330078125L17.859375,2.330078125C19.483597,2.330078125,20.812502,3.658984425,20.812502,5.283203325000001" fill="#80B328" fill-opacity="1" style="mix-blend-mode:passthrough"/></g><g><path d="M18.796879,4.49609375L5.250000200000001,4.49609375C3.6257813,4.49609375,2.296875,5.82500005,2.296875,7.449218950000001L2.296875,18.79765675C2.296875,20.42187475,3.6257813,21.75078175,5.250000200000001,21.75078175L18.796879,21.75078175C20.421097,21.75078175,21.750002,20.42187475,21.750002,18.79765675L21.750002,7.449218950000001C21.750002,5.82500005,20.421097,4.49609375,18.796879,4.49609375ZM15.911719,11.41250035C15.541408,11.79453225,10.9687519,16.296875749999998,10.7320328,16.52890675C10.6945324,16.564062749999998,10.6500015,16.59218875,10.6007824,16.60625075C10.225781900000001,16.71874975,7.945313,17.45703175,7.9218755,17.46406475C7.8890629,17.47343875,7.8585939,17.47812575,7.8257823,17.47812575C7.743751,17.47812575,7.664063,17.44531275,7.603126,17.38671875C7.5187502,17.30468775,7.4882817,17.18046975,7.523438,17.06796975C7.5304689,17.04687475,8.2054691,14.83437575,8.3390632,14.33749965C8.353126,14.28359415,8.381250399999999,14.23437595,8.421094400000001,14.19453235C8.421094400000001,14.19453235,13.394532,9.22812555,13.570313,9.05468795C13.694533,8.93046955,14.14922,8.527344750000001,14.772658,8.527344750000001C15.171096,8.527344750000001,15.546096,8.691407250000001,15.883595,9.01718805C16.26797,9.385156649999999,16.467188999999998,9.78125045,16.474221,10.191406749999999C16.483596,10.60859445,16.293751,11.018750650000001,15.911719,11.41250035Z" fill="#153880" fill-opacity="1" style="mix-blend-mode:passthrough"/></g></g></g></svg>