<svg xmlns="http://www.w3.org/2000/svg" xmlns:xlink="http://www.w3.org/1999/xlink" fill="none" version="1.1" width="24" height="24" viewBox="0 0 24 24"><defs><clipPath id="master_svg0_98_048136"><rect x="0" y="0" width="23" height="23" rx="0"/></clipPath></defs><g clip-path="url(#master_svg0_98_048136)"><g><path d="M11.50120325,15.333333C22.13582825,15.333333,22.03041225,21.917082,22.03041225,21.917082C22.11091225,22.515083,21.67966225,23,21.06633025,23C21.06633025,23,1.93608075,23,1.93608075,23C1.32274753,23,0.867539234,22.508375,0.971997552,21.917082C0.971997552,21.917082,0.864663675,15.333333,11.50120325,15.333333ZM11.49832925,0C11.49832925,0,18.20666325,0,18.20666325,0C18.20666325,0,18.20666325,6.7083335,18.20666325,6.7083335C18.20666325,8.0351162,17.81322625,9.3321047,17.07610525,10.435284C16.33898425,11.538464,15.29128525,12.398287,14.06549925,12.906026C12.83971125,13.413762,11.49088825,13.546611,10.18959905,13.287767C8.888309450000001,13.028926,7.69299935,12.390019,6.75482175,11.451841C5.81664465,10.513664,5.17773815,9.3183537,4.91889545,8.0170641C4.66005305,6.7157745,4.79290035,5.3669529,5.30063815,4.1411653C5.80837635,2.9153779,6.66820005,1.8676791,7.77137945,1.1305579C8.87455985,0.39343682,10.17154695,9.5756736e-16,11.49832925,0Z" fill="#2855B3" fill-opacity="1"/></g></g></svg>