<svg xmlns="http://www.w3.org/2000/svg" width="24" height="24" fill="none" viewBox="2 2 24 24"><defs><clipPath id="a"><rect width="29" height="29" rx="0"/></clipPath></defs><g clip-path="url(#a)"><path fill="#2855B3" d="M18.053 17.98s-.7-.218-1.015-.533c-.217-.217-.193-.7 0-1.305.193-.628 2.44-3.141 2.44-5.437 0-3.528-2.32-6.404-5.195-6.404s-5.196 2.876-5.196 6.404c0 2.2 2.006 4.81 2.248 5.268.241.484.193 1.209 0 1.426-.29.338-1.378.653-1.378.653l-3.963 1.764c-.918.338-1.643 1.208-1.643 2.199v.46c0 .966.773 1.74 1.74 1.74h9.425a.7.7 0 0 1-.29-.412c-.049-.435-.025-1.788-.025-2.634 0-.242.121-.362.218-.483z" style="mix-blend-mode:passthrough"/><path fill="#2855B3" d="M16.07 20.88a.84.84 0 0 0-.24.58v2.127q0 .653.652.653l2.15-.025a.84.84 0 0 0 .58-.241l3.384-3.432-3.118-3.093zm7.734-3.31-1.33-1.33c-.482-.483-1.28-.483-1.787 0l-.725.725 3.117 3.118.725-.725c.483-.508.483-1.305 0-1.788" style="mix-blend-mode:passthrough"/></g></svg>