<svg xmlns="http://www.w3.org/2000/svg" xmlns:xlink="http://www.w3.org/1999/xlink" fill="none" version="1.1" width="24" height="24" viewBox="2 2 24 24"><defs><clipPath id="master_svg0_98_048145"><rect x="0" y="0" width="29" height="29" rx="0"/></clipPath></defs><g clip-path="url(#master_svg0_98_048145)"><g><path d="M18.0530889375,17.979113249999997C18.0530889375,17.979113249999997,17.3522549375,17.76161425,17.0380889375,17.44744825C16.8205889375,17.22994925,16.844753937500002,16.74661425,17.0380889375,16.14244825C17.231421937500002,15.51411425,19.478919937500002,13.00078205,19.478919937500002,10.70494895C19.478919937500002,7.176614750000001,17.158919937500002,4.30078125,14.2830877375,4.30078125C11.4072547375,4.30078125,9.0872540375,7.176614750000001,9.0872540375,10.70494895C9.0872540375,12.90411475,11.0930872375,15.51411425,11.3347549375,15.97328225C11.576420737500001,16.45661625,11.5280885375,17.181616249999998,11.3347549375,17.39911625C11.044755437500001,17.737450250000002,9.9572544375,18.051616250000002,9.9572544375,18.051616250000002L5.9939193374999995,19.81578125C5.0755860775,20.15411425,4.3505859375,21.02411425,4.3505859375,22.01494825L4.3505859375,22.47411325C4.3505859375,23.44078225,5.1239191875,24.21411525,6.0905864375,24.21411525L15.5155899375,24.21411525C15.4189219375,24.14161525,15.2739219375,24.02078225,15.2255889375,23.80328325C15.1772539375,23.36828225,15.2014219375,22.01495025,15.2014219375,21.16911525C15.2014219375,20.92744825,15.3222559375,20.80661425,15.4189219375,20.68578125L18.0530889375,17.979113249999997Z" fill="#2855B3" fill-opacity="1" style="mix-blend-mode:passthrough"/></g><g><path d="M16.0707678925,20.8804297875C15.9257678685,21.0254296875,15.8291015625,21.2429294875,15.8291015625,21.4604296875L15.8291015625,23.5870966875C15.8291015625,24.0220975875,16.0466015625,24.2395972875,16.4816016525,24.2395972875L18.6324345625,24.2154302875C18.8499343625,24.2154302875,19.0674342625,24.1187619875,19.2124342625,23.9737624875L22.595767062500002,20.5420951875L19.4782667625,17.4487610875L16.0707678925,20.8804297875ZM23.8041024625,17.5695960875L22.4749340625,16.2404296675C21.9916024625,15.7570959775,21.1941017625,15.7570959775,20.6866021625,16.2404296675L19.9616017625,16.9654296875L23.0791005625,20.0829295875L23.8041024625,19.3579296875C24.2874336625,18.8504294875,24.2874336625,18.0529296875,23.8041024625,17.5695960875Z" fill="#2855B3" fill-opacity="1" style="mix-blend-mode:passthrough"/></g></g></svg>