<svg xmlns="http://www.w3.org/2000/svg" xmlns:xlink="http://www.w3.org/1999/xlink" fill="none" version="1.1" width="18" height="18" viewBox="0 0 18 18"><defs><clipPath id="master_svg0_98_025507"><rect x="0" y="0" width="18" height="18" rx="0"/></clipPath></defs><g clip-path="url(#master_svg0_98_025507)"><g><path d="M13.464924796875,17.1230639375L4.973696946875,17.1230639375C4.508615076875,17.1230659375,4.13159145355226,16.7460419375,4.131591796875,16.2809589375L4.131591796875,1.4739411475000002C4.13159145355226,1.0088592775,4.508614716875,0.6318359375,4.973696946875,0.6318359375L13.464924796875,0.6318359375C13.930006996875,0.6318359375,14.307029796875,1.0088592775,14.307029796875,1.4739411475000002L14.307029796875,16.2809579375C14.307028796875,16.7460399375,13.930006996875,17.1230619375,13.464924796875,17.1230639375ZM9.219310796875,16.1055199375C9.820041696875,16.1055199375,10.307029696875,15.6185319375,10.307029696875,15.0177999375C10.307029696875,14.4170699375,9.820041696875,13.9300809375,9.219310796875,13.9300809375C8.618579396874999,13.9300809375,8.131591296875,14.4170699375,8.131591296875,15.0177999375C8.131591296875,15.6185319375,8.618579396874999,16.1055199375,9.219310796875,16.1055199375ZM12.780713996875,2.1932392375000003L5.657907496875,2.1932392375000003L5.657907496875,12.7195539375L12.780713996875,12.7195539375L12.780713996875,2.1932392375000003Z" fill="#2855B3" fill-opacity="1" style="mix-blend-mode:passthrough"/></g></g></svg>