<svg xmlns="http://www.w3.org/2000/svg" width="22" height="22" fill="none" viewBox="1 1 22 22"><defs><clipPath id="a"><rect width="24" height="24" rx="0"/></clipPath></defs><g clip-path="url(#a)"><path fill="#153880" d="M15.518 15.839s-.63-.2-.912-.491c-.196-.201-.174-.648 0-1.206.174-.58 2.194-2.903 2.194-5.024 0-3.26-2.086-5.918-4.671-5.918s-4.67 2.657-4.67 5.918c0 2.032 1.802 4.443 2.02 4.868.217.446.173 1.116 0 1.317-.261.313-1.239.603-1.239.603l-3.563 1.63c-.825.313-1.477 1.117-1.477 2.032v.424c0 .894.695 1.608 1.564 1.608h8.473a.64.64 0 0 1-.26-.38c-.044-.401-.022-1.652-.022-2.433 0-.224.108-.335.195-.447z" style="mix-blend-mode:passthrough"/><path fill="#F4D925" d="M13.809 18.708a.73.73 0 0 0-.209.5v1.83q0 .562.564.562l1.857-.02a.73.73 0 0 0 .5-.209l2.923-2.954-2.693-2.664zm6.678-2.851-1.148-1.144c-.417-.417-1.106-.417-1.544 0l-.626.624 2.692 2.684.626-.624c.417-.437.417-1.124 0-1.54" style="mix-blend-mode:passthrough"/></g></svg>