<svg xmlns="http://www.w3.org/2000/svg" xmlns:xlink="http://www.w3.org/1999/xlink" fill="none" version="1.1" width="22" height="22" viewBox="1 1 22 22"><defs><clipPath id="master_svg0_98_029072"><rect x="0" y="0" width="24" height="24" rx="0"/></clipPath></defs><g clip-path="url(#master_svg0_98_029072)"><g><path d="M15.518164171875,15.8390303125C15.518164171875,15.8390303125,14.888132171875,15.6380593125,14.605704171875,15.3477693125C14.410176171875,15.1467993125,14.431901171875,14.7001963125,14.605704171875,14.1419453125C14.779506171875,13.5613613125,16.799951171875,11.2390318125,16.799951171875,9.1176724125C16.799951171875,5.8574772125,14.714328171875,3.2001953125,12.129026371875,3.2001953125C9.543723071875,3.2001953125,7.458098871875,5.8574772125,7.458098871875,9.1176724125C7.458098871875,11.1497111125,9.261294371875,13.5613613125,9.478547571875,13.9856333125C9.695799371875001,14.4322363125,9.652349971875001,15.1021403125,9.478547571875,15.3031113125C9.217844471875,15.6157323125,8.240208171875,15.9060233125,8.240208171875,15.9060233125L4.677267571875,17.5361173125C3.851708471875,17.8487413125,3.199951171875,18.652623312499998,3.199951171875,19.5681593125L3.199951171875,19.9924293125C3.199951171875,20.8856333125,3.895158771875,21.6001953125,4.764168871875,21.6001953125L13.237014171875,21.6001953125C13.150114071875,21.5332073125,13.019762071875,21.4215563125,12.976310771875,21.2205863125C12.932859371875,20.8186433125,12.954586071875,19.5681593125,12.954586071875,18.7866053125C12.954586071875,18.5633043125,13.063212371875,18.451652312500002,13.150114071875,18.340003312500002L15.518164171875,15.8390303125Z" fill="#153880" fill-opacity="1" style="mix-blend-mode:passthrough"/></g><g><path d="M13.80879297625,18.707904325C13.68357559325,18.832760325,13.60009765625,19.020043825000002,13.60009765625,19.207326925L13.60009765625,21.038540825C13.60009765625,21.413107425,13.78792373625,21.600390925,14.16357588625,21.600390925L16.02096655625,21.579580825C16.20879245625,21.579580825,16.39661855625,21.496343125,16.52183605625,21.371487625L19.44357445625,18.416574025L16.75140075625,15.752990024999999L13.80879297625,18.707904325ZM20.48705385625,15.857037524999999L19.33922715625,14.712529305C18.92183635625,14.296344075,18.23314095625,14.296344075,17.79488035625,14.712529305L17.16879315625,15.336806715L19.86096665625,18.021199425L20.48705385625,17.396922125C20.90444425625,16.959927825,20.90444425625,16.273222825,20.48705385625,15.857037524999999Z" fill="#F4D925" fill-opacity="1" style="mix-blend-mode:passthrough"/></g></g></svg>