<svg xmlns="http://www.w3.org/2000/svg" xmlns:xlink="http://www.w3.org/1999/xlink" fill="none" version="1.1" width="19" height="19" viewBox="0 0 19 19"><defs><clipPath id="master_svg0_98_026168"><rect x="20" y="20" width="18" height="18" rx="0"/></clipPath></defs><g transform="matrix(-1,0,0,-1,38,38)"><g clip-path="url(#master_svg0_98_026168)"></g><g><g><g><g><g><path d="M32.13665152176514,35.71470397615814C31.880939521765136,35.97458197615814,31.441631821765135,35.97895497615814,31.178864021765136,35.71190597615814C29.613729521765137,34.12127197615814,24.760598871765136,29.189076776158142,24.760598871765136,29.189076776158142C24.413304507765137,28.83612427615814,24.417656793765136,28.259452176158142,24.760598871765136,27.91092337615814C24.760598871765136,27.91092337615814,29.613729521765137,22.978727676158144,31.178864021765136,21.38809472615814C31.441631821765135,21.121046096158143,31.880939521765136,21.125418186158143,32.143707321765135,21.392466786158142C32.393481721765134,21.64631140615814,32.398343521765135,22.061248676158144,32.14151282176513,22.32226347615814C30.647184421765136,23.840936276158143,26.013608721765138,28.550000076158142,26.013608721765138,28.550000076158142C26.013608721765138,28.550000076158142,30.647184421765136,33.259063976158146,32.14151282176513,34.77773697615814C32.398343521765135,35.03875197615814,32.393481721765134,35.45368697615814,32.13665102176514,35.71470197615814" fill-rule="evenodd" fill="#AAAAAA" fill-opacity="0.8999999761581421"/></g></g></g></g></g></g></svg>