<svg xmlns="http://www.w3.org/2000/svg" xmlns:xlink="http://www.w3.org/1999/xlink" fill="none" version="1.1" width="17" height="17" viewBox="1 0 17 17"><defs><clipPath id="master_svg0_98_040574"><rect x="18" y="18" width="18" height="18" rx="0"/></clipPath></defs><g transform="matrix(-1,0,0,-1,36,36)"><g clip-path="url(#master_svg0_98_040574)"></g><g><g><g><g><g><path d="M30.13665152176514,33.71470397615814C29.880939521765136,33.97458197615814,29.441631821765135,33.97895497615814,29.178864021765136,33.71190597615814C27.613729521765137,32.12127197615814,22.760598871765136,27.189076776158142,22.760598871765136,27.189076776158142C22.413304507765137,26.83612427615814,22.417656793765136,26.259452176158142,22.760598871765136,25.91092337615814C22.760598871765136,25.91092337615814,27.613729521765137,20.978727676158144,29.178864021765136,19.38809472615814C29.441631821765135,19.121046096158143,29.880939521765136,19.125418186158143,30.143707321765135,19.392466786158142C30.393481721765138,19.64631140615814,30.398343521765135,20.061248676158144,30.141512821765136,20.32226347615814C28.647184421765136,21.840936276158143,24.013608721765138,26.550000076158142,24.013608721765138,26.550000076158142C24.013608721765138,26.550000076158142,28.647184421765136,31.259063976158142,30.141512821765136,32.77773697615814C30.398343521765135,33.03875197615814,30.393481721765138,33.45368697615814,30.136651021765136,33.71470197615814" fill-rule="evenodd" fill="#2855B3" fill-opacity="1"/></g></g></g></g></g></g></svg>