<svg xmlns="http://www.w3.org/2000/svg" width="65" height="16" fill="none" viewBox="0 3 65 16"><path fill="#FFF" d="M2.04 3.744h5.904V2.88h2.112v.864h5.904v3.424h-1.936v1.12H9.912q.352 1.008.608 2.16.896.432 1.632.928l1.584-2.704h2.256l-1.92 3.264h-1.2q2.384 2.032 3.408 5.664h-2.368q-.784-3.136-3.024-4.56.144 1.68.144 4.56h-2.08q0-.944-.016-1.392-1.44.432-3.184.776t-3.952.664V15.6q3.776-.496 7.04-1.456-.016-.32-.08-.96-2.464.752-6.576 1.392v-2.144q3.12-.448 6.224-1.36-.032-.176-.176-.784-2.208.64-5.696 1.184V9.488q2.992-.432 5.088-1.056-.032-.096-.064-.144H3.976v-1.12H2.04zm11.84 2.784V5.68H4.12v.848zM17.528 17.6q.608-1.616.84-3.176t.232-3.592V3.728h5.664V2.88h2.176v.848h5.76v2H20.584v5.104q0 1.904-.2 3.536t-.648 3.232zm3.216 0q.608-1.216.92-2.272t.424-2.208h-.896v-1.968h.4l.592-2.432h-.992V6.768h3.344l-1.072 4.384h.608q0 2.272-.368 3.968.88.496 2.352.496h6.192v1.856h-6.192q-.96 0-1.64-.128t-1.224-.416l-.24.672zm3.68-7.824h2.928V8.544q-1.664.032-2.512.032v-1.84q3.904 0 6.992-.256v1.824q-1.664.128-2.496.16v1.312h2.912v1.84h-2.912v1.344h2.736v1.84H24.6v-1.84h2.752v-1.344h-2.928zM33.8 7.168h6.144v-.832h.752v-1.12l.032-.016h-1.52l.576 1.488h-2.16l-.576-1.472q-.608.72-1.44 1.232t-1.808.704V5.216q1.52-.672 2.208-1.936h4.944v1.808q1.328-.656 1.952-1.808H48.2V5.2h-2.08l.576 1.488h-2.16L43.96 5.2q-.8.944-1.904 1.488v.48H48.2v3.44h-1.968v2.704H37.4v.56h9.872V17.6H35.32v-6.992H33.8zm12.32 2.416v-.688H35.88v.688zm-.928 6.528v-.752H37.4v.752zm-1.04-4.304v-.704H37.4v.704zm16.56-.384v1.072h3.152v1.872h-3.152v1.152h3.6v1.904H55V16l-5.28.88v-2.048l1.664-.272v-3.84h-1.36V8.704h1.36V5.616H49.8V3.568h4.976v2.048h-1.344v3.088h1.216v2.016h-1.216v3.488L55 13.952v1.568h3.6v-1.152h-3.168v-1.872H58.6v-1.072h-2.912V3.456h7.92v7.968zm-1.968-1.888V8.32h-1.072v1.216zm0-2.992V5.328h-1.072v1.216zm2.88 2.992V8.32h-1.056v1.216zm0-2.992V5.328h-1.056v1.216z"/></svg>