<svg xmlns="http://www.w3.org/2000/svg" xmlns:xlink="http://www.w3.org/1999/xlink" fill="none" version="1.1" width="65" height="16" viewBox="0 3 65 16"><g><g><path d="M2.0400001000000003,3.7439995L7.9440002,3.7439995L7.9440002,2.8799992L10.0560007,2.8799992L10.0560007,3.7439995L15.960001,3.7439995L15.960001,7.1679993L14.024,7.1679993L14.024,8.2880001L9.9120007,8.2880001Q10.2640009,9.2959995,10.5200005,10.448Q11.416,10.879999,12.152,11.375999L13.736001,8.671999L15.992001,8.671999L14.072001,11.936L12.872001,11.936Q15.256001,13.968,16.280001,17.6L13.912001,17.6Q13.128,14.464,10.8880005,13.04Q11.032001,14.72,11.032001,17.6L8.9520001,17.6Q8.9520001,16.656,8.9360003,16.208Q7.4960003,16.639999,5.7520003,16.983999Q4.0080001,17.327999,1.80000001,17.648001L1.80000001,15.6Q5.5760002,15.104,8.8400002,14.144Q8.8240004,13.823999,8.7600002,13.184Q6.2960005,13.936,2.184,14.576L2.184,12.432Q5.3040004,11.983999,8.4080005,11.072Q8.376000399999999,10.896,8.2320004,10.288Q6.0240002,10.927999,2.536,11.472L2.536,9.4879999Q5.5280004,9.0559998,7.6240005,8.4319992Q7.5920005,8.3359995,7.5600004,8.2880001L3.9760001,8.2880001L3.9760001,7.1679993L2.0400001000000003,7.1679993L2.0400001000000003,3.7439995ZM13.880001,6.5279999L13.880001,5.6799994L4.1200001,5.6799994L4.1200001,6.5279999L13.880001,6.5279999ZM17.528,17.6Q18.136,15.984,18.368,14.424Q18.6,12.864,18.6,10.832L18.6,3.7279997L24.264,3.7279997L24.264,2.8799992L26.440001,2.8799992L26.440001,3.7279997L32.200001,3.7279997L32.200001,5.7279997L20.584,5.7279997L20.584,10.832Q20.584,12.736,20.384001,14.368Q20.184,16,19.736,17.6L17.528,17.6ZM20.743999,17.6Q21.352001,16.384001,21.664,15.328Q21.976,14.272,22.088001,13.12L21.192001,13.12L21.192001,11.152L21.591999,11.152L22.184,8.7199993L21.192001,8.7199993L21.192001,6.7679996L24.535999,6.7679996L23.464001,11.152L24.072001,11.152Q24.072001,13.424,23.704,15.12Q24.584,15.616,26.056,15.616L32.248001,15.616L32.248001,17.472L26.056,17.472Q25.096001,17.472,24.416,17.344Q23.736,17.216,23.192001,16.927999L22.952,17.6L20.743999,17.6ZM24.424,9.7759991L27.352001,9.7759991L27.352001,8.5439997Q25.688,8.5760002,24.84,8.5760002L24.84,6.7359991Q28.743999,6.7359991,31.832001,6.4799995L31.832001,8.3039989Q30.167999,8.4319992,29.336,8.4639997L29.336,9.7759991L32.248001,9.7759991L32.248001,11.615999L29.336,11.615999L29.336,12.96L32.072001,12.96L32.072001,14.8L24.6,14.8L24.6,12.96L27.352001,12.96L27.352001,11.615999L24.424,11.615999L24.424,9.7759991ZM33.799999,7.1679993L39.944,7.1679993L39.944,6.3359995L40.695999,6.3359995L40.695999,5.2159996L40.728001,5.1999998L39.208,5.1999998L39.784,6.6879997L37.624001,6.6879997L37.048,5.2159996Q36.439999,5.9359999,35.608002,6.448Q34.776001,6.96,33.799999,7.1519995L33.799999,5.2159996Q35.32,4.5439997,36.007999,3.2799997L40.952,3.2799997L40.952,5.0879993Q42.279999,4.4319992,42.903999,3.2799997L48.200001,3.2799997L48.200001,5.1999998L46.120003,5.1999998L46.695999,6.6879997L44.535999,6.6879997L43.959999,5.1999998Q43.16,6.1439991,42.056,6.6879997L42.056,7.1679993L48.200001,7.1679993L48.200001,10.608L46.232002,10.608L46.232002,13.312L37.400002,13.312L37.400002,13.872L47.271999,13.872L47.271999,17.6L35.32,17.6L35.32,10.608L33.799999,10.608L33.799999,7.1679993ZM46.120003,9.5839996L46.120003,8.8959999L35.880001,8.8959999L35.880001,9.5839996L46.120003,9.5839996ZM45.192001,16.112L45.192001,15.36L37.400002,15.36L37.400002,16.112L45.192001,16.112ZM44.152,11.808L44.152,11.104L37.400002,11.104L37.400002,11.808L44.152,11.808ZM60.712002,11.424L60.712002,12.496L63.863998,12.496L63.863998,14.368L60.712002,14.368L60.712002,15.52L64.312,15.52L64.312,17.424L55,17.424L55,16L49.720001,16.879999L49.720001,14.832L51.383999,14.559999L51.383999,10.719999L50.023998,10.719999L50.023998,8.7039995L51.383999,8.7039995L51.383999,5.6159992L49.799999,5.6159992L49.799999,3.5679998L54.776001,3.5679998L54.776001,5.6159992L53.431999,5.6159992L53.431999,8.7039995L54.647999,8.7039995L54.647999,10.719999L53.431999,10.719999L53.431999,14.208L55,13.952L55,15.52L58.599998,15.52L58.599998,14.368L55.431999,14.368L55.431999,12.496L58.599998,12.496L58.599998,11.424L55.688,11.424L55.688,3.4559994L63.608002,3.4559994L63.608002,11.424L60.712002,11.424ZM58.743999,9.5359993L58.743999,8.3199997L57.672001,8.3199997L57.672001,9.5359993L58.743999,9.5359993ZM58.743999,6.5439997L58.743999,5.3279991L57.672001,5.3279991L57.672001,6.5439997L58.743999,6.5439997ZM61.624001,9.5359993L61.624001,8.3199997L60.568001,8.3199997L60.568001,9.5359993L61.624001,9.5359993ZM61.624001,6.5439997L61.624001,5.3279991L60.568001,5.3279991L60.568001,6.5439997L61.624001,6.5439997Z" fill="#FFFFFF" fill-opacity="1"/></g></g></svg>