<svg xmlns="http://www.w3.org/2000/svg" width="22" height="22" fill="none"><defs><clipPath id="a"><rect width="22" height="22" rx="0"/></clipPath></defs><g clip-path="url(#a)"><g style="opacity:.009999999776482582"><path fill="#202425" d="M0 0h22v22H0z" style="mix-blend-mode:passthrough"/></g><path fill="#FA4" d="M1.21 2.912A1.467 1.467 0 0 1 2.493.733h17.015a1.466 1.466 0 0 1 1.282 2.18L11.64 19.38a.733.733 0 0 1-1.28 0z" style="mix-blend-mode:passthrough"/><path fill="#153880" d="M5.4 1.668a.733.733 0 0 1 .706-.935h9.788c.488 0 .84.467.706.935L11.705 18.8c-.203.71-1.207.71-1.41 0z" style="mix-blend-mode:passthrough"/><path fill="#153880" d="M19.65 12.467q0 .216-.01.432t-.032.43q-.021.216-.053.43-.032.213-.074.425t-.094.421q-.053.21-.116.416-.062.207-.135.41-.073.204-.156.404-.082.2-.175.394-.092.196-.194.386t-.213.376q-.11.185-.23.365t-.25.353-.265.34q-.137.168-.282.328t-.298.313q-.153.152-.313.297t-.327.282q-.167.138-.34.266-.174.129-.354.249t-.365.231-.375.213-.386.194-.395.175-.403.156q-.203.072-.41.135t-.416.115q-.21.053-.422.095t-.425.074q-.214.031-.43.053-.214.02-.43.031t-.432.011q-.216 0-.432-.01-.215-.011-.43-.032t-.429-.053q-.214-.032-.426-.074-.211-.042-.42-.095-.21-.052-.417-.115t-.41-.135-.403-.156-.395-.175-.386-.194-.376-.213-.365-.231-.353-.249-.34-.266-.327-.282-.313-.297-.298-.313-.282-.327-.266-.34-.249-.354-.23-.365-.214-.376q-.101-.19-.194-.386-.092-.195-.175-.394-.083-.2-.155-.403-.073-.204-.136-.41-.062-.207-.115-.417-.052-.21-.095-.421-.042-.212-.073-.426-.032-.213-.053-.428-.022-.215-.032-.431t-.01-.432.01-.432q.01-.216.032-.43.02-.216.053-.43.031-.213.073-.425.043-.212.095-.421.053-.21.115-.417.063-.206.136-.41.072-.203.155-.403t.175-.394q.093-.196.194-.386t.213-.376q.111-.185.231-.365t.25-.353.265-.34.282-.328.298-.313q.153-.152.313-.297t.327-.282q.167-.138.34-.266.174-.129.353-.249.18-.12.365-.231t.376-.213.386-.194.395-.175.403-.156.41-.135.416-.115.421-.095.426-.074.429-.053q.215-.02.43-.031.216-.011.432-.011t.432.01.43.032q.216.022.43.053.213.032.425.074t.422.095q.21.052.416.115.207.063.41.135t.403.156.395.175.386.194.375.213.365.231.353.249.341.266.327.282.313.297.298.313.282.327.266.34.248.354.231.365.213.376.194.386.175.394.156.403.135.41.116.417.094.421.074.426.053.428.032.431.01.432" style="mix-blend-mode:passthrough"/><path fill="#FFF" d="M10.67 8.027a.367.367 0 0 1 .66 0l1.063 2.225c.054.112.16.189.283.205l2.445.323a.367.367 0 0 1 .205.629l-1.789 1.698a.37.37 0 0 0-.108.332l.45 2.425a.367.367 0 0 1-.536.389l-2.167-1.176a.37.37 0 0 0-.35 0l-2.168 1.176a.367.367 0 0 1-.535-.39l.449-2.424a.37.37 0 0 0-.108-.332l-1.788-1.698a.367.367 0 0 1 .204-.63l2.445-.322a.37.37 0 0 0 .283-.205z" style="mix-blend-mode:passthrough"/></g></svg>