<svg xmlns="http://www.w3.org/2000/svg" xmlns:xlink="http://www.w3.org/1999/xlink" fill="none" version="1.1" width="22" height="22" viewBox="0 0 22 22"><defs><clipPath id="master_svg0_98_029083"><rect x="0" y="0" width="22" height="22" rx="0"/></clipPath></defs><g clip-path="url(#master_svg0_98_029083)"><g style="opacity:0.009999999776482582;"><path d="M0,0L22,0L22,22L0,22L0,0Z" fill="#202425" fill-opacity="1" style="mix-blend-mode:passthrough"/></g><g><path d="M1.210011170625,2.9121320375C0.667344510625,1.9345984375,1.375011180625,0.7333984375,2.4933443406249998,0.7333984375L19.508142640625,0.7333984375C20.626478640625,0.7333984375,21.333412640625,1.9345984375,20.790008640625,2.9121320375L11.640944640625,19.3798634375C11.511572640625,19.6125564375,11.266247640625,19.7568514375,11.000010440625,19.7568514375C10.733773240625,19.7568514375,10.488448140625,19.6125564375,10.359077440625,19.3798634375L1.210011170625,2.9113984375L1.210011170625,2.9121320375Z" fill="#FFAA44" fill-opacity="1" style="mix-blend-mode:passthrough"/></g><g><path d="M5.40030395425,1.6683987975C5.26624984125,1.1997240175,5.61830111125,0.73312757493,6.10577065125,0.73339859485625L15.89430303125,0.73339859485625C16.38177203125,0.73312809944,16.733824031250002,1.1997243475000001,16.59976903125,1.6683985575L11.70477053125,18.7990664375C11.502370331249999,19.5081974375,10.497703031250001,19.5081974375,10.29530383125,18.7990664375L5.40030395425,1.6683987975Z" fill="#153880" fill-opacity="1" style="mix-blend-mode:passthrough"/></g><g><path d="M19.65029096875,12.4669913875Q19.65029096875,12.6830196875,19.63969196875,12.8987865875Q19.62909296875,13.1145553875,19.60791796875,13.3295421875Q19.58674196875,13.5445298875,19.55504596875,13.7582191875Q19.52334596875,13.9719081875,19.48120096875,14.1837851875Q19.43905596875,14.3956621875,19.38656596875,14.6052161875Q19.33407596875,14.8147711875,19.27136796875,15.0214971875Q19.20865596875,15.2282221875,19.13587996875,15.4316211875Q19.06310096875,15.6350201875,18.98043096875,15.8346041875Q18.89775996875,16.034187187500002,18.80539696875,16.2294751875Q18.71303396875,16.4247621875,18.61119996875,16.6152821875Q18.50936496875,16.805801187500002,18.39830196875,16.9910941875Q18.28724296875,17.176388187500002,18.16722296875,17.356007187499998Q18.047204968750002,17.535627187499998,17.918516968749998,17.7091421875Q17.78982996875,17.8826581875,17.65278396875,18.0496501875Q17.515737968750003,18.2166421875,17.37066196875,18.3767081875Q17.22558596875,18.5367741875,17.07283096875,18.6895291875Q16.920075968749998,18.8422841875,16.760010968750002,18.987360187500002Q16.599944968750002,19.1324351875,16.43295296875,19.2694811875Q16.26596096875,19.4065281875,16.09244496875,19.5352151875Q15.91892996875,19.663904187500002,15.73930896875,19.7839221875Q15.55968896875,19.9039421875,15.37439496875,20.0150011875Q15.18910196875,20.1260641875,14.99858296875,20.2278991875Q14.80806296875,20.3297331875,14.61277596875,20.4220961875Q14.41748796875,20.5144591875,14.21790496875,20.5971301875Q14.01832096875,20.6798001875,13.81492096875,20.7525791875Q13.61152296875,20.8253551875,13.40479696875,20.8880651875Q13.19807096875,20.9507751875,12.98851796875,21.0032651875Q12.77896296875,21.0557551875,12.56708596875,21.0979021875Q12.35520896875,21.1400471875,12.14151996875,21.1717451875Q11.92783066875,21.2034431875,11.71284296875,21.2246191875Q11.49785616875,21.2457921875,11.28208736875,21.2563891875Q11.06632046875,21.2669901875,10.85029216875,21.2669901875Q10.63426396875,21.2669901875,10.41849616875,21.2563891875Q10.20272926875,21.2457901875,9.98774146875,21.2246171875Q9.77275366875,21.2034411875,9.55906386875,21.1717451875Q9.34537406875,21.1400451875,9.13349726875,21.0979001875Q8.92162036875,21.0557551875,8.712066668750001,21.0032651875Q8.50251296875,20.9507751875,8.29578686875,20.8880671875Q8.089060768749999,20.8253551875,7.88566066875,20.7525791875Q7.68226096875,20.6798001875,7.48267746875,20.5971301875Q7.28309396875,20.5144591875,7.08780766875,20.4220961875Q6.89252086875,20.3297331875,6.70200106875,20.2278991875Q6.51148126875,20.1260641875,6.32618806875,20.0150011875Q6.14089486875,19.9039421875,5.96127416875,19.7839221875Q5.78165366875,19.663904187500002,5.60813856875,19.535216187499998Q5.43462366875,19.4065291875,5.26763196875,19.2694831875Q5.10064006875,19.132437187500003,4.94057416875,18.9873611875Q4.780507768750001,18.8422851875,4.62775306875,18.6895301875Q4.47499846875,18.536775187499998,4.32992286875,18.376710187500002Q4.18484736875,18.216644187500002,4.0478008687500004,18.0496521875Q3.91075416875,17.8826601875,3.78206656875,17.7091441875Q3.6533789687500002,17.5356291875,3.53336026875,17.356008187500002Q3.4133416687500002,17.176388187500002,3.30228116875,16.9910941875Q3.1912206687499998,16.805801187500002,3.0893857687499997,16.6152821875Q2.9875509187500002,16.4247621875,2.89518713875,16.2294751875Q2.80282324875,16.034187187500002,2.72015297875,15.8346041875Q2.63748269875,15.6350201875,2.56470512875,15.4316201875Q2.49192756875,15.2282221875,2.42921796875,15.0214961875Q2.36650836875,14.8147701875,2.31401788875,14.6052171875Q2.26152740875,14.3956621875,2.21938246875,14.1837851875Q2.17723752875,13.9719081875,2.14553966375,13.7582191875Q2.11384179475,13.5445298875,2.09266736775,13.3295421875Q2.07149293475,13.1145553875,2.06089295175,12.8987865875Q2.05029296875,12.6830196875,2.05029296875,12.4669913875Q2.05029296875,12.2509631875,2.06089295175,12.0351953875Q2.07149293475,11.8194284875,2.09266736775,11.6044406875Q2.11384179475,11.3894528875,2.14553965675,11.1757630875Q2.17723752875,10.9620732875,2.21938246875,10.7501964875Q2.26152740875,10.5383195875,2.31401788875,10.328765887500001Q2.36650836875,10.1192121875,2.42921796875,9.9124860875Q2.49192756875,9.705759987499999,2.56470512875,9.502359887499999Q2.63748269875,9.2989601875,2.72015297875,9.099376687500001Q2.80282324875,8.8997931875,2.89518713875,8.7045068875Q2.9875509187500002,8.509220087500001,3.0893857687499997,8.3187002875Q3.1912206687499998,8.1281804875,3.30228116875,7.9428872875Q3.4133416687500002,7.7575940875,3.53336026875,7.5779733875Q3.6533789687500002,7.3983528875,3.78206656875,7.2248377875Q3.91075416875,7.0513228875,4.04780096875,6.8843311875Q4.1848475687499995,6.7173392875,4.32992286875,6.5572733875Q4.47499846875,6.397206987500001,4.62775306875,6.2444522875Q4.780507768750001,6.0916976875,4.94057416875,5.9466220875Q5.10064006875,5.8015465875,5.26763196875,5.6645000875000004Q5.43462366875,5.5274533875,5.60813906875,5.3987657875Q5.78165416875,5.2700781875,5.96127466875,5.1500594875Q6.14089536875,5.0300408875,6.32618856875,4.9189803874999996Q6.51148176875,4.8079198875,6.70200106875,4.7060849875Q6.89252086875,4.6042501375,7.08780766875,4.5118863575Q7.28309436875,4.4195224675,7.48267796875,4.3368521975Q7.68226146875,4.2541819175,7.88566156875,4.1814043475Q8.08906176875,4.1086267875,8.29578736875,4.0459171875Q8.50251296875,3.9832075875,8.71206716875,3.9307171075Q8.92162036875,3.8782266275,9.13349726875,3.8360816875Q9.34537406875,3.7939367475,9.55906386875,3.7622388825Q9.77275366875,3.7305410135,9.98774146875,3.7093665865Q10.20272926875,3.6881921535,10.41849706875,3.6775921705Q10.63426396875,3.6669921875,10.85029216875,3.6669921875Q11.06632046875,3.6669921875,11.28208736875,3.6775921705Q11.49785616875,3.6881921535,11.71284296875,3.7093665865Q11.92783066875,3.7305410135,12.14151996875,3.7622388755Q12.35520896875,3.7939367475,12.56708596875,3.8360816875Q12.77896296875,3.8782266275,12.98851696875,3.9307171075Q13.19807196875,3.9832075875,13.40479796875,4.0459171875Q13.61152296875,4.1086267875,13.81492196875,4.1814043475Q14.01832096875,4.2541819175,14.21790496875,4.3368521975Q14.41748796875,4.4195224675,14.61277596875,4.5118863575Q14.80806296875,4.6042501375,14.99858296875,4.7060849875Q15.18910196875,4.8079198875,15.37439496875,4.9189803874999996Q15.55968896875,5.0300408875,15.73930796875,5.1500594875Q15.91892796875,5.2700781875,16.09244296875,5.3987657875Q16.26595896875,5.5274533875,16.43295096875,5.6645001875Q16.59994296875,5.8015467874999995,16.76000896875,5.9466220875Q16.92007496875,6.0916976875,17.07282996875,6.2444522875Q17.22558496875,6.397206987500001,17.370660968750002,6.5572733875Q17.51573596875,6.7173392875,17.65278196875,6.8843311875Q17.78982896875,7.0513228875,17.91851596875,7.2248382875Q18.047204968750002,7.3983533875,18.16722296875,7.5779738875Q18.28724296875,7.7575945875,18.39830196875,7.9428877875Q18.50936496875,8.1281809875,18.61119996875,8.3187002875Q18.71303396875,8.509220087500001,18.80539696875,8.7045068875Q18.89775996875,8.8997935875,18.98043096875,9.0993771875Q19.06310096875,9.2989606875,19.13587996875,9.502360787499999Q19.20865596875,9.7057609875,19.27136596875,9.9124865875Q19.33407596875,10.1192121875,19.38656596875,10.3287663875Q19.43905596875,10.5383195875,19.48120296875,10.7501964875Q19.52334796875,10.9620732875,19.55504596875,11.1757630875Q19.58674396875,11.3894528875,19.60791996875,11.6044406875Q19.62909296875,11.8194284875,19.63969196875,12.0351962875Q19.65029096875,12.2509631875,19.65029096875,12.4669913875Z" fill="#153880" fill-opacity="1" style="mix-blend-mode:passthrough"/></g><g><path d="M10.66910071875,8.026722565C10.730044818749999,7.899394907,10.85867161875,7.818359375,10.99983451875,7.818359375C11.14099551875,7.818359375,11.269622318749999,7.899394907,11.33056781875,8.026722565L12.393167018749999,10.251655375C12.44670481875,10.363583775,12.55321451875,10.440845275000001,12.67623371875,10.456989075L15.12116621875,10.779655675C15.26117701875,10.798174175,15.37810611875,10.895459875,15.42177961875,11.029768275C15.46545411875,11.164076375,15.42810821875,11.311529675,15.32576651875,11.408855675L13.53716711875,13.106522575C13.446908018750001,13.191937875,13.40605541875,13.317256475,13.42863371875,13.439455474999999L13.87816761875,15.863856275C13.90369841875,16.002723675,13.84722331875,16.143914175,13.73296641875,16.226868675C13.61870721875,16.309821175,13.46696991875,16.319800375,13.34283351875,16.252523375000003L11.17583321875,15.076990575C11.06655501875,15.017522775,10.93457701875,15.017522775,10.82529971875,15.076990575L8.65829941875,16.252523375000003C8.53416211875,16.319800375,8.38242411875,16.309823075,8.26816741875,16.226868675C8.15390991875,16.143913275,8.09743521875,16.002723675,8.12296571875,15.863856275L8.57176591875,13.439455474999999C8.59452671875,13.317384275,8.55395651875,13.192086674999999,8.46396551875,13.106522575L6.67609878875,11.408855675C6.57379371575,11.311629775,6.53637314075,11.164315175,6.57987564275,11.030051975C6.62337814275,10.895787975000001,6.74008066875,10.798410875,6.87996536875,10.779655675L9.32489891875,10.456989075C9.44791791875,10.440845275000001,9.554427618750001,10.363583775,9.60796571875,10.251655375L10.669832218749999,8.026721715L10.66910071875,8.026722565Z" fill="#FFFFFF" fill-opacity="1" style="mix-blend-mode:passthrough"/></g></g></svg>