<svg xmlns="http://www.w3.org/2000/svg" width="36" height="36" fill="none"><defs><clipPath id="a"><rect width="25" height="25" x="6" y="5" rx="0"/></clipPath></defs><rect width="36" height="36" fill="#EDF3FF" rx="12"/><g clip-path="url(#a)"><path fill="#2855B3" d="M14.35 15.762a.943.943 0 0 0 .94-.939V9.668a.94.94 0 0 0-.94-.939.94.94 0 0 0-.938.939v5.155c0 .517.424.939.939.939m8.687-.088a.94.94 0 0 0 .939-.937V9.582a.94.94 0 0 0-.939-.938.94.94 0 0 0-.938.938v5.153c0 .517.423.939.938.939" style="mix-blend-mode:passthrough"/><path fill="#2855B3" d="M26.039 10.668h-1.895v3.976c0 .706-.503 1.282-1.12 1.282s-1.12-.576-1.12-1.282v-3.976h-6.455v4.11c0 .706-.503 1.282-1.12 1.282-.616 0-1.12-.576-1.12-1.282v-4.11h-2.245c-.886 0-1.61.828-1.61 1.842v12.005c0 1.013.724 1.842 1.61 1.842h15.073c.886 0 1.61-.829 1.61-1.842V12.51c0-1.012-.724-1.842-1.608-1.842m-3.11 8.289-4.737 4.415-.022.02-.021.02a1 1 0 0 1-.653.281.78.78 0 0 1-.577-.222 1.1 1.1 0 0 1-.184-.197l-2.949-3.163c-.267-.46-.222-.929.122-1.248.429-.4.898-.413 1.25-.033h.002l2.395 2.57 4.093-3.815c.608-.405 1.165-.442 1.484-.098.4.428.325.98-.202 1.47" style="mix-blend-mode:passthrough"/></g></svg>