<svg xmlns="http://www.w3.org/2000/svg" width="36" height="36" fill="none"><defs><clipPath id="a"><rect width="23" height="23" x="7" y="7" rx="0"/></clipPath></defs><rect width="36" height="36" fill="#EDF3FF" rx="12"/><g clip-path="url(#a)"><path fill="#2855B3" d="M20.386 13.176c.644.414.966 1.196.816 1.932L20.18 21.8l4.795 5.566c.53.69.437 1.69-.218 2.265-.31.276-.725.402-1.127.357a1.45 1.45 0 0 1-1.024-.575l-6.578-7.924-.057-.092a1.54 1.54 0 0 1-.07-1.15l.748-3.07-2.242 1.173.16.724c.23.702-.114 1.46-.793 1.714-.322.115-.69.092-.989-.058a1.33 1.33 0 0 1-.667-.816l-.483-2.185a1.4 1.4 0 0 1 .575-1.61c.115-.058.219-.115.322-.173.035-.023.035-.023.08-.046.507-.276 5.785-3.001 5.889-3.059l.092-.034a2.03 2.03 0 0 1 1.794.368m-5.313 9.418a.37.37 0 0 1 .138.127l1.403 1.702q.24.345.034.759c-.172.31-.437.782-.782 1.414-.23.54-.747.886-1.31.874l-.139-.023-3.162-1.104a1.42 1.42 0 0 1-.736-1.713c.184-.782.84-1.311 1.53-1.104l1.713.598.678-1.323a.47.47 0 0 1 .633-.207m7.429-6.325c.034.012.069.023.092.046h.011l2.024 1.024c.679.345.955 1.184.644 1.874-.138.345-.414.61-.759.748a1.33 1.33 0 0 1-1.046-.046c-.679-.345-1.196-.61-1.541-.782q-.207-.052-.207-.414l.31-2.162a.39.39 0 0 1 .472-.288M20.374 7c1.369 0 2.473 1.127 2.473 2.53s-1.104 2.53-2.473 2.53c-1.357 0-2.46-1.127-2.46-2.53S19.016 7 20.373 7" style="mix-blend-mode:passthrough"/></g></svg>