<svg xmlns="http://www.w3.org/2000/svg" width="36" height="36" fill="none"><defs><clipPath id="a"><rect width="20" height="20" x="8" y="8" rx="0"/></clipPath></defs><rect width="36" height="36" fill="#EDF3FF" rx="12"/><g clip-path="url(#a)"><path fill="#2855B3" d="M17.291 8.357a.884.884 0 0 1 1.418 0l.619.848.375.528a70 70 0 0 1 2.176 3.282q.654 1.049 1.252 2.13c1.286 2.335 2.011 4.21 2.011 5.582C25.142 24.744 21.945 28 18 28s-7.143-3.256-7.143-7.273c0-1.372.725-3.247 2.01-5.582q.6-1.082 1.254-2.13a70 70 0 0 1 2.368-3.553l.36-.502z" style="mix-blend-mode:passthrough"/><path fill="#FFF" d="M20.547 19.9a.242.242 0 0 1 .36 0l.158.192.096.12q.288.366.554.746.165.238.319.484c.327.53.512.957.512 1.269 0 .913-.814 1.653-1.819 1.653s-1.818-.74-1.818-1.653c0-.312.185-.738.512-1.269q.152-.246.32-.484.286-.412.602-.808l.091-.114z" style="mix-blend-mode:passthrough"/></g></svg>