<svg xmlns="http://www.w3.org/2000/svg" width="36" height="36" fill="none"><defs><clipPath id="a"><rect width="20" height="20" x="8" y="8" rx="0"/></clipPath></defs><rect width="36" height="36" fill="#EDF3FF" rx="12"/><g clip-path="url(#a)"><path fill="#2855B3" d="M16.545 20.318v-9.545C16.545 9.318 15.318 8 13.91 8c-1.455 0-2.59 1.273-2.59 2.727v9.455c-.776.727-1.32 1.727-1.32 2.908 0 2.227 1.773 4.045 3.91 4.045 2.135 0 3.908-1.772 3.908-4 0-1.181-.454-2.09-1.273-2.818zm-2.635 5.727c-1.545 0-2.818-1.318-2.864-2.909-.045-1.681 1.137-2.409 1.137-2.409V10.5c0-.773.909-1.545 1.682-1.545s1.727.772 1.727 1.545v10.318c.682.5 1.09 1.5 1.09 2.318.092 1.591-1.226 2.91-2.772 2.91zm3.91-14.727h1.5a.455.455 0 0 0 0-.91l-1.5.001a.455.455 0 0 0-.455.455c0 .227.227.454.454.454zm1.5.455h-1.5a.455.455 0 1 0 0 .91l1.5-.001a.455.455 0 0 0 0-.91zm0 1.363h-1.5a.455.455 0 1 0 0 .91h1.5a.455.455 0 0 0 0-.91m-3.91 8.319-.59-.5v-2.41c0-.5-.364-.909-.864-.909s-.91.41-.91.91v2.409l-.59.5c-.5.454-.728 1.045-.728 1.681 0 1.228 1 2.273 2.228 2.273 1.227 0 2.227-1 2.227-2.273a2.64 2.64 0 0 0-.773-1.681m6.727-5.182c-1.454 1.454-3.863 4.954-3.863 7.045s1.727 3.818 3.863 3.818 3.864-1.681 3.864-3.818c0-2.09-2.364-5.59-3.864-7.045" style="mix-blend-mode:passthrough"/></g></svg>