<svg xmlns="http://www.w3.org/2000/svg" xmlns:xlink="http://www.w3.org/1999/xlink" fill="none" version="1.1" width="36" height="36" viewBox="0 0 36 36"><defs><clipPath id="master_svg0_103_028444"><rect x="8" y="8" width="20" height="20" rx="0"/></clipPath></defs><g><g><rect x="0" y="0" width="36" height="36" rx="12" fill="#EDF3FF" fill-opacity="1"/></g><g clip-path="url(#master_svg0_103_028444)"><g><path d="M11.252988359375,14.6669921875L24.746990359375,14.6669921875C26.429811359375,14.66674575803,27.692157359375,16.2061452875,27.362323359375,17.8563251875L25.762325359375,25.856325187499998C25.513176359375,27.1028351875,24.418821359375002,28.0001941875,23.147655359375,28.0003261875L12.852988259375,28.0003261875C11.581824059375,28.0001911875,10.487469159375,27.1028351875,10.238321259375,25.856325187499998L8.638321206375,17.8563251875C8.308541539375,16.2064116875,9.570439219375,14.66716690063,11.252988359375,14.6669921875ZM11.253655459375,15.6669921875L11.253092259375,15.6669920075Q10.464397059374999,15.6670739875,9.964369059375,16.2770011875Q9.464340929375,16.886928287499998,9.618901859375,17.6602091875L11.218925259375,25.6603281875Q11.335712959375,26.2446271875,11.796472759375,26.6224441875Q12.257233659375,27.0002631875,12.852988259375,27.000327187499998L23.147553359375,27.000327187499998Q23.743412359375,27.0002651875,24.204172359375,26.6224461875Q24.664932359375,26.2446271875,24.781744359375,25.6602091875L26.381719359375,17.6603240875Q26.536329359375,16.8868026875,26.036144359375,16.2768399875Q25.535959359375,15.6668766775,24.746990359375,15.6669921875L11.253655459375,15.6669921875Z" fill-rule="evenodd" fill="#2855B3" fill-opacity="1"/></g><g><path d="M24.666582953125,14.666666Q24.666581953125,14.830323199999999,24.658551953125,14.9937835Q24.650521953125,15.1572437,24.634480953125,15.3201132Q24.618438953125,15.4829826,24.594424953125,15.6448684Q24.570411953125,15.8067546,24.538484953125,15.9672675Q24.506555953125,16.12778,24.466790953125,16.2865324Q24.427024953125,16.4452858,24.379518953125,16.6018963Q24.332010953125,16.7585068,24.276875953125,16.9125967Q24.221740953125,17.066688499999998,24.159111953125,17.2178879Q24.096482953124998,17.3690872,24.026509953125,17.5170317Q23.956536953125,17.6649761,23.879389953125,17.80931Q23.802241953124998,17.9536428,23.718104953125,18.094017Q23.633967953125,18.234389999999998,23.543045953125002,18.370466Q23.452122953125,18.506542,23.354631953125,18.637993Q23.257141953125,18.769444,23.153318953125,18.895953Q23.049495953125,19.022462,22.939589953125,19.143724Q22.829682953125,19.264986,22.713960953125,19.38071Q22.598237953125,19.496433,22.476974953125,19.606339Q22.355712953125,19.716245999999998,22.229203953125,19.820068Q22.102695953125,19.923890999999998,21.971243953125,20.021380999999998Q21.839791953125,20.118872,21.703715953125,20.209795Q21.567639953125,20.300718,21.427266953125,20.384854Q21.286893853125,20.468992,21.142560953125,20.54614Q20.998228053125,20.623286999999998,20.850283653125,20.693258Q20.702339153125,20.763230999999998,20.551138853125,20.825861Q20.399939553125,20.888489999999997,20.245848653125,20.943624Q20.091758753125,20.998759,19.935148253125,21.046267Q19.778537753125,21.093773,19.619784353125,21.133539Q19.461031953125,21.173304,19.300518953125,21.205233Q19.140006053125,21.237161,18.978120353125,21.261174Q18.816234553125,21.285189000000003,18.653365153125,21.30123Q18.490495653125002,21.317270999999998,18.327034953125,21.325301Q18.163574653125,21.333332,17.999917553125,21.333332Q17.836259853125,21.333332,17.672799553125,21.325301Q17.509339353125,21.31727,17.346469853125,21.301229Q17.183600453125,21.285189000000003,17.021714253125,21.261175Q16.859827953125,21.237161,16.699315053124998,21.205233Q16.538802153125,21.173304,16.380049253125,21.133539Q16.221296353125,21.093773,16.064685853125,21.046267Q15.908075353125,20.998759,15.753984453125,20.943624Q15.599893553125,20.888489999999997,15.448694253125,20.825861Q15.297494453125001,20.763230999999998,15.149549953125,20.693258999999998Q15.001605253125,20.623286,14.857272353125,20.546139Q14.712939253125,20.468991000000003,14.572565553125,20.384854Q14.432191853125,20.300718,14.296115853125,20.209795Q14.160039853125,20.118872,14.028588753125,20.021380999999998Q13.897138153124999,19.923890999999998,13.770629453125,19.820068Q13.644120253125,19.716245999999998,13.522858153125,19.606339Q13.401596053125001,19.496433,13.285872653125,19.380710999999998Q13.170149353125,19.264986999999998,13.060243753125,19.143724Q12.950338153125,19.022463000000002,12.846514953125,18.895955Q12.742691753125,18.769444999999997,12.645201053125,18.637995Q12.547710453125,18.506542,12.456787253125,18.370466Q12.365864053125,18.234389999999998,12.281727253125,18.094016Q12.197590533125,17.9536428,12.120442923125,17.80931Q12.043295383125,17.6649761,11.973322813125,17.5170317Q11.903350233125,17.3690872,11.840721193125,17.2178879Q11.778092203125,17.066688499999998,11.722957673125,16.9125967Q11.667823133125,16.7585068,11.620315943125,16.6018963Q11.572808683125,16.4452858,11.533043163125,16.2865324Q11.493277643125,16.12778,11.461349663125,15.9672675Q11.429421678125,15.8067546,11.405408144125,15.644868899999999Q11.381394621125,15.4829826,11.365353387125,15.3201137Q11.349312153125,15.1572437,11.341281862025,14.9937835Q11.3332515716553,14.830323199999999,11.3332515716553,14.666666Q11.3332515716553,14.5030088,11.341281862025,14.3395481Q11.349312153125,14.1760883,11.365353387125,14.0132189Q11.381394621125,13.850349399999999,11.405408151125,13.688462699999999Q11.429421678125,13.526576500000001,11.461349663125,13.3660636Q11.493277643125,13.2055507,11.533043143125,13.0467978Q11.572808653125,12.8880453,11.620315913125,12.731434799999999Q11.667823133125,12.5748243,11.722957673125,12.4207335Q11.778092203125,12.2666426,11.840721193125,12.1154428Q11.903350233125,11.9642429,11.973322813125,11.8162985Q12.043295383125,11.668354,12.120442983125,11.5240211Q12.197590593125,11.379688,12.281727253125,11.2393143Q12.365864053125,11.0989406,12.456787253125,10.9628644Q12.547710453125,10.8267884,12.645201053125,10.6953375Q12.742691753125,10.5638866,12.846514953125,10.437377699999999Q12.950338153125,10.3108687,13.060243753125,10.1896064Q13.170149353125,10.0683444,13.285872653125,9.9526211Q13.401596053125001,9.8368977,13.522858153125,9.7269921Q13.644120253125,9.6170866,13.770629453125,9.5132635Q13.897138153124999,9.4094403,14.028589053125,9.3119496Q14.160039853125,9.2144588,14.296115853125,9.1235356Q14.432191853125,9.0326123,14.572565553125,8.94847572Q14.712939253125,8.86433899,14.857272353125,8.78719139Q15.001605253125,8.71004379,15.149549953125,8.64007127Q15.297494453125001,8.57009864,15.448694253125,8.50746965Q15.599893553125,8.44484067,15.753984453125,8.38970613Q15.908075353125,8.3345716,16.064685853125,8.28706437Q16.221296353125,8.23955712,16.380049253125,8.19979158Q16.538802153125,8.16002607,16.699315053124998,8.1280981Q16.859827953125,8.096170112,17.021714253125,8.072156586Q17.183600453125,8.048143052,17.346469853125,8.032101817Q17.509339353125,8.016060581,17.672799553125,8.0080302907Q17.836259853125,8,17.999917553125,8Q18.163574653125,8,18.327034953125,8.0080302907Q18.490495653125002,8.016060581,18.653365153125,8.032101817Q18.816234553125,8.048143052,18.978120353125,8.072156586Q19.140006053125,8.096170112,19.300518953125,8.1280981Q19.461031953125,8.16002607,19.619784353125,8.1997916Q19.778537753125,8.23955712,19.935148253125,8.28706437Q20.091758753125,8.3345716,20.245848653125,8.38970613Q20.399939553125,8.44484067,20.551138853125,8.50746965Q20.702339153125,8.57009864,20.850283653125,8.64007127Q20.998228053125,8.71004379,21.142560953125,8.78719139Q21.286893853125,8.86433899,21.427266953125,8.94847572Q21.567640953125,9.0326123,21.703716953125,9.1235356Q21.839792953125,9.2144588,21.971244953125,9.3119495Q22.102695953125,9.4094403,22.229204953125,9.5132635Q22.355713953125,9.6170866,22.476974953125,9.7269922Q22.598237953125,9.8368977,22.713960953125,9.9526211Q22.829682953125,10.0683444,22.939589953125,10.1896067Q23.049495953125,10.3108687,23.153318953125,10.4373779Q23.257140953125003,10.5638866,23.354631953125,10.6953375Q23.452121953125,10.8267884,23.543044953124998,10.9628644Q23.633967953125,11.0989406,23.718104953125,11.2393143Q23.802241953124998,11.379688,23.879389953125,11.5240211Q23.956536953125,11.668354,24.026509953125,11.8162985Q24.096482953124998,11.9642429,24.159111953125,12.1154428Q24.221740953125,12.2666426,24.276875953125,12.4207335Q24.332009953125002,12.5748243,24.379517953125,12.731434799999999Q24.427024953125,12.8880453,24.466790953125,13.0467978Q24.506555953125,13.2055507,24.538484953125,13.3660636Q24.570411953125,13.526576500000001,24.594425953125,13.688462699999999Q24.618439953124998,13.850349399999999,24.634480953125,14.0132189Q24.650521953125,14.1760883,24.658551953125,14.3395481Q24.666581953125,14.5030088,24.666582953125,14.666666Z" fill="#2855B3" fill-opacity="1" style="mix-blend-mode:passthrough"/></g><g><path d="M17.540185569375,15.3771390875C18.257509459375,15.7456378875,19.136095559375,15.4125618875,19.428852059375,14.6611384875C19.950271559375,13.2545821875,20.299914359375002,11.7902024875,20.470185059374998,10.2998046875C19.268466959375,11.1879442975,18.175992459375,12.2150759875,17.215518939375,13.359804887500001C16.798908249375,14.0179071875,16.938479617375,14.8833660875,17.540852369375,15.3771381875L17.540185569375,15.3771390875Z" fill="#FFFFFF" fill-opacity="1" style="mix-blend-mode:passthrough"/></g></g></g></svg>