<svg xmlns="http://www.w3.org/2000/svg" width="36" height="36" fill="none"><defs><clipPath id="a"><rect width="22" height="22" x="7" y="7" rx="0"/></clipPath></defs><rect width="36" height="36" fill="#EDF3FF" rx="12"/><g clip-path="url(#a)"><path fill="#2855B3" d="M23.62 26.61h-.025c-.8-.009-1.601-.009-2.402-.009H19.97c-.816 0-1.633 0-2.451-.01a3.8 3.8 0 0 1-1.322-.28c-.715-.28-1.123-.902-1.121-1.712l.002-3.038c0-1.682 0-3.367.015-5.05.002-.457.297-.886.548-1.112.973-.89 2.03-1.998 2.473-3.493.122-.417.17-.877.219-1.362.099-.967.726-1.597 1.564-1.597.329 0 .657.1.98.29.646.39 1.078 1 1.317 1.87.382 1.38.187 2.722-.028 3.87v.005a.436.436 0 0 0 .427.518h2.793c.482 0 1.171.06 1.597.576.309.376.397.883.266 1.553-.4 2.06-.89 4.138-1.358 6.074-.146.603-.389 1.162-.623 1.703l-.1.232c-.267.628-.817.972-1.548.972m-11.977-.202h-.256c-.924 0-1.68-.757-1.68-1.68V17.24c0-.924.756-1.68 1.68-1.68h.256c.924 0 1.68.756 1.68 1.68v7.485a1.683 1.683 0 0 1-1.68 1.683" style="mix-blend-mode:passthrough"/></g></svg>