<svg xmlns="http://www.w3.org/2000/svg" width="36" height="36" fill="none"><defs><clipPath id="a"><rect width="21" height="21" x="9" y="8" rx="0"/></clipPath></defs><rect width="36" height="36" fill="#EDF3FF" rx="12"/><g clip-path="url(#a)"><path fill="#2855B3" d="M19.124 20.75c2.278 0 4.126-2.685 4.126-4.824 0-.101-.008-.2-.016-.3l-.646-.6c-.06-.053-1.17-1.026-3.342-1.026l-.11.002c-2.262.035-3.334.984-3.377 1.025l-.747.674q-.01.111-.012.225c-.002 2.14 1.846 4.824 4.124 4.824" style="mix-blend-mode:passthrough"/><path fill="#2855B3" d="M26.962 23.457c-.906-4.079-4.132-4.344-4.132-4.344l-3.554 4.08c-.152.235-.527.227-.666-.015l-3.19-4.065s-3.226.265-4.132 4.344c-.162.73.202 1.845.92 2.204 1.072.536 3.115 1.117 6.918 1.088 3.803.03 5.846-.552 6.918-1.088.716-.359 1.08-1.474.918-2.204m-3.808-9.241v-3.531s-4.03-2.666-8.06 0v3.53s1.282-1.088 3.98-1.126 4.08 1.127 4.08 1.127m-4.426-1.994v-.574h-.553a.38.38 0 0 1-.377-.378c0-.21.17-.38.377-.38h.553v-.572a.378.378 0 1 1 .754 0v.573h.59c.209 0 .378.169.378.379s-.17.378-.377.378h-.591v.574a.378.378 0 1 1-.754 0" style="mix-blend-mode:passthrough"/><path fill="#FFF" d="M24.025 22.25c-.145 0-.282.142-.4.225-.117-.083-.255-.225-.4-.225-.4 0-.725.346-.725.771 0 .333.18.677.533 1.022.25.244.498.399.508.405l.084.052.084-.052c.01-.006.258-.161.508-.405.354-.345.533-.689.533-1.022 0-.425-.325-.771-.725-.771" style="mix-blend-mode:passthrough"/></g></svg>