<svg xmlns="http://www.w3.org/2000/svg" width="36" height="36" fill="none"><defs><clipPath id="a"><rect width="22" height="22" x="8" y="6" rx="0"/></clipPath></defs><rect width="36" height="36" fill="#EDF3FF" rx="12"/><g clip-path="url(#a)"><path fill="#2855B3" d="m27.197 13.08-3.055-3.056-.012-.012a1.222 1.222 0 0 0-1.716 1.74l.969.97h-1.328q-2.784 0-4.754 1.968-1.968 1.971-1.968 4.754a1.222 1.222 0 1 0 2.445 0q0-1.772 1.252-3.025t3.025-1.253h1.328l-.97.97a1.222 1.222 0 1 0 1.73 1.728l3.056-3.056a1.22 1.22 0 0 0-.002-1.728M14.111 25.555h11.611a1.222 1.222 0 1 0 0-2.444H14.111q-.506 0-.864-.358t-.358-.864v-8.556a1.222 1.222 0 1 0-2.445 0v8.556q0 1.519 1.075 2.592 1.073 1.074 2.592 1.074" style="mix-blend-mode:passthrough"/></g></svg>