<svg xmlns="http://www.w3.org/2000/svg" width="36" height="36" fill="none"><defs><clipPath id="a"><rect width="19" height="19" x="10" y="9" rx="0"/></clipPath></defs><rect width="36" height="36" fill="#EDF3FF" rx="12"/><g clip-path="url(#a)"><path fill="#2855B3" d="M20.275 16.858a6.3 6.3 0 0 0-1.541.966c-.45.386-.9.837-1.22 1.352-.322.516-.643 1.03-.835 1.675-.193.58-.257 1.224-.257 1.868 0 .58.064 1.159.257 1.674.128.515.385 1.03.642 1.482h-.45c-.32 0-.706 0-1.156-.065-.45 0-.899-.064-1.348-.064-.45-.065-.9-.065-1.349-.129-.45-.064-.835-.129-1.22-.129a13 13 0 0 1-.963-.193c-.257-.064-.45-.129-.514-.193-.128-.065-.193-.387-.257-.838s-.064-1.03.064-1.739c.065-.257.129-.515.257-.708.129-.193.321-.322.514-.45.193-.13.45-.259.642-.323.193-.064.514-.129.77-.258l.771-.193c.257-.064.45-.193.643-.322a1.2 1.2 0 0 0 .513-.45c.129-.13.193-.258.257-.387s.064-.258.064-.45v-.516c0-.258-.128-.451-.256-.644a3.7 3.7 0 0 0-.514-.451 1.4 1.4 0 0 1-.257-.322c-.064-.129-.128-.258-.193-.451-.064-.193-.128-.322-.192-.515-.065 0-.129-.065-.257-.13.064 0-.064-.063-.129-.128-.064-.129-.128-.258-.192-.45-.065-.194-.065-.387-.065-.516s.065-.322.129-.45c0-.13.064-.258.193-.323 0-.45 0-.837.064-1.288.064-.386.128-.773.257-1.16.064-.45.257-.772.513-1.094.193-.322.45-.58.707-.773s.514-.322.835-.451c.257-.129.578-.193.834-.258C16.293 9 16.55 9 16.807 9c.321 0 .642.064.963.129.321.064.643.193.9.322.256.129.513.257.77.45.193.065.385.258.514.387.32.387.514.773.642 1.16.128.45.257.837.257 1.223.064.515.064.966.064 1.417l.193.193c.064.065.064.194.128.322v.451c0 .258-.064.451-.128.58s-.129.258-.257.322c-.129.064-.193.129-.321.193 0 .065-.064.129-.064.193l-.065.258c-.064.064-.064.193-.128.258m2.44.515c.707 0 1.413.129 2.055.45.642.258 1.22.645 1.67 1.16.45.45.835 1.03 1.156 1.675.257.644.45 1.352.45 2.06 0 .71-.13 1.418-.45 2.062a4.36 4.36 0 0 1-1.156 1.674c-.45.451-1.028.838-1.67 1.16a5.6 5.6 0 0 1-2.055.386 5.6 5.6 0 0 1-2.055-.386 4.34 4.34 0 0 1-1.67-1.16c-.449-.45-.834-1.03-1.155-1.674-.257-.644-.45-1.353-.45-2.061 0-.709.129-1.417.45-2.061a4.36 4.36 0 0 1 1.156-1.675c.45-.45 1.027-.837 1.67-1.16a5.1 5.1 0 0 1 2.054-.45m3.083 4.315c.064-.193.064-.45-.064-.644a1 1 0 0 0-.514-.386 1.1 1.1 0 0 0-.642 0 .74.74 0 0 0-.45.515c-.064.193-.128.386-.128.515-.065.193-.129.322-.129.515l-.192.58c-.065.193-.193.45-.257.709-.129.322-.257.45-.45.386-.193 0-.385-.129-.45-.386a2.4 2.4 0 0 1-.32-.709c-.129-.258-.193-.515-.322-.773a4.5 4.5 0 0 1-.256-.644 5 5 0 0 0-.193-.515c-.064-.193-.257-.258-.45-.322-.192 0-.385 0-.578.064a1 1 0 0 0-.513.387.63.63 0 0 0-.065.58c.065.193.193.45.257.772.129.258.193.58.321.837.129.323.193.58.321.838.129.257.193.515.257.708q.29.677.771.966a2.16 2.16 0 0 0 1.092.322c.385 0 .706-.064 1.091-.257.321-.193.578-.451.771-.838.128-.322.257-.58.385-.901.129-.322.257-.644.386-.902.128-.322.257-.58.32-.902-.192-.064-.063-.322 0-.515" style="mix-blend-mode:passthrough"/></g></svg>