<svg xmlns="http://www.w3.org/2000/svg" width="20" height="20" fill="none" viewBox="1 0 20 20"><defs><clipPath id="a"><rect width="20" height="20" rx="0"/></clipPath></defs><g clip-path="url(#a)"><path fill="#2855B3" d="m18.283 16.483-3.56-3.559a6.33 6.33 0 0 0 1.261-3.803A6.375 6.375 0 0 0 9.62 2.755 6.375 6.375 0 0 0 3.253 9.12a6.375 6.375 0 0 0 6.366 6.366 6.3 6.3 0 0 0 4.052-1.454L17.2 17.56zm-8.664-2.262a5.1 5.1 0 0 1-5.095-5.095A5.104 5.104 0 0 1 9.619 4.03a5.1 5.1 0 0 1 5.094 5.095 5.07 5.07 0 0 1-1.403 3.513 5.06 5.06 0 0 1-3.691 1.582" style="mix-blend-mode:passthrough"/></g></svg>