<svg xmlns="http://www.w3.org/2000/svg" xmlns:xlink="http://www.w3.org/1999/xlink" fill="none" version="1.1" width="16" height="16" viewBox="0 0 16 16"><defs><clipPath id="master_svg0_114_062801"><rect x="0" y="0" width="15" height="15" rx="0"/></clipPath></defs><g clip-path="url(#master_svg0_114_062801)"><g><path d="M12.769564,4.1447592L10.8053188,2.22077504L10.7974625,2.21307914C10.4871874,1.922787026,9.9965291,1.929995179,9.695282500000001,2.22927126C9.394034399999999,2.5285470500000002,9.3936162,3.0092008,9.6943412,3.3089805L10.3174,3.9192682999999997L9.4641323,3.9192682999999997Q7.6743121,3.9192682999999997,6.4077668,5.1583138Q5.1427925000000005,6.3996677,5.1427925000000005,8.1520324C5.1427925000000005,8.5770669,5.4945612,8.9216251,5.928490200000001,8.9216251C6.3624196,8.9216251,6.7141891,8.5770669,6.7141891,8.1520324Q6.7141891,7.0361223,7.5195293,6.2472882Q8.3248701,5.4584551,9.4641323,5.4584551L10.3174019,5.4584551L9.6943421,6.0687428C9.3875542,6.3694544,9.387730099999999,6.8568339,9.694735099999999,7.1573329C10.0017395,7.4578333,10.4993181,7.4576612,10.8061056,7.1569481L12.770351,5.2329643C13.076856,4.9322257,13.076504,4.4450727,12.769564,4.1447592ZM4.3570948000000005,12L11.8212261,12C12.255157,12,12.606925,11.6554403,12.606925,11.2304058C12.606925,10.8053703,12.255157,10.4608126,11.8212261,10.4608126L4.3570948000000005,10.4608126Q4.0318155,10.4608126,3.8016059,10.235321Q3.5713961999999997,10.0098305,3.5713961999999997,9.691219799999999L3.5713961999999997,4.3040645C3.5713961999999997,3.8790296,3.2196273,3.534471,2.78569812,3.534471C2.351769,3.534471,2,3.8790296,2,4.3040645L2,9.691219799999999Q2,10.6478252,2.69062865,11.3235273Q3.3804717,12,4.3570948000000005,12Z" fill="#7A8790" fill-opacity="1" style="mix-blend-mode:passthrough"/></g></g></svg>