<svg xmlns="http://www.w3.org/2000/svg" width="20" height="19" fill="none" viewBox="0 1 20 19"><defs><clipPath id="a"><rect width="20" height="20" rx="0"/></clipPath><clipPath id="c"><rect width="3" height="3" x="14" y="14" rx="0"/></clipPath><linearGradient id="b" x1=".5" x2="1" y1="0" y2="1.258"><stop offset="0%" stop-color="#2855B3"/><stop offset="98.571%" stop-color="#D4E1FA"/></linearGradient></defs><g clip-path="url(#a)"><path fill="url(#b)" d="M9.959 1.258a8.723 8.723 0 0 0 0 17.445 8.72 8.72 0 0 0 8.723-8.723 8.723 8.723 0 0 0-8.723-8.722m2.287 9.607H9.813a.885.885 0 0 1-.885-.885V5.357a.885.885 0 0 1 1.77 0v3.74h1.548a.884.884 0 1 1 0 1.768" style="mix-blend-mode:passthrough"/><circle cx="15.5" cy="15.5" r="4.5" fill="#9BB3E2"/><path fill="#EDF3FF" d="M20 15.5q0 .11-.005.22-.006.111-.017.221-.01.11-.027.22-.016.109-.037.217-.022.108-.049.215-.027.108-.059.213-.032.106-.07.21-.036.104-.079.206-.042.102-.089.202t-.1.197-.108.192-.118.187-.128.18q-.065.09-.135.175t-.145.167q-.074.082-.152.16t-.16.152-.167.145-.174.135q-.09.066-.18.128-.093.061-.188.118-.094.057-.192.109-.097.052-.197.099t-.202.09-.206.079-.21.07-.213.058-.215.049-.218.037-.219.027-.22.017T15.5 20t-.22-.005-.221-.017-.22-.027-.217-.037-.215-.049-.213-.059-.21-.07q-.104-.036-.206-.079-.102-.042-.202-.089t-.197-.1-.192-.108-.187-.118-.18-.128q-.09-.065-.175-.135t-.167-.145q-.082-.074-.16-.152t-.152-.16-.145-.167-.135-.174q-.066-.09-.128-.18-.061-.093-.118-.188-.057-.094-.109-.192-.052-.097-.099-.197t-.09-.202-.079-.206-.07-.21-.058-.213-.049-.215-.037-.218-.027-.219-.017-.22T11 15.5t.005-.22.017-.221.027-.22.037-.217.049-.215.059-.213.07-.21q.036-.104.079-.206.042-.102.089-.202t.1-.197.108-.192.118-.187.128-.18q.065-.09.135-.175t.145-.167q.074-.082.152-.16t.16-.152.167-.145.174-.135q.09-.066.18-.128.093-.061.188-.118.094-.057.192-.109.097-.052.197-.099t.202-.09.206-.079.21-.07.213-.058.215-.049.218-.037.219-.027.22-.017T15.5 11t.22.005.221.017.22.027.217.037.215.049.213.059.21.07q.104.036.206.079.102.042.202.089t.197.1.192.108.187.118.18.128q.09.065.175.135t.167.145q.082.074.16.152t.152.16.145.167.135.174q.066.09.128.18.061.093.118.188.057.094.109.192.052.097.099.197t.09.202.079.206.07.21.058.213.049.215.037.218.027.219.017.22.005.221m-1 0q0-.172-.017-.343t-.05-.34-.084-.333-.115-.323q-.066-.16-.147-.31-.081-.153-.177-.295-.095-.143-.204-.276-.11-.133-.231-.255-.122-.121-.255-.23t-.276-.205q-.142-.096-.294-.177t-.31-.147q-.16-.065-.324-.115-.165-.05-.333-.084-.169-.033-.34-.05T15.5 12t-.343.017-.34.05q-.168.034-.333.084t-.323.115q-.16.066-.31.147-.153.081-.295.177-.143.095-.276.204-.133.11-.255.231-.121.122-.23.255t-.205.276q-.096.142-.177.294t-.147.31q-.065.16-.115.324-.05.165-.084.333-.033.169-.05.34T12 15.5t.017.343.05.34.084.333.115.323.147.31q.081.153.177.295.095.143.204.276.11.133.231.255.122.121.255.23t.276.205q.142.096.294.177t.31.147q.16.065.324.115.165.05.333.084.169.033.34.05T15.5 19t.343-.017.34-.05.333-.084.323-.115.31-.147q.153-.081.295-.177.143-.095.276-.204.133-.11.255-.231.121-.122.23-.255t.205-.276q.096-.142.177-.294t.147-.31q.065-.16.115-.324.05-.165.084-.333.033-.169.05-.34T19 15.5"/><g fill="#FFF" clip-path="url(#c)"><path d="m15.5 15.235-1.062-1.062a.19.19 0 0 0-.264.002.186.186 0 0 0-.001.264l1.062 1.061-1.062 1.062a.19.19 0 0 0 .001.264.186.186 0 0 0 .264.001l1.062-1.061 1.062 1.061c.07.071.19.072.264 0a.186.186 0 0 0 0-.265l-1.06-1.062 1.06-1.061a.19.19 0 0 0 0-.264.186.186 0 0 0-.264-.002z" style="mix-blend-mode:passthrough"/><path fill-rule="evenodd" d="M16.694 14.02q-.12-.001-.203.083l-.991.99-.991-.99q-.083-.083-.202-.083t-.204.084-.084.203q0 .118.083.202l.991.991-.99.991q-.084.083-.084.202t.084.204q.085.084.203.085.119 0 .203-.084l.99-.991.992.991q.083.083.202.083t.203-.084.085-.203-.083-.203l-.992-.99.992-.992q.082-.083.082-.202t-.084-.203-.202-.085M15.5 15.376l1.132-1.133q.026-.025.061-.025t.062.026q.025.026.025.062t-.024.06L15.624 15.5l1.132 1.133q.025.025.025.06 0 .036-.026.063-.062.061-.123 0L15.5 15.625l-1.133 1.133q-.06.06-.122-.001-.062-.062-.001-.123l1.132-1.133-1.132-1.132q-.025-.025-.025-.06 0-.037.026-.063.025-.025.062-.025.036 0 .06.024z"/></g></g></svg>