<svg xmlns="http://www.w3.org/2000/svg" xmlns:xlink="http://www.w3.org/1999/xlink" fill="none" version="1.1" width="20" height="19" viewBox="0 0 20 19"><defs><clipPath id="master_svg0_98_023945"><rect x="0" y="0" width="20" height="20" rx="0"/></clipPath><linearGradient x1="0.5" y1="0" x2="1.1302149295806885" y2="1.2001758813858032" id="master_svg1_98_025632"><stop offset="0%" stop-color="#2855B3" stop-opacity="1"/><stop offset="100%" stop-color="#D4E1FA" stop-opacity="1"/></linearGradient></defs><g clip-path="url(#master_svg0_98_023945)"><g><path d="M5.8336586875,10.832683525L5.7361588875,10.838517225C5.316581687499999,10.887946125,5.0003814875,11.243536925,5.0003254875,11.666016625L5.0003254875,13.332682625L5.8336586875,13.332682625C6.2561382875,13.332738625,6.6117295875,13.648939625,6.6611590875,14.068516625L6.6669916875,14.166015625L6.6669916875,17.499348625C6.6669916875,17.959585625,6.2938961875,18.332681625,5.8336586875,18.332681625L2.5003254375,18.332681625C2.0400881175,18.332681625,1.66699199676512,17.959585625,1.6669921875,17.499348625L1.6669921875,14.166015625C1.66699199676512,13.705778625,2.0400879075000002,13.332683625,2.5003254375,13.332683625L3.3336586875,13.332683625L3.3336586875,11.666017625L3.3378254875,11.519350025C3.4154873875,10.197832125,4.5098600875,9.165941725,5.8336586875,9.166016124999999L9.166992687499999,9.166016124999999L9.166992687499999,6.666015125L6.6669916875,6.666015125C6.2445129875,6.665959325,5.8889221875,6.349759125,5.8394918875,5.930182425L5.8336586875,5.832682125L5.8336586875,2.499348875C5.8336586875,2.039111555,6.2067551875,1.66601543426512,6.6669916875,1.666015625L13.3336591875,1.666015625C13.7938961875,1.66601543426512,14.1669911875,2.039111555,14.1669911875,2.499348875L14.1669911875,5.832682125C14.1669911875,6.292919625,13.7938961875,6.666015125,13.3336591875,6.666015125L10.8336591875,6.666015125L10.8336591875,9.166016124999999L14.1669911875,9.166016124999999C15.4907891875,9.165941725,16.5851621875,10.197831125,16.6628241875,11.519349125L16.666993187499997,11.666016625L16.666993187499997,13.332682625L17.5003251875,13.332682625C17.9228061875,13.332737625,18.2783961875,13.648939625,18.3278251875,14.068516625L18.3336581875,14.166015625L18.3336581875,17.499348625C18.3336581875,17.959585625,17.9605621875,18.332681625,17.5003251875,18.332681625L14.1669921875,18.332681625C13.7067551875,18.332681625,13.3336601875,17.959585625,13.3336601875,17.499348625L13.3336601875,14.166015625C13.3336601875,13.705778625,13.7067551875,13.332683625,14.1669921875,13.332683625L15.0003251875,13.332683625L15.0003251875,11.666017625C15.0002711875,11.243538825,14.6840691875,10.887948025,14.2644921875,10.838517225L14.1669921875,10.832683525L5.8336586875,10.832683525Z" fill="url(#master_svg1_98_025632)" fill-opacity="1" style="mix-blend-mode:passthrough"/></g></g></svg>