<svg xmlns="http://www.w3.org/2000/svg" xmlns:xlink="http://www.w3.org/1999/xlink" fill="none" version="1.1" width="42" height="42" viewBox="0 0 42 42"><defs><clipPath id="master_svg0_98_034228"><rect x="7.304347991943359" y="7.304347991943359" width="27.39130401611328" height="27.39130401611328" rx="0"/></clipPath></defs><g><g><rect x="0" y="0" width="42" height="42" rx="16" fill="#4E9AEB" fill-opacity="1"/></g><g clip-path="url(#master_svg0_98_034228)"><g><path d="M25.01552174194336,25.38144974194336C25.01552174194336,25.38144974194336,24.29646174194336,25.152080741943358,23.97412574194336,24.82077174194336C23.750969741943358,24.591401741943358,23.77576474194336,24.081692741943357,23.97412574194336,23.44455774194336C24.172487741943357,22.781935741943357,26.47842974194336,20.13145064194336,26.47842974194336,17.71033434194336C26.47842974194336,13.98945924194336,24.098099741943358,10.95669174194336,21.14748274194336,10.95669174194336C18.19686554194336,10.95669174194336,15.81653404194336,13.98945924194336,15.81653404194336,17.71033434194336C15.81653404194336,20.029508541943358,17.874528441943358,22.781935741943357,18.12248044194336,23.266158741943357C18.37043094194336,23.77586974194336,18.32084224194336,24.54043274194336,18.12248044194336,24.76980274194336C17.82493924194336,25.126597741943357,16.70915844194336,25.45790774194336,16.70915844194336,25.45790774194336L12.642759341943359,27.31834174194336C11.70054513194336,27.67514074194336,10.95669174194336,28.592614741943358,10.95669174194336,29.63751974194336L10.95669174194336,30.12174074194336C10.95669174194336,31.14115874194336,11.75013518194336,31.95669174194336,12.74194014194336,31.95669174194336L22.41203474194336,31.95669174194336C22.31285474194336,31.88023774194336,22.164083741943358,31.752811741943358,22.11449374194336,31.52344174194336C22.06490174194336,31.06470274194336,22.08969874194336,29.63752174194336,22.08969874194336,28.74552874194336C22.08969874194336,28.49067474194336,22.21367374194336,28.36324674194336,22.31285474194336,28.23582074194336L25.01552174194336,25.38144974194336Z" fill="#F2F7FA" fill-opacity="1" style="mix-blend-mode:passthrough"/></g><g><path d="M23.06450549819336,28.65510220444336C22.921594374193358,28.79760070444336,22.82632064819336,29.011348204443358,22.82632064819336,29.225095304443357L22.82632064819336,31.31506730444336C22.82632064819336,31.74256230444336,23.04068734819336,31.95630930444336,23.46942078819336,31.95630930444336L25.58926864819336,31.93255900444336C25.80363534819336,31.93255900444336,26.01800174819336,31.837559704443358,26.16091324819336,31.69506120444336L29.49550584819336,28.32260560444336L26.42291614819336,25.28264570444336L23.06450549819336,28.65510220444336ZM30.68643334819336,25.40139570444336L29.37641334819336,24.09516352444336C28.90004394819336,23.62016953444336,28.11403274819336,23.62016953444336,27.61384394819336,24.09516352444336L26.89928814819336,24.80765400444336L29.97187704819336,27.87136320444336L30.68643334819336,27.15887260444336C31.16280264819336,26.66012910444336,31.16280264819336,25.87638970444336,30.68643334819336,25.40139570444336Z" fill="#F4D925" fill-opacity="1" style="mix-blend-mode:passthrough"/></g></g></g></svg>