<svg xmlns="http://www.w3.org/2000/svg" xmlns:xlink="http://www.w3.org/1999/xlink" fill="none" version="1.1" width="20" height="19" viewBox="1 1 20 19"><defs><clipPath id="master_svg0_98_051517"><rect x="0" y="0" width="20" height="20" rx="0"/></clipPath><linearGradient x1="0.5" y1="0" x2="1" y2="1.2581303119659424" id="master_svg1_98_024835"><stop offset="0%" stop-color="#2855B3" stop-opacity="1"/><stop offset="98.57142567634583%" stop-color="#D4E1FA" stop-opacity="1"/></linearGradient><clipPath id="master_svg2_98_051520"><rect x="13" y="13" width="5" height="5" rx="0"/></clipPath></defs><g clip-path="url(#master_svg0_98_051517)"><g><path d="M9.958984325,1.2578125C5.142578325000001,1.2578125,1.236328125,5.164062700000001,1.236328125,9.9804687C1.236328125,14.7968745,5.140625725,18.7031245,9.958984325,18.7031245C14.777345125,18.7031245,18.681640125,14.7988295,18.681640125,9.9804687C18.681640125,5.164062700000001,14.777345125,1.2578125,9.958984325,1.2578125ZM12.246094125,10.8652353L9.812500025,10.8652353C9.324218725,10.8652353,8.927735825,10.46875,8.927735825,9.9804687L8.927735825,5.3574224C8.927735825,4.8691411,9.324218725,4.472656300000001,9.812500025,4.472656300000001C10.300781225,4.472656300000001,10.697266625,4.8691411,10.697266625,5.3574224L10.697266625,9.0976567L12.246094125,9.0976567C12.734375125,9.0976567,13.130860125,9.4941406,13.130860125,9.9824219C13.130860125,10.4707031,12.734375125,10.8652353,12.246094125,10.8652353Z" fill="url(#master_svg1_98_024835)" fill-opacity="1" style="mix-blend-mode:passthrough"/></g><g><ellipse cx="15.5" cy="15.5" rx="4.5" ry="4.5" fill="#9BB3E2" fill-opacity="1"/><path d="M20,15.5Q20,15.6104689,19.994579299999998,15.7208047Q19.9891586,15.8311405,19.9783316,15.941077700000001Q19.9675035,16.0510139,19.9512939,16.1602874Q19.9350853,16.2695599,19.9135332,16.3779063Q19.891981100000002,16.4862523,19.86514,16.5934105Q19.8382988,16.7005692,19.806231500000003,16.8062811Q19.7741642,16.911993,19.736947999999998,17.0160041Q19.699731800000002,17.1200151,19.6574574,17.222075Q19.6151819,17.3241348,19.5679502,17.4239979Q19.5207195,17.523860499999998,19.4686451,17.621285399999998Q19.4165707,17.7187099,19.3597775,17.8134623Q19.3029861,17.9082146,19.2416124,18.0000658Q19.1802387,18.091917,19.1144323,18.1806464Q19.048626900000002,18.2693758,18.9785461,18.3547697Q18.9084654,18.4401631,18.8342791,18.5220151Q18.7600927,18.6038666,18.6819801,18.6819801Q18.6038666,18.7600927,18.5220151,18.8342795Q18.4401631,18.9084654,18.3547697,18.9785466Q18.2693758,19.048626900000002,18.1806464,19.1144333Q18.091917,19.1802387,18.0000658,19.2416124Q17.9082146,19.3029861,17.8134623,19.3597775Q17.7187099,19.4165707,17.621285,19.4686451Q17.52386,19.5207195,17.4239974,19.5679502Q17.3241348,19.6151819,17.222074499999998,19.6574574Q17.1200147,19.699731800000002,17.0160036,19.736947999999998Q16.911993,19.7741642,16.8062811,19.806231500000003Q16.7005692,19.8382988,16.5934105,19.8651409Q16.486251799999998,19.8919821,16.3779058,19.9135342Q16.2695599,19.9350853,16.1602869,19.9512939Q16.0510139,19.9675035,15.941077199999999,19.9783316Q15.8311405,19.9891586,15.7208047,19.994579299999998Q15.6104689,20,15.5,20Q15.3895311,20,15.2791958,19.994579299999998Q15.1688595,19.9891586,15.058922800000001,19.9783316Q14.948985799999999,19.9675035,14.8397129,19.9512939Q14.7304397,19.9350853,14.6220934,19.9135332Q14.513747200000001,19.891981100000002,14.406589,19.86514Q14.2994308,19.8382988,14.1937191,19.806231500000003Q14.088007000000001,19.7741642,13.9839957,19.736947999999998Q13.8799844,19.699731800000002,13.777924500000001,19.6574574Q13.6758647,19.6151819,13.5760019,19.5679502Q13.4761395,19.5207195,13.378714800000001,19.4686451Q13.2812898,19.4165707,13.1865375,19.3597775Q13.0917852,19.3029861,12.9999337,19.2416124Q12.908082199999999,19.1802387,12.819353,19.1144323Q12.7306236,19.048626900000002,12.6452301,18.9785461Q12.5598366,18.9084654,12.4779847,18.8342791Q12.396132699999999,18.7600927,12.3180194,18.6819801Q12.2399062,18.6038666,12.1657199,18.5220151Q12.0915337,18.4401631,12.021453,18.3547697Q11.95137227,18.2693758,11.88556606,18.1806464Q11.81975985,18.091917,11.75838661,18.0000658Q11.6970135,17.9082146,11.64022118,17.8134623Q11.58342886,17.7187099,11.53135425,17.621285Q11.47927961,17.52386,11.43204808,17.4239974Q11.38481662,17.3241348,11.34254205,17.222074499999998Q11.30026746,17.1200147,11.26305166,17.0160036Q11.22583586,16.911993,11.19376847,16.8062811Q11.16170108,16.7005692,11.13485935,16.5934105Q11.10801762,16.486251799999998,11.086466223,16.3779058Q11.06491483,16.2695599,11.048705697,16.1602869Q11.032496564,16.0510139,11.021668728,15.941077199999999Q11.010840893,15.8311405,11.0054204464,15.7208047Q11,15.6104689,11,15.5Q11,15.3895311,11.0054204464,15.2791958Q11.010840893,15.1688595,11.021668728,15.058922800000001Q11.032496564,14.948985799999999,11.048705697,14.8397129Q11.06491483,14.7304397,11.086466223,14.6220934Q11.10801762,14.513747200000001,11.13485935,14.406589Q11.16170108,14.2994308,11.19376847,14.1937191Q11.22583586,14.088007000000001,11.26305169,13.9839957Q11.30026746,13.8799844,11.34254205,13.777924500000001Q11.38481662,13.6758647,11.43204811,13.5760019Q11.47927964,13.4761395,11.53135431,13.378714800000001Q11.58342892,13.2812898,11.64022124,13.1865375Q11.6970135,13.0917852,11.75838667,12.9999337Q11.81975985,12.908082199999999,11.885566,12.819353Q11.95137221,12.7306236,12.0214529,12.6452301Q12.0915335,12.5598366,12.1657199,12.4779847Q12.2399062,12.396132699999999,12.3180194,12.3180194Q12.396132699999999,12.2399062,12.4779847,12.1657199Q12.5598366,12.0915337,12.6452301,12.021453Q12.7306236,11.95137227,12.8193529,11.88556606Q12.908082199999999,11.81975985,12.9999337,11.75838661Q13.091785,11.6970135,13.1865373,11.64022118Q13.281289600000001,11.58342886,13.3787146,11.53135425Q13.476139100000001,11.47927961,13.5760016,11.43204808Q13.6758642,11.38481662,13.7779243,11.34254205Q13.8799841,11.30026746,13.9839954,11.26305166Q14.088007000000001,11.22583586,14.1937191,11.19376847Q14.2994308,11.16170108,14.406589,11.13485935Q14.513747200000001,11.10801762,14.6220934,11.086466223Q14.7304397,11.06491483,14.8397129,11.048705697Q14.948986099999999,11.032496564,15.058923199999999,11.021668728Q15.168859999999999,11.010840893,15.2791958,11.0054204464Q15.3895311,11,15.5,11Q15.6104689,11,15.7208047,11.0054204464Q15.8311405,11.010840893,15.941077700000001,11.021668728Q16.0510139,11.032496564,16.1602874,11.048705697Q16.2695599,11.06491483,16.3779063,11.086466223Q16.4862523,11.10801762,16.5934105,11.13485935Q16.7005692,11.16170108,16.8062811,11.19376847Q16.911993,11.22583586,17.0160041,11.26305169Q17.1200151,11.30026746,17.222075,11.34254205Q17.3241348,11.38481662,17.4239979,11.43204811Q17.523860499999998,11.47927964,17.621285399999998,11.53135431Q17.7187099,11.58342892,17.8134623,11.64022124Q17.9082146,11.6970135,18.0000658,11.75838667Q18.091917,11.81975985,18.1806464,11.885566Q18.2693758,11.95137221,18.3547697,12.0214529Q18.4401631,12.0915335,18.5220151,12.1657199Q18.6038666,12.2399062,18.6819801,12.3180194Q18.7600927,12.396132699999999,18.8342795,12.4779847Q18.9084654,12.5598366,18.9785466,12.6452301Q19.048626900000002,12.7306236,19.1144333,12.8193529Q19.1802387,12.908082199999999,19.2416124,12.9999337Q19.3029861,13.091785,19.3597775,13.1865373Q19.4165707,13.281289600000001,19.4686451,13.3787146Q19.5207195,13.476139100000001,19.5679502,13.5760016Q19.6151819,13.6758642,19.6574574,13.7779243Q19.699731800000002,13.8799841,19.736947999999998,13.9839954Q19.7741642,14.088007000000001,19.806231500000003,14.1937191Q19.8382988,14.2994308,19.8651409,14.406589Q19.8919821,14.513747200000001,19.9135342,14.6220934Q19.9350853,14.7304397,19.9512939,14.8397129Q19.9675035,14.948986099999999,19.9783316,15.058923199999999Q19.9891586,15.168859999999999,19.994579299999998,15.2791958Q20,15.3895311,20,15.5ZM19,15.5Q19,15.3280563,18.9831467,15.156940500000001Q18.9662933,14.9858241,18.9327478,14.8171835Q18.8992033,14.6485436,18.8492908,14.4840035Q18.7993779,14.319463299999999,18.7335773,14.1606076Q18.667778,14.0017524,18.5867243,13.8501115Q18.5056701,13.6984704,18.4101429,13.5555041Q18.3146162,13.412538099999999,18.2055359,13.2796235Q18.0964561,13.146709,17.9748731,13.025126199999999Q17.8532906,12.9035435,17.720376,12.7944633Q17.5874615,12.6853832,17.4444947,12.5898561Q17.3015289,12.4943293,17.149888,12.4132755Q16.9982471,12.3322217,16.8393912,12.2664216Q16.6805363,12.2006216,16.515996,12.1507089Q16.3514557,12.1007962,16.182815599999998,12.0672514Q16.0141764,12.0337069,15.843060000000001,12.0168536Q15.6719446,12,15.5,12Q15.3280563,12,15.156940500000001,12.0168536Q14.9858241,12.0337069,14.8171835,12.0672514Q14.6485436,12.1007962,14.4840035,12.1507089Q14.319463299999999,12.2006216,14.1606076,12.2664216Q14.0017524,12.3322217,13.8501115,12.4132756Q13.6984704,12.4943293,13.5555041,12.5898561Q13.412538099999999,12.6853831,13.2796235,12.7944633Q13.146709,12.9035432,13.025126199999999,13.025126Q12.9035435,13.1467087,12.7944633,13.2796233Q12.6853832,13.4125376,12.5898561,13.5555038Q12.4943293,13.6984701,12.4132755,13.8501112Q12.3322217,14.0017524,12.2664216,14.160607800000001Q12.2006215,14.3194635,12.1507088,14.4840035Q12.1007961,14.6485438,12.0672514,14.817183700000001Q12.0337069,14.9858241,12.0168536,15.156939999999999Q12,15.3280563,12,15.5Q12,15.6719446,12.0168536,15.843060000000001Q12.0337069,16.0141764,12.0672514,16.182815599999998Q12.1007961,16.3514557,12.1507088,16.515996Q12.2006214,16.6805363,12.2664214,16.8393912Q12.3322216,16.9982471,12.4132755,17.149888Q12.4943292,17.3015289,12.589856,17.4444952Q12.6853831,17.5874615,12.7944632,17.720376Q12.9035432,17.8532906,13.025126,17.9748735Q13.1467087,18.096456500000002,13.2796233,18.2055368Q13.4125376,18.3146162,13.5555038,18.4101429Q13.6984701,18.5056701,13.8501112,18.5867243Q14.0017524,18.667778,14.160607800000001,18.733577699999998Q14.3194635,18.799378400000002,14.4840035,18.8492908Q14.6485438,18.899203800000002,14.817183700000001,18.9327478Q14.9858241,18.9662933,15.156939999999999,18.9831467Q15.3280563,19,15.5,19Q15.6719446,19,15.843060000000001,18.9831467Q16.0141764,18.9662933,16.182815599999998,18.9327478Q16.3514557,18.8992033,16.515996,18.8492908Q16.6805363,18.7993779,16.8393912,18.7335773Q16.9982471,18.667778,17.149888,18.5867243Q17.3015289,18.5056701,17.4444952,18.4101429Q17.5874615,18.3146162,17.720376,18.2055359Q17.8532906,18.0964561,17.9748735,17.9748731Q18.096456500000002,17.8532906,18.2055368,17.720376Q18.3146162,17.5874615,18.4101429,17.4444947Q18.5056701,17.3015289,18.5867243,17.149888Q18.667778,16.9982471,18.733577699999998,16.8393912Q18.799378400000002,16.6805363,18.8492908,16.515996Q18.899203800000002,16.3514557,18.9327478,16.182815599999998Q18.9662933,16.0141764,18.9831467,15.843060000000001Q19,15.6719446,19,15.5Z" fill="#EDF3FF" fill-opacity="1"/></g><g clip-path="url(#master_svg2_98_051520)"><g><path d="M15.03509758125,16.8971875C14.95603528125,16.8971875,14.87728528125,16.8668754,14.81697278125,16.8065627L13.58291015725,15.567499999999999C13.46259765525,15.4465624,13.46259765525,15.250312300000001,13.58291015725,15.129375C13.70353515125,15.00843734,13.89884770125,15.00843734,14.01916021125,15.129375L15.03509758125,16.1493752L16.97634788125,14.200312428C17.09666018125,14.07906246,17.29197268125,14.07906246,17.41259788125,14.200312428C17.532910381249998,14.32124999,17.532910381249998,14.51718745,17.41259788125,14.63812488L15.25322268125,16.8065627C15.19291018125,16.8668754,15.11384778125,16.8971875,15.03509758125,16.8971875Z" fill="#FFFFFF" fill-opacity="1" style="mix-blend-mode:passthrough"/></g></g></g></svg>