<svg xmlns="http://www.w3.org/2000/svg" width="20" height="19" fill="none" viewBox="1 1 20 19"><defs><clipPath id="a"><rect width="20" height="20" rx="0"/></clipPath><clipPath id="c"><rect width="5" height="5" x="13" y="13" rx="0"/></clipPath><linearGradient id="b" x1=".5" x2="1" y1="0" y2="1.258"><stop offset="0%" stop-color="#2855B3"/><stop offset="98.571%" stop-color="#D4E1FA"/></linearGradient></defs><g clip-path="url(#a)"><path fill="url(#b)" d="M9.959 1.258a8.723 8.723 0 0 0 0 17.445 8.72 8.72 0 0 0 8.723-8.723 8.723 8.723 0 0 0-8.723-8.722m2.287 9.607H9.813a.885.885 0 0 1-.885-.885V5.357a.885.885 0 0 1 1.77 0v3.74h1.548a.884.884 0 1 1 0 1.768" style="mix-blend-mode:passthrough"/><circle cx="15.5" cy="15.5" r="4.5" fill="#9BB3E2"/><path fill="#EDF3FF" d="M20 15.5q0 .11-.005.22-.006.111-.017.221-.01.11-.027.22-.016.109-.037.217-.022.108-.049.215-.027.108-.059.213-.032.106-.07.21-.036.104-.079.206-.042.102-.089.202t-.1.197-.108.192-.118.187-.128.18q-.065.09-.135.175t-.145.167q-.074.082-.152.16t-.16.152-.167.145-.174.135q-.09.066-.18.128-.093.061-.188.118-.094.057-.192.109-.097.052-.197.099t-.202.09-.206.079-.21.07-.213.058-.215.049-.218.037-.219.027-.22.017T15.5 20t-.22-.005-.221-.017-.22-.027-.217-.037-.215-.049-.213-.059-.21-.07q-.104-.036-.206-.079-.102-.042-.202-.089t-.197-.1-.192-.108-.187-.118-.18-.128q-.09-.065-.175-.135t-.167-.145q-.082-.074-.16-.152t-.152-.16-.145-.167-.135-.174q-.066-.09-.128-.18-.061-.093-.118-.188-.057-.094-.109-.192-.052-.097-.099-.197t-.09-.202-.079-.206-.07-.21-.058-.213-.049-.215-.037-.218-.027-.219-.017-.22T11 15.5t.005-.22.017-.221.027-.22.037-.217.049-.215.059-.213.07-.21q.036-.104.079-.206.042-.102.089-.202t.1-.197.108-.192.118-.187.128-.18q.065-.09.135-.175t.145-.167q.074-.082.152-.16t.16-.152.167-.145.174-.135q.09-.066.18-.128.093-.061.188-.118.094-.057.192-.109.097-.052.197-.099t.202-.09.206-.079.21-.07.213-.058.215-.049.218-.037.219-.027.22-.017T15.5 11t.22.005.221.017.22.027.217.037.215.049.213.059.21.07q.104.036.206.079.102.042.202.089t.197.1.192.108.187.118.18.128q.09.065.175.135t.167.145q.082.074.16.152t.152.16.145.167.135.174q.066.09.128.18.061.093.118.188.057.094.109.192.052.097.099.197t.09.202.079.206.07.21.058.213.049.215.037.218.027.219.017.22.005.221m-1 0q0-.172-.017-.343t-.05-.34-.084-.333-.115-.323q-.066-.16-.147-.31-.081-.153-.177-.295-.095-.143-.204-.276-.11-.133-.231-.255-.122-.121-.255-.23t-.276-.205q-.142-.096-.294-.177t-.31-.147q-.16-.065-.324-.115-.165-.05-.333-.084-.169-.033-.34-.05T15.5 12t-.343.017-.34.05q-.168.034-.333.084t-.323.115q-.16.066-.31.147-.153.081-.295.177-.143.095-.276.204-.133.11-.255.231-.121.122-.23.255t-.205.276q-.096.142-.177.294t-.147.31q-.065.16-.115.324-.05.165-.084.333-.033.169-.05.34T12 15.5t.017.343.05.34.084.333.115.323.147.31q.081.153.177.295.095.143.204.276.11.133.231.255.122.121.255.23t.276.205q.142.096.294.177t.31.147q.16.065.324.115.165.05.333.084.169.033.34.05T15.5 19t.343-.017.34-.05.333-.084.323-.115.31-.147q.153-.081.295-.177.143-.095.276-.204.133-.11.255-.231.121-.122.23-.255t.205-.276q.096-.142.177-.294t.147-.31q.065-.16.115-.324.05-.165.084-.333.033-.169.05-.34T19 15.5"/><g clip-path="url(#c)"><path fill="#FFF" d="M15.035 16.897a.3.3 0 0 1-.218-.09l-1.234-1.24a.31.31 0 0 1 0-.438c.12-.12.316-.12.436 0l1.016 1.02 1.941-1.949a.307.307 0 0 1 .437 0 .31.31 0 0 1 0 .438l-2.16 2.169c-.06.06-.14.09-.218.09" style="mix-blend-mode:passthrough"/></g></g></svg>