<svg xmlns="http://www.w3.org/2000/svg" width="20" height="19" fill="none"><defs><linearGradient id="b" x1=".5" x2="1.13" y1="0" y2="1.2"><stop offset="0%" stop-color="#2855B3"/><stop offset="100%" stop-color="#D4E1FA"/></linearGradient><clipPath id="a"><rect width="20" height="20" rx="0"/></clipPath></defs><g clip-path="url(#a)"><path fill="url(#b)" d="m5.834 10.833-.098.006a.833.833 0 0 0-.736.827v1.667h.834c.422 0 .778.316.827.736l.006.097v3.333c0 .46-.373.834-.833.834H2.5a.833.833 0 0 1-.833-.834v-3.333c0-.46.373-.833.833-.833h.834v-1.667l.004-.147a2.5 2.5 0 0 1 2.496-2.353h3.333v-2.5h-2.5a.833.833 0 0 1-.828-.736l-.005-.097V2.499c0-.46.373-.833.833-.833h6.667c.46 0 .833.373.833.833v3.334c0 .46-.373.833-.833.833h-2.5v2.5h3.333a2.5 2.5 0 0 1 2.496 2.353l.004.147v1.667h.833c.423 0 .778.316.828.736l.006.097v3.333c0 .46-.373.834-.834.834h-3.333a.833.833 0 0 1-.833-.834v-3.333c0-.46.373-.833.833-.833H15v-1.667a.833.833 0 0 0-.736-.827l-.097-.006z" style="mix-blend-mode:passthrough"/></g></svg>