<svg xmlns="http://www.w3.org/2000/svg" width="20" height="19" fill="none"><defs><linearGradient id="b" x1=".5" x2=".879" y1="0" y2="1.243"><stop offset="0%" stop-color="#2855B3"/><stop offset="100%" stop-color="#D4E1FA"/></linearGradient><clipPath id="a"><rect width="20" height="20" rx="0"/></clipPath></defs><g clip-path="url(#a)"><path fill="url(#b)" d="M14.943 13.275c1.567.571 2.557 1.413 2.557 2.35 0 1.725-3.357 3.125-7.5 3.125s-7.5-1.4-7.5-3.125c0-.937.99-1.777 2.558-2.35a25 25 0 0 0 2.433 2.49 3.75 3.75 0 0 0 5.017-.001q1.41-1.271 2.428-2.485zM10 1.25c3.451 0 6.25 2.5 6.25 6.25q0 3.21-4.579 7.335a2.497 2.497 0 0 1-3.343.001Q3.752 10.71 3.75 7.5c0-3.75 2.799-6.25 6.25-6.25M10 5a2.5 2.5 0 1 0 0 5 2.5 2.5 0 0 0 0-5" style="mix-blend-mode:passthrough"/></g></svg>