<svg xmlns="http://www.w3.org/2000/svg" width="20" height="19" fill="none" viewBox="0 1 20 19"><defs><linearGradient id="b" x1=".5" x2="1.071" y1="0" y2="1.346"><stop offset="0%" stop-color="#2855B3"/><stop offset="100%" stop-color="#D4E1FA"/></linearGradient><clipPath id="a"><rect width="21" height="21" rx="0"/></clipPath></defs><g clip-path="url(#a)"><path fill="url(#b)" d="M3.5 3.343c0-.884.784-1.593 1.75-1.593h10.5c.966 0 1.75.712 1.75 1.593v1.714a3.75 3.75 0 0 1-.402 1.672c-.266.523-.65.983-1.126 1.35L12.868 10.5l3.106 2.422c.476.367.858.828 1.122 1.348.264.523.402 1.093.404 1.67v1.72c0 .88-.784 1.59-1.75 1.59H5.25c-.467 0-.912-.168-1.237-.465a1.6 1.6 0 0 1-.378-.515 1.5 1.5 0 0 1-.135-.613v-1.714c0-1.164.56-2.267 1.528-3.023l3.104-2.42-3.104-2.42a4 4 0 0 1-1.124-1.351 3.7 3.7 0 0 1-.404-1.67V3.341zm6.06 9.164-1.865 1.75a.86.86 0 0 0-.256.448.82.82 0 0 0 .053.504c.07.161.192.298.345.394a.97.97 0 0 0 .516.147h3.734c.184 0 .364-.05.518-.147a.9.9 0 0 0 .345-.392c.07-.16.09-.337.053-.507a.86.86 0 0 0-.256-.448l-1.867-1.75a.93.93 0 0 0-.66-.256.98.98 0 0 0-.66.256z" style="mix-blend-mode:passthrough"/></g></svg>