<svg xmlns="http://www.w3.org/2000/svg" xmlns:xlink="http://www.w3.org/1999/xlink" fill="none" version="1.1" width="20" height="19" viewBox="-2 -2 20 19"><defs><clipPath id="master_svg0_98_023941"><rect x="0" y="0" width="16" height="16" rx="0"/></clipPath><linearGradient x1="0.5" y1="0" x2="1.2475874270928313" y2="1.2409768008191897" id="master_svg1_98_025253"><stop offset="0%" stop-color="#2855B3" stop-opacity="1"/><stop offset="100%" stop-color="#D4E1FA" stop-opacity="1"/></linearGradient></defs><g clip-path="url(#master_svg0_98_023941)"><g><path d="M10.98667,14.524923L10.98667,1.2281875C10.98667,0.7307031500000001,10.489171,0.359375,9.9916868,0.359375L2.038873,0.359375C1.6651545,0.359375,1.4176387,0.48314065,1.2938262,0.7331093799999999C1.0463107,0.98060942,1.0463107,1.23057818,1.0463107,1.4781719L1.0463107,14.648673L0.42498261,14.648673C0.17749822,14.648673,0.051263828,14.772439,0.051263828,15.022424C-0.072501808,15.269923,0.051263828,15.39619,0.17509197,15.519908C0.2988576,15.643657,0.42259195,15.643657,0.67257637,15.643657L15.58314,15.643657C15.830734,15.643657,15.956891,15.519908,15.956891,15.269923C16.080641,15.022424,15.833125,14.648673,15.58314,14.648673L15.085656,14.648673L15.085656,6.324563C15.085656,5.8270783,14.838078,5.5794849,14.34058,5.5794849L12.103063,5.5794849L12.103063,14.401143L11.979297,14.524924L10.98667,14.524923ZM4.0289049,6.572125L4.0289049,5.5770783L8.0040617,5.5770783L8.0040617,6.572125L4.0289049,6.572125ZM4.0289049,11.916001L4.0289049,10.921018L8.0040617,10.921018L8.0040617,11.916001L4.0289049,11.916001ZM4.0289049,2.968219L8.0040617,2.968219L8.0040617,3.9632657L4.2764049,3.9632657C4.1526551,3.9632657,4.1526551,3.9632657,4.1526551,3.8394377C4.0289054,3.4657035,4.0289054,3.2182035,4.0289049,2.968219ZM4.0289049,8.3121567L8.0040617,8.3121567L8.0040617,9.3071413L4.0289054,9.3071413L4.0289049,8.3121567Z" fill="url(#master_svg1_98_025253)" fill-opacity="1" style="mix-blend-mode:passthrough"/></g></g></svg>