<svg xmlns="http://www.w3.org/2000/svg" xmlns:xlink="http://www.w3.org/1999/xlink" fill="none" version="1.1" width="20" height="19" viewBox="0 0 20 19"><defs><clipPath id="master_svg0_98_024747"><rect x="0" y="0" width="20" height="20" rx="0"/></clipPath><linearGradient x1="0.5" y1="0" x2="0.8786026015758311" y2="1.2433793432668239" id="master_svg1_98_025105"><stop offset="0%" stop-color="#2855B3" stop-opacity="1"/><stop offset="100%" stop-color="#D4E1FA" stop-opacity="1"/></linearGradient></defs><g clip-path="url(#master_svg0_98_024747)"><g><path d="M14.942501,13.275001C16.510001000000003,13.84625,17.500000999999997,14.687501,17.500000999999997,15.625001C17.500000999999997,17.35,14.142501,18.75,10.000000499999999,18.75C5.857499799999999,18.75,2.5,17.35,2.5,15.625001C2.5,14.687501,3.49000019,13.847501,5.0575001,13.275001C5.7375,14.086251,6.5487504,14.916251,7.49125,15.765C8.9171209,17.048735,11.0822678,17.048195,12.507501,15.76375C13.447499,14.91625,14.2575,14.08875,14.936251,13.278749L14.942501,13.275001ZM10.000000499999999,1.25C13.45125,1.25,16.250000999999997,3.75,16.250000999999997,7.5C16.250000999999997,9.6400003,14.72375,12.085,11.6712503,14.835001C10.7214127,15.69155,9.277976500000001,15.69209,8.3275003,14.83625C5.2775002,12.085,3.75,9.6400003,3.75,7.5C3.75,3.75,6.5487504,1.25,10.000000499999999,1.25ZM10.000000499999999,5.000000200000001C8.619288000000001,5.000000200000001,7.5,6.119288,7.5,7.5C7.5,8.8807125,8.619288000000001,10,10.000000499999999,10C11.3807116,10,12.5,8.8807125,12.5,7.5C12.5,6.119288,11.3807116,5.000000200000001,10.000000499999999,5.000000200000001Z" fill="url(#master_svg1_98_025105)" fill-opacity="1" style="mix-blend-mode:passthrough"/></g></g></svg>