<svg xmlns="http://www.w3.org/2000/svg" xmlns:xlink="http://www.w3.org/1999/xlink" fill="none" version="1.1" width="20" height="19" viewBox="0 1 20 19"><defs><clipPath id="master_svg0_98_023933"><rect x="0" y="0" width="21" height="21" rx="0"/></clipPath><linearGradient x1="0.5" y1="0" x2="1.0708062123336957" y2="1.345703594813377" id="master_svg1_98_025041"><stop offset="0%" stop-color="#2855B3" stop-opacity="1"/><stop offset="100%" stop-color="#D4E1FA" stop-opacity="1"/></linearGradient></defs><g clip-path="url(#master_svg0_98_023933)"><g><path d="M3.5,3.3425001C3.5,2.45875001,4.2840000400000005,1.75,5.2500001,1.75L15.750001,1.75C16.716001,1.75,17.500000999999997,2.46224993,17.500000999999997,3.3425000000000002L17.500000999999997,5.0574999C17.498252,5.635,17.360002,6.2072496,17.097502,6.7287498C16.831501,7.2520003,16.448252,7.7122502,15.972251,8.0797501L12.8677511,10.5L15.974,12.922C16.450001,13.2895,16.831501,13.74975,17.095750000000002,14.2695C17.36,14.79275,17.498251,15.36325,17.500000999999997,15.940749L17.500000999999997,17.65925C17.500000999999997,18.539499,16.716002,19.25,15.750001,19.25L5.2500001,19.25C4.78275,19.25,4.33825004,19.081999,4.01275021,18.7845C3.85283732,18.640705,3.72417682,18.465582,3.63475035,18.269999C3.54671295,18.077763,3.50077024463,17.868935,3.50000040054323,17.657499L3.50000040054323,15.9425C3.50000040054323,14.778752,4.0600003000000005,13.676251,5.0277504,12.920252L8.1322498,10.5L5.0277504,8.0797501C4.5571836999999995,7.7188392,4.17331076,7.2572341,3.90425023,6.7287498C3.64136332,6.2113104,3.5029379844,5.6396327,3.5,5.0592501L3.5,3.3407502L3.5,3.3425001ZM9.5602503,12.507251L7.6947508,14.257251C7.5657201,14.376899,7.4765350999999995,14.533278,7.4392509,14.705251C7.4033942,14.874596,7.4217625,15.05093,7.4917507,15.20925C7.5617504,15.370252,7.6842513,15.50675,7.8365006,15.603001C7.9887505,15.699251,8.1690001,15.75,8.3527503,15.75L12.0872507,15.75C12.2710009,15.75,12.4512501,15.699249,12.6052513,15.603001C12.7568054,15.509778,12.8769007,15.373222,12.9499998,15.210999C13.0207348,15.051646,13.0391169,14.873962,13.0025005,14.703502C12.9652166,14.531528,12.8760309,14.375151,12.7469997,14.255502L10.879750699999999,12.505502C10.7021279,12.336673,10.4650044,12.244842,10.220000299999999,12.25C9.975909699999999,12.249874,9.740589100000001,12.341006,9.5602503,12.505501L9.5602503,12.507251Z" fill="url(#master_svg1_98_025041)" fill-opacity="1" style="mix-blend-mode:passthrough"/></g></g></svg>