<svg xmlns="http://www.w3.org/2000/svg" xmlns:xlink="http://www.w3.org/1999/xlink" fill="none" version="1.1" width="20" height="19" viewBox="0 0 20 19"><defs><clipPath id="master_svg0_98_025258"><rect x="0" y="0" width="20" height="20" rx="0"/></clipPath><linearGradient x1="0.5" y1="0" x2="0.5" y2="1" id="master_svg1_98_024955"><stop offset="0%" stop-color="#2855B3" stop-opacity="1"/><stop offset="100%" stop-color="#D4E1FA" stop-opacity="1"/></linearGradient><linearGradient x1="0.5" y1="0" x2="1.0637557056579339" y2="1.1225774518722995" id="master_svg2_98_025447"><stop offset="0%" stop-color="#2855B3" stop-opacity="1"/><stop offset="100%" stop-color="#D4E1FA" stop-opacity="1"/></linearGradient></defs><g clip-path="url(#master_svg0_98_025258)"><g><path d="M10.000001874999999,11.998046825C12.257814875000001,11.998046825,14.089845675,9.460937525,14.089845675,7.439453325C14.089845675,7.343749925,14.082033175,7.250000025,14.074221575,7.156250125L13.433595675,6.587890745C13.375001874999999,6.539062615,12.273438975000001,5.619140625,10.121095675,5.619140625L10.011720675,5.6210937499C7.769532675,5.654296875,6.707032745,6.550781195,6.664064105,6.589843695L5.923829652,7.226562425C5.9179702769,7.296875025,5.9121109008788,7.367187625,5.9121109008788,7.439453325C5.9101577756,9.460937525,7.742189275,11.998046825,10.000001874999999,11.998046825Z" fill="url(#master_svg1_98_024955)" fill-opacity="1" style="mix-blend-mode:passthrough"/></g><g><path d="M17.95502578125,15.3067503125C17.03510078125,11.2481565125,13.76166378125,10.9844847125,13.76166378125,10.9844847125L10.15424158125,15.0430783125C9.99994518125,15.2774533125,9.61908578125,15.2696403125,9.478460281250001,15.0294063125L6.24017908125,10.9844847125C6.24017908125,10.9844847125,2.96674120125,11.2481565125,2.04681930725,15.3067503125C1.88275678125,16.0333123125,2.25189744125,17.1426873125,2.98041320125,17.5001103125C4.0683035812499995,18.0333133125,6.14252238125,18.6114383125,10.00189878125,18.5821423125C13.86127278125,18.6114383125,15.93549278125,18.0333133125,17.02338278125,17.5001103125C17.74994778125,17.1426873125,18.11908578125,16.0333123125,17.95502578125,15.3067503125ZM14.08978978125,6.1114368125L14.08978978125,2.5977648125C14.08978978125,2.5977648125,9.99994518125,-0.05457898750000001,5.91010068125,2.5977648125L5.91010068125,6.1114368125C5.91010068125,6.1114368125,7.21088268125,5.027452712500001,9.94916298125,4.9903436125C12.68744578125,4.9532339125,14.08978978125,6.1114368125,14.08978978125,6.1114368125ZM9.59760048125,4.1270623125L9.59760048125,3.5567498125L9.03705498125,3.5567498125C8.82611658125,3.5567498125,8.65424208125,3.3887808125000003,8.65424208125,3.1797964125C8.65424208125,2.9708118125,8.82611658125,2.8028431124999997,9.03705498125,2.8028431124999997L9.59760048125,2.8028431124999997L9.59760048125,2.2325305925C9.59760048125,2.0235461624999997,9.76947688125,1.8555774425,9.98041388125,1.8555774425C10.19135098125,1.8555774425,10.36322688125,2.0235461624999997,10.36322688125,2.2325305925L10.36322688125,2.8028431124999997L10.96283528125,2.8028431124999997C11.17377378125,2.8028431124999997,11.34564778125,2.9708118125,11.34564778125,3.1797964125C11.34564778125,3.3887808125000003,11.17377378125,3.5567498125,10.96283528125,3.5567498125L10.36322688125,3.5567498125L10.36322688125,4.1270623125C10.36322688125,4.3360467125,10.19135098125,4.5040150125,9.98041388125,4.5040150125C9.76947688125,4.5040150125,9.59760048125,4.3340936125,9.59760048125,4.1270623125Z" fill="url(#master_svg2_98_025447)" fill-opacity="1" style="mix-blend-mode:passthrough"/></g><g><path d="M14.9257218875,13.9990234375C14.7115733875,13.9990234375,14.5077379875,14.1677427875,14.3336587875,14.2656901175C14.1597276875,14.1676165575,13.9555961875,13.9990234375,13.7415955875,13.9990234375C13.1490128675,13.9990234375,12.6669921875,14.4088623475,12.6669921875,14.9131145475C12.6669921875,15.3079332375,12.9327862275,15.7157527375,13.4571024175,16.1243291375C13.8275221875,16.4132487375,14.1943802875,16.5963952375,14.2098143875,16.6040947375L14.3337330875,16.6656901375L14.4575030875,16.6040947375C14.4729373875,16.5963952375,14.8397955875,16.4132487375,15.2102150875,16.1243291375C15.7345316875,15.7156264375,16.0003254875,15.3079332375,16.0003254875,14.9131145475C16.0003254875,14.4089886575,15.5181562875,13.9990234375,14.9257218875,13.9990234375Z" fill="#FFFFFF" fill-opacity="1" style="mix-blend-mode:passthrough"/></g></g></svg>