<svg xmlns="http://www.w3.org/2000/svg" width="20" height="19" fill="none" viewBox="-2 -2 20 19"><defs><linearGradient id="b" x1=".5" x2="1.248" y1="0" y2="1.241"><stop offset="0%" stop-color="#2855B3"/><stop offset="100%" stop-color="#D4E1FA"/></linearGradient><clipPath id="a"><rect width="16" height="16" rx="0"/></clipPath></defs><g clip-path="url(#a)"><path fill="url(#b)" d="M10.987 14.525V1.228c0-.497-.498-.869-.995-.869H2.039q-.56 0-.745.374c-.248.248-.248.498-.248.745v13.17H.425q-.373 0-.374.374c-.124.248 0 .374.124.498s.248.124.498.124h14.91q.373 0 .374-.374c.124-.248-.124-.621-.374-.621h-.497V6.325q0-.747-.745-.746h-2.238v8.822l-.124.124zM4.029 6.572v-.995h3.975v.995zm0 5.344v-.995h3.975v.995zm0-8.948h3.975v.995H4.276c-.123 0-.123 0-.123-.124-.124-.373-.124-.62-.124-.87m0 5.344h3.975v.995H4.03z" style="mix-blend-mode:passthrough"/></g></svg>