<svg xmlns="http://www.w3.org/2000/svg" width="20" height="19" fill="none"><defs><linearGradient id="b" x1=".5" x2=".5" y1="0" y2="1"><stop offset="0%" stop-color="#2855B3"/><stop offset="100%" stop-color="#D4E1FA"/></linearGradient><linearGradient id="c" x1=".5" x2="1.064" y1="0" y2="1.123"><stop offset="0%" stop-color="#2855B3"/><stop offset="100%" stop-color="#D4E1FA"/></linearGradient><clipPath id="a"><rect width="20" height="20" rx="0"/></clipPath></defs><g clip-path="url(#a)"><path fill="url(#b)" d="M10 11.998c2.258 0 4.09-2.537 4.09-4.559q-.002-.142-.016-.283l-.64-.568c-.059-.049-1.16-.969-3.313-.969l-.11.002c-2.241.033-3.304.93-3.347.969l-.74.637q-.01.104-.012.212C5.91 9.461 7.742 11.998 10 11.998" style="mix-blend-mode:passthrough"/><path fill="url(#c)" d="M17.955 15.307c-.92-4.059-4.193-4.323-4.193-4.323l-3.608 4.06c-.154.233-.535.226-.676-.015L6.24 10.984s-3.273.264-4.193 4.323c-.164.726.205 1.836.933 2.193 1.088.533 3.163 1.111 7.022 1.082 3.86.03 5.933-.549 7.021-1.082.727-.357 1.096-1.467.932-2.193M14.09 6.11V2.598s-4.09-2.653-8.18 0V6.11s1.3-1.084 4.04-1.12c2.737-.038 4.14 1.12 4.14 1.12M9.598 4.127v-.57h-.56a.38.38 0 0 1-.384-.377.38.38 0 0 1 .383-.377h.56v-.57a.38.38 0 0 1 .383-.377.38.38 0 0 1 .383.377v.57h.6a.38.38 0 0 1 .383.377.38.38 0 0 1-.383.377h-.6v.57a.38.38 0 0 1-.383.377.38.38 0 0 1-.382-.377" style="mix-blend-mode:passthrough"/><path fill="#FFF" d="M14.926 13.999c-.214 0-.418.169-.592.267-.174-.098-.378-.267-.592-.267-.593 0-1.075.41-1.075.914 0 .395.266.803.79 1.211.37.29.737.472.753.48l.124.062.124-.062c.015-.008.382-.19.752-.48.525-.408.79-.816.79-1.21 0-.505-.482-.915-1.074-.915" style="mix-blend-mode:passthrough"/></g></svg>