<svg xmlns="http://www.w3.org/2000/svg" width="20" height="19" fill="none" viewBox="-2 -1 20 19"><defs><linearGradient id="b" x1=".5" x2="1" y1="0" y2="1.238"><stop offset="0%" stop-color="#2855B3"/><stop offset="100%" stop-color="#D4E1FA"/></linearGradient><clipPath id="a"><rect width="16" height="16" rx="0"/></clipPath></defs><g clip-path="url(#a)"><path fill="url(#b)" d="M7.731.537a7.731 7.731 0 1 0 7.732 7.731V.538zm3.762 9.347a4.322 4.322 0 0 1-7.573 0 .75.75 0 0 1-.054-.587.73.73 0 0 1 .386-.456.773.773 0 0 1 1.04.301 2.791 2.791 0 0 0 4.89 0 .77.77 0 0 1 .46-.367.773.773 0 0 1 .882 1.11z" style="mix-blend-mode:passthrough"/></g></svg>