<svg xmlns="http://www.w3.org/2000/svg" width="42" height="42" fill="none"><defs><clipPath id="a"><rect width="27.391" height="27.391" x="7.304" y="7.304" rx="0"/></clipPath></defs><rect width="42" height="42" fill="#4E9AEB" rx="16"/><g clip-path="url(#a)"><path fill="#F2F7FA" d="M25.016 25.381s-.72-.229-1.042-.56c-.223-.23-.198-.74 0-1.376.198-.663 2.504-3.314 2.504-5.735 0-3.72-2.38-6.753-5.33-6.753s-5.331 3.032-5.331 6.753c0 2.32 2.058 5.072 2.305 5.556.248.51.199 1.274 0 1.504-.297.357-1.413.688-1.413.688l-4.066 1.86c-.942.357-1.686 1.275-1.686 2.32v.484c0 1.02.793 1.835 1.785 1.835h9.67a.73.73 0 0 1-.298-.434c-.05-.458-.024-1.885-.024-2.777 0-.255.124-.383.223-.51z" style="mix-blend-mode:passthrough"/><path fill="#F4D925" d="M23.065 28.655a.83.83 0 0 0-.239.57v2.09q0 .642.643.641l2.12-.023a.83.83 0 0 0 .572-.238l3.335-3.372-3.073-3.04zm7.621-3.254-1.31-1.306c-.476-.475-1.262-.475-1.762 0l-.715.713 3.073 3.063.714-.712c.477-.499.477-1.283 0-1.758" style="mix-blend-mode:passthrough"/></g></svg>