<svg xmlns="http://www.w3.org/2000/svg" xmlns:xlink="http://www.w3.org/1999/xlink" fill="none" version="1.1" width="42" height="42" viewBox="0 0 42 42"><defs><clipPath id="master_svg0_98_034187"><rect x="7.304347991943359" y="7.304347991943359" width="27.39130401611328" height="27.39130401611328" rx="0"/></clipPath></defs><g><g><rect x="0" y="0" width="42" height="42" rx="16" fill="#5CCB76" fill-opacity="1"/></g><g clip-path="url(#master_svg0_98_034187)"><g style="opacity:0.009999999776482582;"><path d="M7.304347991943359,7.304347991943359L34.695651991943365,7.304347991943359L34.695651991943365,34.695651991943365L7.304347991943359,34.695651991943365L7.304347991943359,7.304347991943359Z" fill="#202425" fill-opacity="1" style="mix-blend-mode:passthrough"/></g><g><path d="M8.81075333444336,10.93008612944336C8.13510125444336,9.712999129443359,9.016188084443359,8.21743392944336,10.40857895444336,8.21743392944336L31.593010054443358,8.21743392944336C32.98540105444336,8.21743392944336,33.86557605444336,9.712999129443359,33.18900905444336,10.93008612944336L21.79788105444336,31.43338792944336C21.636806054443362,31.72310292944336,21.33136205444336,31.90275792944336,20.99988205444336,31.90275792944336C20.66840005444336,31.90275792944336,20.36295605444336,31.72310292944336,20.201881054443362,31.43338792944336L8.81075333444336,10.929172729443358L8.81075333444336,10.93008612944336Z" fill="#FFAA44" fill-opacity="1" style="mix-blend-mode:passthrough"/></g><g><path d="M14.028096765193359,9.381564629443359C13.861191463193359,8.79803686944336,14.29951614319336,8.21709668953336,14.90644455319336,8.217434125361219L27.093747273193358,8.217434125361219C27.70067527319336,8.21709734256336,28.13900027319336,8.798037289443359,27.97209327319336,9.381564329443359L21.87753057319336,30.71025892944336C21.62553067319336,31.59316992944336,20.37466047319336,31.59316992944336,20.12266107319336,30.71025892944336L14.028096765193359,9.381564629443359Z" fill="#F5FFF7" fill-opacity="1" style="mix-blend-mode:passthrough"/></g><g><path d="M31.770122366943358,22.826297679443357Q31.770122366943358,23.09526467944336,31.756923366943358,23.36390867944336Q31.743724366943358,23.63255167944336,31.71736336694336,23.90022467944336Q31.69100036694336,24.16789667944336,31.65153536694336,24.433952679443358Q31.612068366943358,24.700008679443357,31.55959536694336,24.96380767944336Q31.50712236694336,25.22760767944336,31.44176836694336,25.48851467944336Q31.37641536694336,25.74942167944336,31.29833836694336,26.00680767944336Q31.22026036694336,26.26419267944336,31.12964836694336,26.51743667944336Q31.03903536694336,26.77068167944336,30.93610536694336,27.01917467944336Q30.83317736694336,27.26766767944336,30.718177366943358,27.51081267944336Q30.60318036694336,27.753955679443358,30.47639036694336,27.991164679443358Q30.349598366943358,28.22837467944336,30.21132236694336,28.45907567944336Q30.07304336694336,28.68977767944336,29.923614366943358,28.91341367944336Q29.77418536694336,29.13705267944336,29.61396036694336,29.35308867944336Q29.453737366943358,29.56912567944336,29.28310736694336,29.77704067944336Q29.11247636694336,29.98495467944336,28.931846366943358,30.18424567944336Q28.75122036694336,30.38353767944336,28.56103136694336,30.57372667944336Q28.37084236694336,30.76391567944336,28.17155036694336,30.944541679443358Q27.97225936694336,31.12517167944336,27.76434536694336,31.29580267944336Q27.55643036694336,31.466432679443358,27.34039336694336,31.62665567944336Q27.12435536694336,31.78688067944336,26.90071636694336,31.936309679443358Q26.67707836694336,32.08573867944336,26.44637836694336,32.224017679443364Q26.21567736694336,32.362293679443354,25.978469366943358,32.48908567944336Q25.741260366943358,32.61587567944336,25.49811736694336,32.73087467944336Q25.254974366943358,32.84587267944336,25.006480366943357,32.94880067944336Q24.75798736694336,33.05173067944336,24.50474236694336,33.14234367944336Q24.25149736694336,33.232955679443364,23.99411236694336,33.31103467944336Q23.73672636694336,33.38911067944336,23.47581936694336,33.454463679443364Q23.21491236694336,33.51981967944336,22.95111236694336,33.57229267944336Q22.687313366943357,33.62476767944336,22.421257366943358,33.664230679443364Q22.15520136694336,33.70369767944336,21.88752936694336,33.730060679443355Q21.61985636694336,33.75642167944336,21.35121336694336,33.76962067944336Q21.08256936694336,33.782817679443355,20.813602366943357,33.782817679443355Q20.54463336694336,33.782817679443355,20.27599136694336,33.769618679443354Q20.007347366943357,33.756419679443354,19.73967556694336,33.73005867944336Q19.472002966943357,33.703695679443356,19.20594596694336,33.664230679443364Q18.93988986694336,33.62476367944336,18.676090266943362,33.572290679443356Q18.41229156694336,33.51981767944336,18.151385266943358,33.454463679443364Q17.89047816694336,33.38911067944336,17.63309196694336,33.311033679443355Q17.37570616694336,33.232955679443364,17.12246176694336,33.14234367944336Q16.86921696694336,33.05173067944336,16.620723266943358,32.94880067944336Q16.37222956694336,32.84587267944336,16.12908556694336,32.73087267944336Q15.88594196694336,32.61587567944336,15.648734066943359,32.48908567944336Q15.41152576694336,32.362293679443354,15.18082426694336,32.224017679443364Q14.95012326694336,32.08573867944336,14.72648526694336,31.936309679443358Q14.50284676694336,31.78688067944336,14.28681036694336,31.62665567944336Q14.070773566943359,31.466432679443358,13.86285926694336,31.29580267944336Q13.654944466943359,31.12517167944336,13.45565296694336,30.944541679443358Q13.25636126694336,30.76391567944336,13.06617256694336,30.57372667944336Q12.875983666943359,30.38353767944336,12.69535636694336,30.18424567944336Q12.51472906694336,29.98495467944336,12.34409786694336,29.77704067944336Q12.173466666943359,29.56912567944336,12.01324296694336,29.35308867944336Q11.853019166943358,29.13705067944336,11.703588766943358,28.91341167944336Q11.55415846694336,28.68977367944336,11.41588166694336,28.45907367944336Q11.27760456694336,28.22837267944336,11.15081426694336,27.991164679443358Q11.02402386694336,27.753955679443358,10.909025466943358,27.51081267944336Q10.794027086943359,27.267669679443358,10.69109767694336,27.019175679443357Q10.58816826694336,26.77068267944336,10.49755590694336,26.51743767944336Q10.40694349694336,26.26419267944336,10.32886639694336,26.00680767944336Q10.25078922694336,25.74942167944336,10.18543547694336,25.48851467944336Q10.12008172694336,25.22760767944336,10.06760878694336,24.96380767944336Q10.01513585694336,24.700008679443357,9.975670136943359,24.433952679443358Q9.93620441894336,24.16789667944336,9.90984100094336,23.90022467944336Q9.88347757994336,23.63255167944336,9.87027997294336,23.36390867944336Q9.85708236694336,23.09526467944336,9.85708236694336,22.826297679443357Q9.85708236694336,22.55732867944336,9.87027997294336,22.28868667944336Q9.88347757994336,22.020042679443357,9.90984100094336,21.75237087944336Q9.93620441894336,21.484698279443357,9.97567012694336,21.21864127944336Q10.01513585694336,20.95258517944336,10.06760878694336,20.688785579443362Q10.12008172694336,20.42498687944336,10.18543547694336,20.164080579443358Q10.25078922694336,19.90317347944336,10.32886639694336,19.64578727944336Q10.40694349694336,19.38840147944336,10.49755590694336,19.13515707944336Q10.58816826694336,18.88191227944336,10.69109767694336,18.633418579443358Q10.794027086943359,18.38492487944336,10.909025466943358,18.14178087944336Q11.02402386694336,17.89863727944336,11.15081426694336,17.66142937944336Q11.27760456694336,17.42422107944336,11.41588146694336,17.19351957944336Q11.55415846694336,16.962818579443358,11.703588766943358,16.73918057944336Q11.853019166943358,16.51554207944336,12.01324276694336,16.29950567944336Q12.173466666943359,16.08346887944336,12.34409756694336,15.87555457944336Q12.51472876694336,15.667639779443359,12.69535636694336,15.46834827944336Q12.875983666943359,15.26905657944336,13.06617256694336,15.07886787944336Q13.25636126694336,14.888678979443359,13.45565266694336,14.70805167944336Q13.654944466943359,14.52742437944336,13.86285926694336,14.35679317944336Q14.070773566943359,14.186161979443359,14.28681036694336,14.02593827944336Q14.50284676694336,13.865714479443358,14.72648526694336,13.716284079443358Q14.95012326694336,13.56685377944336,15.18082426694336,13.42857697944336Q15.41152576694336,13.29029987944336,15.648734066943359,13.16350957944336Q15.88594146694336,13.03671917944336,16.12908556694336,12.921720779443358Q16.37222906694336,12.806722399443359,16.62072276694336,12.70379298944336Q16.86921646694336,12.60086357944336,17.12246136694336,12.51025121944336Q17.37570616694336,12.41963880944336,17.63309236694336,12.34156170944336Q17.89047816694336,12.26348453944336,18.15138436694336,12.19813078944336Q18.41229246694336,12.13277703944336,18.67609116694336,12.08030409944336Q18.93988986694336,12.02783116944336,19.20594696694336,11.988365449443359Q19.472002966943357,11.94889973144336,19.73967556694336,11.92253631344336Q20.007347366943357,11.89617289244336,20.27599136694336,11.88297528544336Q20.54463336694336,11.86977767944336,20.813602366943357,11.86977767944336Q21.08256936694336,11.86977767944336,21.35121336694336,11.88297528544336Q21.61985636694336,11.89617289244336,21.88752936694336,11.92253631344336Q22.15520136694336,11.94889973144336,22.421257366943358,11.98836543944336Q22.687313366943357,12.02783116944336,22.95111236694336,12.08030409944336Q23.21491236694336,12.13277703944336,23.47581936694336,12.19813078944336Q23.73672636694336,12.26348453944336,23.99411236694336,12.34156170944336Q24.25149736694336,12.41963880944336,24.50474136694336,12.51025121944336Q24.75798636694336,12.60086357944336,25.00647936694336,12.70379298944336Q25.25497236694336,12.806722399443359,25.49811736694336,12.921720779443358Q25.741260366943358,13.03671917944336,25.978469366943358,13.16350957944336Q26.21567936694336,13.29029987944336,26.44638036694336,13.42857677944336Q26.67708236694336,13.56685377944336,26.90071836694336,13.716284079443358Q27.12435736694336,13.865714479443358,27.34039336694336,14.02593807944336Q27.55643036694336,14.186161979443359,27.76434536694336,14.35679287944336Q27.97225936694336,14.52742407944336,28.17155036694336,14.70805167944336Q28.37084236694336,14.888678979443359,28.56103136694336,15.07886787944336Q28.75122036694336,15.26905657944336,28.931846366943358,15.46834797944336Q29.11247636694336,15.667639779443359,29.28310736694336,15.87555457944336Q29.453737366943358,16.08346887944336,29.61396036694336,16.29950567944336Q29.77418536694336,16.51554207944336,29.923614366943358,16.73918057944336Q30.07304336694336,16.962818579443358,30.21132236694336,17.19351957944336Q30.349598366943358,17.42422107944336,30.47639036694336,17.66142937944336Q30.60318036694336,17.898636779443358,30.71817936694336,18.14178087944336Q30.83317736694336,18.38492437944336,30.93610536694336,18.63341807944336Q31.03903536694336,18.88191177944336,31.12964836694336,19.13515667944336Q31.22026036694336,19.38840147944336,31.29833936694336,19.64578767944336Q31.37641536694336,19.90317347944336,31.44176836694336,20.16407967944336Q31.50712436694336,20.42498777944336,31.559597366943358,20.68878647944336Q31.61207236694336,20.95258517944336,31.65153536694336,21.21864227944336Q31.69100236694336,21.484698279443357,31.71736536694336,21.75237087944336Q31.74372636694336,22.020042679443357,31.75692536694336,22.28868667944336Q31.770122366943358,22.55732867944336,31.770122366943358,22.826297679443357Z" fill="#F5FFF7" fill-opacity="1" style="mix-blend-mode:passthrough"/></g><g><path d="M20.58783916694336,17.299124064443358C20.66371776694336,17.14059358444336,20.823865866943358,17.03969955444336,20.999621866943357,17.03969955444336C21.17537596694336,17.03969955444336,21.33552356694336,17.14059358444336,21.41140456694336,17.299124064443358L22.73440356694336,20.06929705444336C22.80106066694336,20.208654654443357,22.933671966943358,20.30484985444336,23.08683776694336,20.32494975444336L26.130922866943358,20.72668885444336C26.30524586694336,20.74974535444336,26.45082986694336,20.87087175444336,26.50520486694336,21.03809385444336C26.55958286694336,21.20531515444336,26.51308486694336,21.38890315444336,26.38566286694336,21.51007985444336L24.15875056694336,23.62377595444336C24.04637336694336,23.73012305444336,23.995509166943357,23.88615225444336,24.023620566943357,24.03829715444336L24.58331676694336,27.05681855444336C24.61510466694336,27.22971855444336,24.54479026694336,27.40550755444336,24.402532566943357,27.508790554443358C24.26027396694336,27.61207155444336,24.071351066943357,27.62449555444336,23.91679476694336,27.54073255444336L21.21875046694336,26.07712555444336C21.08269306694336,26.003084154443357,20.91837266694336,26.003084154443357,20.78231576694336,26.07712555444336L18.08427186694336,27.54073255444336C17.92971396694336,27.62449555444336,17.74079106694336,27.61207355444336,17.59853456694336,27.508790554443358C17.45627736694336,27.40550755444336,17.385963066943358,27.22971855444336,17.41774986694336,27.05681855444336L17.97653296694336,24.03829715444336C18.00487136694336,23.88631105444336,17.95435906694336,23.73030805444336,17.84231496694336,23.62377595444336L15.61631502694336,21.51007985444336C15.48893915094336,21.389028054443358,15.44234831994336,21.20561265444336,15.49651150794336,21.038446854443357C15.550674698943359,20.871280154443358,15.695976256943359,20.75004005444336,15.87014096694336,20.72668885444336L18.914227966943358,20.32494975444336C19.067394066943358,20.30484985444336,19.20000456694336,20.208654654443357,19.26666286694336,20.06929705444336L20.58874986694336,17.299122984443358L20.58783916694336,17.299124064443358Z" fill="#5CCB76" fill-opacity="1" style="mix-blend-mode:passthrough"/></g></g></g></svg>