<svg xmlns="http://www.w3.org/2000/svg" width="42" height="42" fill="none"><defs><clipPath id="a"><rect width="27.391" height="27.391" x="7.304" y="7.304" rx="0"/></clipPath></defs><rect width="42" height="42" fill="#5CCB76" rx="16"/><g clip-path="url(#a)"><g style="opacity:.009999999776482582"><path fill="#202425" d="M7.304 7.304h27.392v27.392H7.304z" style="mix-blend-mode:passthrough"/></g><path fill="#FA4" d="M8.81 10.93c-.675-1.217.206-2.713 1.599-2.713h21.184c1.392 0 2.273 1.496 1.596 2.713L21.798 31.433a.913.913 0 0 1-1.596 0z" style="mix-blend-mode:passthrough"/><path fill="#F5FFF7" d="M14.028 9.382a.913.913 0 0 1 .878-1.165h12.188c.607 0 1.045.581.878 1.165L21.878 30.71c-.252.883-1.503.883-1.755 0z" style="mix-blend-mode:passthrough"/><path fill="#F5FFF7" d="M31.77 22.826q0 .27-.013.538-.013.269-.04.536-.026.268-.065.534t-.092.53-.118.525-.144.518-.168.51q-.091.254-.194.502-.103.249-.218.492t-.242.48-.265.468-.287.454-.31.44-.33.424q-.172.208-.352.407-.18.2-.371.39-.19.19-.39.37-.199.181-.407.352t-.424.33-.44.31-.454.288-.468.265-.48.242-.492.218-.501.193q-.254.091-.51.169-.258.078-.52.143-.26.066-.524.118-.264.053-.53.092-.266.04-.533.066-.268.026-.537.04-.268.013-.537.013-.27 0-.538-.013-.269-.014-.536-.04-.268-.026-.534-.066t-.53-.092-.525-.118-.518-.143-.51-.169q-.254-.09-.502-.193-.249-.103-.492-.218t-.48-.242-.468-.265-.455-.288q-.223-.15-.44-.31-.215-.16-.423-.33t-.407-.351q-.2-.181-.39-.371t-.37-.39-.352-.407-.33-.424-.31-.44q-.15-.223-.288-.454-.138-.23-.265-.468-.127-.237-.242-.48t-.218-.492-.193-.502-.17-.51q-.077-.258-.143-.518-.065-.261-.117-.525t-.092-.53-.066-.534-.04-.536-.013-.538.013-.537.04-.537.066-.533.092-.53.117-.525.144-.518.169-.51.193-.503.218-.491.242-.48.265-.468.288-.455.31-.44.33-.423.351-.408.371-.39.39-.37.407-.351.424-.331.44-.31.454-.287q.23-.139.468-.265.237-.127.48-.242t.492-.218.501-.194.511-.168.518-.144.525-.118.53-.092.534-.065.536-.04.538-.013.537.013.537.04.533.065.53.092.525.118q.26.065.518.144.257.078.51.168.254.09.502.194.249.103.492.218t.48.242.468.265.455.287q.223.15.44.31.215.16.423.33.208.171.408.352t.389.37.37.39q.181.2.352.408t.331.424.31.44.287.454q.139.23.265.467.127.238.242.48.115.244.218.492.103.249.194.502.09.253.168.51.078.258.144.52.065.26.118.524t.092.53.065.533.04.537.013.537" style="mix-blend-mode:passthrough"/><path fill="#5CCB76" d="M20.588 17.3a.457.457 0 0 1 .823 0l1.323 2.77c.067.139.2.235.353.255l3.044.402a.457.457 0 0 1 .255.783l-2.227 2.114a.46.46 0 0 0-.135.414l.56 3.019a.457.457 0 0 1-.667.484l-2.698-1.464a.46.46 0 0 0-.437 0l-2.698 1.464a.457.457 0 0 1-.666-.484l.559-3.019a.46.46 0 0 0-.135-.414l-2.226-2.114a.457.457 0 0 1 .254-.783l3.044-.402a.46.46 0 0 0 .353-.256z" style="mix-blend-mode:passthrough"/></g></svg>