<svg xmlns="http://www.w3.org/2000/svg" xmlns:xlink="http://www.w3.org/1999/xlink" fill="none" version="1.1" width="20" height="19" viewBox="-2 -1 20 19"><defs><clipPath id="master_svg0_98_023929"><rect x="0" y="0" width="16" height="16" rx="0"/></clipPath><linearGradient x1="0.5" y1="0" x2="1" y2="1.2383654117584229" id="master_svg1_98_024949"><stop offset="0%" stop-color="#2855B3" stop-opacity="1"/><stop offset="100%" stop-color="#D4E1FA" stop-opacity="1"/></linearGradient></defs><g clip-path="url(#master_svg0_98_023929)"><g><path d="M7.7313361,0.537109375C3.4614367,0.53710926055909,0,3.998546075,0,8.268445475C0,12.538344375,3.4614367,15.999781375,7.7313361,15.999781375C12.001235,15.999781375,15.462672,12.538344375,15.462672,8.268445475L15.462672,0.537109413146972L7.7313361,0.537109375ZM11.49263,9.884294475C10.732938,11.264893375,9.2820234,12.122577375,7.7062092,12.122577375C6.130394,12.122577375,4.6794815,11.264893375,3.9197872,9.884294475C3.8222144,9.704057675,3.8026586,9.491740275,3.8656676,9.296712875C3.9240019,9.096722575,4.0645194,8.930910075,4.2522345,8.840563775C4.6231265,8.641084675,5.0854487,8.775141675,5.292099,9.142086975C5.7827744,10.033447275,6.7196436,10.587159375,7.7371335,10.587159375C8.7546244,10.587159375,9.6914949,10.033447275,10.182169,9.142086975C10.281086,8.963806175,10.446421,8.831816675,10.642183,8.774847075C10.939202,8.696020175,11.25471,8.800584775,11.445862,9.041200675C11.637012,9.281816475,11.667513,9.612796775,11.523557,9.884294475L11.49263,9.884294475Z" fill="url(#master_svg1_98_024949)" fill-opacity="1" style="mix-blend-mode:passthrough"/></g></g></svg>