<svg xmlns="http://www.w3.org/2000/svg" width="23" height="23" fill="none"><defs><clipPath id="a"><rect width="23" height="23" rx="0"/></clipPath></defs><g clip-path="url(#a)"><path fill="#E8A772" d="M12.302 4.665q0 .105-.01.21t-.03.208-.052.204-.07.198-.09.19-.108.18-.126.169q-.066.08-.14.155t-.156.141q-.082.067-.17.126-.087.058-.18.108-.092.05-.19.09-.097.04-.197.07t-.204.051-.208.031-.21.01-.21-.01-.207-.03q-.104-.021-.204-.052t-.198-.07q-.097-.04-.19-.09t-.18-.108-.169-.126q-.081-.066-.156-.14-.074-.075-.14-.156-.068-.082-.126-.17-.058-.087-.108-.18-.05-.092-.09-.19-.04-.097-.07-.197-.031-.101-.052-.204t-.03-.208-.01-.21.01-.21.03-.208.051-.204.071-.198.09-.19q.05-.092.108-.18.058-.087.125-.169.067-.08.141-.155.075-.075.156-.141.081-.067.169-.126.087-.058.18-.108t.19-.09.198-.07q.1-.03.204-.051t.207-.031.21-.01.21.01.208.03q.103.021.204.052t.198.07.19.09.18.108.169.126q.08.066.155.14t.141.156q.067.082.126.17.058.087.108.18.05.092.09.19.04.097.07.197.03.101.051.204t.031.208.01.21" style="mix-blend-mode:passthrough"/><path fill="#153880" d="M2.75 16.917c.981-5.687 3.557-7.767 6.605-8.64 3.819-1.023 7.167-.284 10.366-1.798 1.936-.914 1.873.73 1.826.982-.45 3.818-2.507 7.412-6.797 9.137-4.67 1.855-9.3-1.608-12.636 3.818a.17.17 0 0 1-.128.063h-.414a.14.14 0 0 1-.112-.063.14.14 0 0 1-.016-.128 17.9 17.9 0 0 1 5.402-6.363 26 26 0 0 1 7.428-3.675c.225-.062.128-.415-.094-.384a22 22 0 0 0-6.03 2.226 18 18 0 0 0-5.392 4.825" style="mix-blend-mode:passthrough"/><path fill="#153880" d="M17.969 11.5q0 .07-.014.14t-.041.135-.066.124-.09.11-.109.089q-.059.039-.124.066t-.135.04q-.07.015-.14.015t-.14-.014q-.07-.014-.135-.041t-.124-.066-.11-.09-.089-.109-.066-.124-.04-.135-.015-.14.014-.14.041-.135.066-.124q.04-.06.09-.11t.109-.089q.059-.039.124-.066t.135-.04q.07-.015.14-.015t.14.014q.07.014.135.041t.124.066.11.09.089.109.066.124.04.135.015.14" style="mix-blend-mode:passthrough"/></g></svg>