<svg xmlns="http://www.w3.org/2000/svg" xmlns:xlink="http://www.w3.org/1999/xlink" fill="none" version="1.1" width="12" height="12" viewBox="0 0 12 12"><g><g><path d="M8.907079225,4.85719065L1.9534239150000001,4.85719065C1.398370745,4.85719065,1.001953125,4.85719065,1.001953125,4.285762050000001C1.001953125,3.71433355,1.398370745,3.55133915,1.9534239150000001,3.55133915L7.867633825,3.55133915L6.481707525,2.71428565C6.164534525,2.3061226599999998,5.788744925,1.99999994,6.135226225,1.64278272C6.531693025,1.23461951,6.828189325,1.285714291,7.174670725,1.64280868L9.644923225,3.55106835C9.882802025,3.79596635,10.105110125,4.17351725,9.946522725,4.50004795C9.867229425,4.90821075,9.303545925,4.85719065,8.907079225,4.85719065Z" fill="#2855B3" fill-opacity="1" style="mix-blend-mode:passthrough"/></g><g transform="matrix(-1,0,0,-1,20,21.0078125)"><path d="M17.9051261,14.00562815L10.95147079,14.00562815C10.39641762,14.00562815,10,14.00562815,10,13.43419955C10,12.86277105,10.39641762,12.69977665,10.95147079,12.69977665L16.8656807,12.69977665L15.479754400000001,11.86272315C15.1625814,11.45456016,14.7867918,11.14843744,15.1332731,10.79122022C15.5297399,10.38305701,15.8262362,10.434151791,16.1727176,10.79124618L18.6429701,12.69950585C18.8808489,12.94440385,19.103157,13.32195475,18.9445696,13.648485449999999C18.865276299999998,14.05664825,18.3015928,14.00562815,17.9051261,14.00562815Z" fill="#A6BAE2" fill-opacity="1" style="mix-blend-mode:passthrough"/></g></g></svg>