<svg xmlns="http://www.w3.org/2000/svg" width="12" height="12" fill="none"><path fill="#2855B3" d="M8.907 4.857H1.953c-.555 0-.951 0-.951-.571 0-.572.396-.735.951-.735h5.915l-1.386-.837c-.317-.408-.693-.714-.347-1.071.397-.408.693-.357 1.04 0l2.47 1.908c.238.245.46.623.302.949-.08.408-.643.357-1.04.357" style="mix-blend-mode:passthrough"/><path fill="#A6BAE2" d="M17.905 14.006h-6.954c-.555 0-.951 0-.951-.572 0-.571.396-.734.951-.734h5.915l-1.386-.837c-.317-.408-.693-.715-.347-1.072.397-.408.693-.357 1.04 0l2.47 1.909c.238.244.46.622.302.948-.08.409-.643.358-1.04.358" style="mix-blend-mode:passthrough" transform="rotate(180 10 10.504)"/></svg>