<svg xmlns="http://www.w3.org/2000/svg" xmlns:xlink="http://www.w3.org/1999/xlink" fill="none" version="1.1" width="16" height="16" viewBox="2 2 16 16"><defs><clipPath id="master_svg0_98_033567"><rect x="0" y="0" width="21" height="21" rx="0"/></clipPath></defs><g clip-path="url(#master_svg0_98_033567)"><g><path d="M13.072893125,13.0192575125C13.072893125,13.0192575125,12.565392525,12.8617573125,12.337892525,12.6342583125C12.180393225,12.4767589125,12.197892225,12.1267576125,12.337892525,11.6892586125C12.477892925,11.2342577125,14.105391625,9.4142585125,14.105391625,7.7517586125C14.105391625,5.1967580125,12.425391225,3.1142578125,10.342892124999999,3.1142578125C8.260392225,3.1142578125,6.580391625,5.1967580125,6.580391625,7.7517586125C6.580391625,9.3442583125,8.032891724999999,11.2342577125,8.207892425,11.5667581125C8.382891625,11.9167595125,8.347892725000001,12.4417591125,8.207892425,12.5992594125C7.997892825,12.8442602125,7.210392025,13.0717592125,7.210392025,13.0717592125L4.340390725,14.3492588125C3.6753907249999997,14.5942578125,3.150390625,15.2242588125,3.150390625,15.9417578125L3.150390625,16.2742578125C3.150390625,16.9742588125,3.710390565,17.5342578125,4.410390925,17.5342578125L11.235393525,17.5342578125C11.165392925,17.4817578125,11.060392825000001,17.3942598125,11.025393025,17.2367588125C10.990391725,16.921758812500002,11.007892625,15.9417588125,11.007892625,15.3292588125C11.007892625,15.1542578125,11.095393224999999,15.0667568125,11.165392925,14.9792578125L13.072893125,13.0192575125Z" fill="#FFFFFF" fill-opacity="1" style="mix-blend-mode:passthrough"/></g><g><path d="M11.63740211375,15.120546775000001C11.53240209075,15.225546875,11.46240234375,15.383046875,11.46240234375,15.540546875L11.46240234375,17.080547375000002C11.46240234375,17.395547875,11.61990235375,17.553047675000002,11.93490246375,17.553047675000002L13.49240234375,17.535547275C13.64990214375,17.535547275,13.80740214375,17.465546175,13.91240214375,17.360546575L16.36240194375,14.875545975L14.10490154375,12.635545475L11.63740211375,15.120546775000001ZM17.23740334375,12.723046674999999L16.27490234375,11.760546865C15.92490334375,11.410546601,15.347403043749999,11.410546601,14.97990294375,11.760546865L14.45490264375,12.285546835L16.71240234375,14.543046975L17.23740334375,14.018046875C17.58740234375,13.650546775,17.58740234375,13.073046775,17.23740334375,12.723046674999999Z" fill="#FFFFFF" fill-opacity="1" style="mix-blend-mode:passthrough"/></g></g></svg>