<svg xmlns="http://www.w3.org/2000/svg" width="16" height="16" fill="none" viewBox="2 2 16 16"><defs><clipPath id="a"><rect width="21" height="21" rx="0"/></clipPath></defs><g clip-path="url(#a)"><path fill="#FFF" d="M13.073 13.02s-.508-.158-.735-.386c-.158-.157-.14-.507 0-.945.14-.455 1.767-2.275 1.767-3.937 0-2.555-1.68-4.638-3.762-4.638-2.083 0-3.763 2.083-3.763 4.638 0 1.592 1.453 3.482 1.628 3.815.175.35.14.875 0 1.032-.21.245-.998.473-.998.473l-2.87 1.277c-.665.245-1.19.875-1.19 1.593v.332c0 .7.56 1.26 1.26 1.26h6.825a.5.5 0 0 1-.21-.297c-.035-.315-.017-1.295-.017-1.908 0-.175.087-.262.157-.35z" style="mix-blend-mode:passthrough"/><path fill="#FFF" d="M11.637 15.12a.6.6 0 0 0-.175.42v1.54q0 .474.473.473l1.557-.017c.158 0 .315-.07.42-.175l2.45-2.485-2.257-2.24zm5.6-2.397-.962-.962a.93.93 0 0 0-1.295 0l-.525.525 2.257 2.257.525-.525a.93.93 0 0 0 0-1.295" style="mix-blend-mode:passthrough"/></g></svg>