<svg xmlns="http://www.w3.org/2000/svg" xmlns:xlink="http://www.w3.org/1999/xlink" fill="none" version="1.1" width="62" height="58" viewBox="-1 1 62 58"><defs><clipPath id="master_svg0_103_019208"><rect x="0" y="0" width="62" height="62" rx="0"/></clipPath></defs><g clip-path="url(#master_svg0_103_019208)"><g><path d="M26.251752953125,47.0425L16.791587953125,30.651251C16.089668953125,29.416777,16.515774953125,27.847204,17.745587953125,27.137146C18.975402953125,26.427092,20.547755953125,26.842821,21.265918953125,28.067917L30.431586953125,43.945084C33.619546953124996,43.593983,36.353812953125,46.201927,36.153796953125,49.40292C35.953776953125,52.603909,32.916112953125,54.851181,29.796660953125,54.105949C26.677207953125,53.360725,24.983329953125,49.983089,26.251752953125,47.037338L26.251752953125,47.0425ZM59.416595953125,36.166668C59.416587953125,37.593405000000004,58.259986953125,38.750001999999995,56.833259953125,38.750001999999995C55.406520953125,38.750001999999995,54.249923953125,37.593401,54.249923953125,36.166668C54.249930953125,23.326043,43.840549953125,12.916667499999999,30.999919953125,12.916667499999999C18.159298953125003,12.916667499999999,7.749919453125,23.326043,7.749918453125,36.166668C7.749425853125,37.593058,6.592972753125,38.749106999999995,5.166585253125,38.749106999999995C3.7401975531250002,38.749106999999995,2.583744192145,37.593058,2.583251953125,36.166668C2.58325165748593,20.472917000000002,15.306168953125,7.75,30.999919953125,7.75C46.693671953125,7.75,59.416587953125,20.472918999999997,59.416595953125,36.166668Z" fill="#ACBCDE" fill-opacity="1" style="mix-blend-mode:passthrough"/></g></g></svg>