<svg xmlns="http://www.w3.org/2000/svg" xmlns:xlink="http://www.w3.org/1999/xlink" fill="none" version="1.1" width="20" height="20" viewBox="-3 -2 20 20"><defs><clipPath id="master_svg0_103_019138"><rect x="0" y="0" width="15" height="15" rx="0"/></clipPath></defs><g clip-path="url(#master_svg0_103_019138)"><g><path d="M2.440180284375,5L12.560181984375,5C13.822296984375,4.99981517791,14.769055984375,6.1543648,14.521681984375,7.3919996999999995L13.321681984375,13.3919992C13.134820984375,14.3268824,12.314054984375,14.9999018,11.360680984375,15L3.639679884375,15C2.686306984375,14.9998989,1.865540884375,14.3268814,1.678679984375,13.3919992L0.478679869375,7.3919996999999995C0.231345134375,6.1545646000000005,1.177768354375,5.00013103485,2.439680084375,5L2.440180284375,5Z" fill="#9AB1D6" fill-opacity="1" style="mix-blend-mode:passthrough"/></g><g><path d="M12.4999981,4.9999995Q12.4999981,5.1227427,12.4939756,5.245338Q12.4879532,5.3679333,12.4759216,5.4900851Q12.4638901,5.612237,12.4458799,5.7336516Q12.4278698,5.8550658,12.403924,5.9754505Q12.3799782,6.0958347,12.3501539,6.2148991Q12.3203306,6.3339643,12.2847004,6.4514222Q12.2490692,6.5688801,12.2077179,6.6844478Q12.1663666,6.8000154,12.1193953,6.9134154Q12.0724239,7.0268154,12.0199442,7.1377735Q11.9674644,7.2487321,11.9096041,7.3569822Q11.8517437,7.4652319,11.788641,7.5705118Q11.7255383,7.6757917,11.6573458,7.7778492Q11.5891533,7.8799067,11.5160351,7.9784946Q11.4429178,8.0770836,11.3650503,8.1719646Q11.2871828,8.2668467,11.2047539,8.3577929Q11.122324,8.44874,11.035532,8.535532Q10.9487391,8.622324,10.8577919,8.7047529Q10.7668457,8.7871828,10.6719637,8.8650503Q10.5770817,8.9429169,10.4784937,9.0160351Q10.3799057,9.0891523,10.2778487,9.1573448Q10.175791700000001,9.2255373,10.0705113,9.28864Q9.9652309,9.3517437,9.856981300000001,9.4096041Q9.7487311,9.4674644,9.637773,9.5199442Q9.5268145,9.5724239,9.413415,9.6193953Q9.3000154,9.6663666,9.1844473,9.7077179Q9.0688791,9.7490692,8.951421700000001,9.7847004Q8.8339639,9.8203316,8.7148991,9.8501549Q8.595834700000001,9.8799791,8.47545,9.9039249Q8.3550653,9.9278708,8.2336512,9.9458809Q8.1122365,9.963892,7.9900846,9.9759226Q7.8679323,9.9879532,7.745337,9.9939766Q7.6227417,9.999999,7.499999,9.999999Q7.3772559,9.999999,7.2546606,9.9939766Q7.1320648,9.9879532,7.009913,9.9759226Q6.8877611,9.963892,6.7663465,9.9458809Q6.6449318,9.9278708,6.5245471,9.9039249Q6.404162400000001,9.8799791,6.2850981,9.8501549Q6.1660333000000005,9.8203316,6.0485755999999995,9.7847004Q5.9311178,9.7490692,5.815549900000001,9.7077179Q5.6999817,9.6663666,5.5865819000000005,9.6193953Q5.4731822,9.5724239,5.3622239,9.5199451Q5.251265500000001,9.4674664,5.1430156,9.409605Q5.0347656999999995,9.3517437,4.9294856,9.288641Q4.8242052,9.2255383,4.7221478999999995,9.1573458Q4.6200907,9.0891533,4.5215027,9.0160351Q4.4229145,8.9429188,4.328033,8.8650513Q4.2331512,8.7871838,4.1422045,8.7047539Q4.051258,8.6223249,3.9644655,8.535533Q3.8776729999999997,8.44874,3.7952439,8.3577938Q3.7128145999999997,8.2668476,3.6349473000000003,8.1719656Q3.5570798,8.0770836,3.48396182,7.9784956Q3.41084385,7.8799071,3.3426514899999997,7.7778497Q3.27445912,7.6757927,3.21135652,7.5705123Q3.14825404,7.4652319,3.0903933,7.3569827Q3.03253257,7.2487326,2.98005313,7.137774Q2.92757368,7.0268154,2.88060194,6.9134159Q2.8336302,6.8000159,2.7922793,6.6844482Q2.7509284,6.5688801,2.71529797,6.4514227Q2.67966753,6.3339643,2.64984339,6.2149Q2.62001926,6.0958347,2.596073277,5.9754505Q2.57212729,5.8550658,2.554117147,5.7336512Q2.536107,5.612237,2.524076074,5.4900856Q2.512045148,5.3679333,2.506022431,5.245338Q2.49999971389775,5.1227427,2.49999971389772,4.9999995Q2.49999971389775,4.8772564,2.506022431,4.7546606Q2.512045148,4.6320653,2.524076074,4.5099134Q2.536107,4.3877611,2.554117143,4.2663469Q2.57212729,4.1449318,2.596073277,4.0245476Q2.62001926,3.9041629,2.64984339,3.7850983Q2.67966753,3.6660337,2.71529798,3.5485761Q2.7509284,3.431118,2.7922793,3.3155499Q2.8336302,3.1999819,2.88060194,3.0865822Q2.92757368,2.9731822,2.98005313,2.8622239Q3.03253257,2.7512655,3.0903933,2.6430159Q3.14825398,2.5347662,3.21135652,2.4294858Q3.2744590000000002,2.3242054,3.34265143,2.2221484Q3.41084385,2.1200912,3.48396182,2.0215032Q3.5570798,1.922915,3.6349473000000003,1.8280334Q3.7128145999999997,1.7331517,3.7952437000000003,1.642205Q3.8776729999999997,1.5512583,3.9644655,1.4644659Q4.051258,1.3776734,4.1422045999999995,1.2952441Q4.2331512,1.2128148,4.328033,1.1349475Q4.4229145,1.05708,4.5215025,0.98396212Q4.6200907,0.91084409,4.7221478999999995,0.84265172Q4.8242049,0.77445936,4.9294853,0.71135676Q5.0347656999999995,0.64825428,5.1430156,0.59039354Q5.251265,0.53253287,5.3622236,0.48005342Q5.4731817,0.42757398,5.5865817,0.38060224Q5.6999815,0.3336305,5.8155494,0.2922796Q5.9311175,0.2509287,6.0485754,0.21529828Q6.1660333000000005,0.17966783,6.2850976,0.14984369Q6.404162400000001,0.12001956,6.5245471,0.096073575Q6.6449318,0.072127588,6.7663465,0.054117437Q6.8877611,0.036107287,7.009913,0.024076363Q7.1320648,0.012045436,7.2546606,0.0060227178Q7.3772559,0,7.499999,0Q7.6227417,0,7.745337,0.0060227178Q7.8679323,0.012045436,7.9900846,0.024076363Q8.1122365,0.036107287,8.2336512,0.054117437Q8.3550653,0.072127588,8.47545,0.096073575Q8.595834700000001,0.12001956,8.7148991,0.14984371Q8.8339639,0.17966785,8.951421700000001,0.2152983Q9.0688791,0.25092873,9.1844473,0.2922796Q9.3000154,0.3336305,9.413415,0.38060224Q9.5268145,0.42757398,9.6377726,0.48005345Q9.7487311,0.53253287,9.856981300000001,0.5903936Q9.9652309,0.64825428,10.0705109,0.71135682Q10.1757908,0.77445936,10.277848200000001,0.84265172Q10.3799057,0.91084409,10.4784942,0.98396206Q10.5770826,1.05708,10.6719646,1.1349475Q10.7668457,1.2128148,10.8577929,1.2952441Q10.9487391,1.3776734,11.035532,1.4644659Q11.122324,1.5512583,11.2047529,1.642205Q11.2871828,1.7331517,11.3650503,1.8280334Q11.4429169,1.922915,11.5160351,2.021503Q11.5891523,2.1200912,11.6573448,2.2221484Q11.7255373,2.3242054,11.78864,2.4294858Q11.8517437,2.5347662,11.9096041,2.6430159Q11.9674644,2.7512655,12.0199442,2.8622239Q12.0724239,2.9731822,12.1193953,3.0865822Q12.1663666,3.1999819,12.2077179,3.3155501Q12.2490692,3.431118,12.2847004,3.5485761Q12.3203316,3.6660337,12.3501549,3.7850983Q12.3799791,3.9041629,12.4039249,4.0245476Q12.4278708,4.1449318,12.4458809,4.2663465Q12.463892,4.3877611,12.4759226,4.5099134Q12.4879532,4.6320653,12.4939756,4.7546606Q12.4999981,4.8772564,12.4999981,4.9999995Z" fill="#003D99" fill-opacity="1" style="mix-blend-mode:passthrough"/></g><g><path d="M7.155078114375,5.532609975C7.693071064375,5.808984275,8.352010534375,5.559177175,8.571577934375,4.995609475C8.962642634375,3.940692375,9.224874734375,2.842407675,9.352577734375,1.724609375C8.451289034375,2.390714045,7.631933334375,3.161062875,6.911578164375,4.019609475C6.599120154375,4.5131861749999995,6.703798677375,5.1622802750000005,7.155578224375,5.532609475L7.155078114375,5.532609975Z" fill="#FE8080" fill-opacity="1" style="mix-blend-mode:passthrough"/></g></g></svg>