<svg xmlns="http://www.w3.org/2000/svg" width="21" height="21" fill="none"><path fill="#62C868" d="M21 10.81q0 .25-.012.5t-.037.5-.061.495-.086.493-.11.488-.133.482-.157.475-.18.467-.203.457-.225.447-.247.435-.268.422-.288.41q-.149.2-.308.394-.159.193-.327.378-.168.186-.345.363-.177.176-.362.344-.186.168-.38.327-.193.159-.394.308t-.41.288-.422.267-.436.247-.447.225-.457.202q-.232.096-.467.18-.236.085-.476.157-.24.073-.482.134-.243.06-.488.11-.246.048-.494.085-.247.036-.496.06-.25.025-.5.038t-.5.012q-.25 0-.5-.012t-.5-.037-.496-.061-.494-.086-.488-.11-.482-.133-.476-.157q-.235-.084-.467-.18-.23-.095-.457-.202t-.447-.225q-.221-.118-.436-.247-.215-.128-.423-.267-.208-.14-.409-.288-.201-.15-.395-.308-.193-.159-.379-.327-.185-.168-.362-.344-.177-.177-.345-.363-.168-.185-.327-.378-.159-.194-.308-.395-.15-.2-.288-.409-.14-.208-.268-.422-.129-.215-.247-.435t-.225-.447-.203-.457-.18-.467-.157-.475q-.073-.24-.133-.482t-.11-.488-.086-.493-.06-.496-.038-.499-.012-.5.012-.5.037-.498.061-.497.086-.493.11-.488q.06-.242.133-.482.073-.239.157-.474.084-.236.18-.467t.203-.457.225-.447.247-.435.268-.423.288-.409q.149-.2.308-.394.159-.193.327-.379.168-.185.345-.362t.362-.345.38-.326.394-.308q.201-.15.41-.288.207-.139.422-.268.215-.128.436-.246.22-.118.447-.225.226-.107.457-.203.232-.095.467-.18t.476-.157.482-.133q.243-.06.488-.11.246-.048.494-.085.247-.037.496-.061.25-.025.5-.037t.5-.012q.25 0 .5.012t.5.037.496.061.494.085q.245.05.488.11t.482.133.476.157q.235.085.467.18.23.096.457.203t.447.225q.221.118.436.246.215.129.423.268t.409.288.395.308.379.326.362.345.345.362.327.38.308.393.288.41q.14.207.268.422.129.214.247.435.118.22.225.447.107.226.203.457t.18.467.157.474.133.482.11.488.086.493.06.497.038.498.012.5" style="mix-blend-mode:passthrough"/><path fill="#153880" d="M20.133 10.058q0 .247-.012.494t-.036.492-.06.49-.085.487-.108.481-.132.476-.155.47-.178.46-.2.451-.222.441-.244.43-.264.417-.285.403-.304.39-.322.373-.341.358-.358.34-.374.323-.39.303-.404.285-.417.264-.43.243-.441.222-.452.2-.46.178q-.234.083-.47.155-.237.071-.476.131-.24.06-.482.109-.243.048-.487.084-.245.036-.49.06-.247.025-.493.037-.247.012-.494.012t-.494-.012-.493-.037-.49-.06-.487-.084-.482-.109-.477-.131-.469-.155-.46-.178-.452-.2-.442-.222-.43-.243-.417-.264-.404-.285-.39-.303-.374-.323-.358-.34-.34-.358-.323-.374-.304-.389-.284-.403-.265-.417-.243-.43-.222-.441-.2-.451-.179-.46-.155-.47-.131-.476-.109-.481-.084-.487-.06-.49-.037-.492T0 10.058t.012-.493.036-.492.061-.49.084-.487.109-.482.131-.475.155-.47.178-.46.2-.451.223-.441.243-.43.265-.417.284-.403.304-.39.323-.373.34-.358.358-.34.374-.323.39-.304.404-.284.417-.264.43-.243.442-.222.451-.2.461-.178.47-.155.476-.132.482-.108T8.59.11t.49-.06.493-.037.494-.012.494.012.492.036.49.06.488.085.482.108.476.132.47.155.46.178.452.2.441.222.43.243.417.264.404.284q.199.148.39.304.191.157.374.323.183.165.358.34t.34.358q.167.183.323.373.157.191.304.39.148.198.285.403t.264.417.244.43.222.44q.106.224.2.452t.178.46.155.47.132.475.108.482.084.487q.037.244.06.49.025.245.037.492t.012.493" style="mix-blend-mode:passthrough"/><path fill="#FFF" d="m11.252 5.674.84 1.775a1 1 0 0 0 .762.569l1.882.288c.823.123 1.155 1.181.56 1.785l-1.365 1.39a1.08 1.08 0 0 0-.29.927l.325 1.95c.14.858-.718 1.505-1.462 1.103l-1.69-.918a.99.99 0 0 0-.936 0l-1.69.918c-.735.402-1.602-.245-1.462-1.102l.324-1.95a1.09 1.09 0 0 0-.289-.928L5.396 10.1c-.595-.603-.272-1.661.56-1.784l1.882-.289c.324-.052.613-.262.762-.568l.84-1.776a.993.993 0 0 1 1.812-.008" style="mix-blend-mode:passthrough"/></svg>