<svg xmlns="http://www.w3.org/2000/svg" xmlns:xlink="http://www.w3.org/1999/xlink" fill="none" version="1.1" width="42" height="42" viewBox="0 0 42 42"><defs><linearGradient x1="259.0714111328125" y1="593.9370727539062" x2="489.0714111328125" y2="593.9370727539062" id="master_svg0_101_015580"><stop offset="0%" stop-color="#FFFFFF" stop-opacity="1"/><stop offset="100%" stop-color="#ECD5D2" stop-opacity="1"/></linearGradient></defs><g><g><rect x="0" y="0" width="42" height="42" rx="16" fill="#F4AF6E" fill-opacity="1"/></g><g><g><path d="M34.99999842575836,21.899009409179687Q34.99999842575836,22.220621409179685,34.984204425758364,22.54184440917969Q34.96840942575837,22.86306840917969,34.936861425758366,23.183131409179687Q34.90531442575836,23.503193409179687,34.85808442575836,23.821323409179687Q34.810854425758365,24.139453409179687,34.74806042575836,24.454883409179686Q34.68526742575836,24.770315409179688,34.60705842575836,25.082286409179687Q34.52884942575837,25.394260409179687,34.43541442575837,25.70202440917969Q34.34197842575836,26.009786409179686,34.23354242575836,26.312597409179688Q34.12510542575836,26.615408409179686,34.00192742575836,26.91253840917969Q33.87875042575836,27.209667409179687,33.74113142575836,27.500400409179687Q33.60351242575836,27.791133409179686,33.45178242575837,28.074771409179686Q33.30005142575836,28.358408409179688,33.13457342575836,28.63426440917969Q32.96909742575836,28.910118409179688,32.79027442575836,29.177528409179686Q32.61144842575836,29.444938409179688,32.41970842575836,29.703260409179688Q32.22796842575836,29.961582409179687,32.02377542575836,30.210189409179687Q31.81958042575836,30.458797409179688,31.60342242575836,30.69709540917969Q31.38726442575836,30.935394409179686,31.15966442575836,31.16280740917969Q30.93206642575836,31.390220409179687,30.69357142575836,31.606201409179686Q30.455078425758362,31.822181409179688,30.206267425758362,32.02621040917968Q29.957453425758363,32.23023940917969,29.69892142575836,32.421821409179685Q29.440390425758363,32.613407409179686,29.172760425758362,32.79208340917969Q28.905131425758363,32.97076040917969,28.629051425758362,33.13610040917969Q28.352968425758363,33.30144340917968,28.069102425758363,33.45305040917969Q27.785233425758364,33.60465640917968,27.494261425758364,33.74216040917969Q27.203291425758362,33.87966740917969,26.905916425758363,34.00274240917969Q26.60854442575836,34.12581640917969,26.305485425758363,34.23416540917969Q26.002424425758363,34.342514409179685,25.694410425758363,34.43587340917969Q25.386395425758362,34.529232409179684,25.07416642575836,34.607376409179686Q24.76193742575836,34.68552240917968,24.446248425758363,34.74826640917969Q24.130558425758363,34.81101040917969,23.81216742575836,34.85820040917969Q23.493776425758362,34.905391409179686,23.17345342575836,34.93691640917969Q22.853128425758364,34.968437409179685,22.531641425758362,34.98421840917969Q22.21015442575836,35.00000040917969,21.888279425758363,35.00000040917969Q21.56640542575836,35.00000040917969,21.24491742575836,34.98421840917969Q20.923432425758364,34.968437409179685,20.60310742575836,34.93691640917969Q20.282782425758363,34.905391409179686,19.96439042575836,34.85820040917969Q19.64599942575836,34.81101040917969,19.33030942575836,34.74826640917969Q19.014620425758363,34.68552440917969,18.70239122575836,34.60737840917969Q18.39016402575836,34.529232409179684,18.082149125758363,34.43587540917969Q17.77413432575836,34.342514409179685,17.471073725758362,34.23416540917969Q17.168015125758362,34.12582040917969,16.870641325758363,34.002744409179684Q16.573267625758362,33.879669409179684,16.282296825758362,33.742162409179684Q15.991325525758363,33.60465640917968,15.707457625758362,33.45304840917969Q15.42358932575836,33.30144140917969,15.147508225758362,33.13610040917969Q14.871427225758362,32.97076040917969,14.60379852575836,32.79208340917969Q14.336169325758362,32.613407409179686,14.077637325758362,32.421821409179685Q13.819105225758362,32.23023940917969,13.570293025758362,32.02621040917968Q13.321480425758363,31.822181409179688,13.082987425758361,31.606201409179686Q12.844493525758363,31.390220409179687,12.616893925758362,31.16280740917969Q12.389294225758363,30.935394409179686,12.173136325758362,30.69709540917969Q11.956978425758361,30.458797409179688,11.752783425758363,30.210189409179687Q11.548588425758362,29.961582409179687,11.356847925758363,29.703260409179688Q11.165107325758362,29.444938409179688,10.986283225758362,29.177528409179686Q10.807459225758361,28.910118409179688,10.641982625758361,28.63426440917969Q10.476506125758362,28.358408409179688,10.32477542575836,28.074771409179686Q10.173044825758362,27.791135409179688,10.035425625758363,27.50040240917969Q9.897806525758362,27.209671409179688,9.774630485758362,26.912540409179687Q9.651454385758361,26.615409409179687,9.543018105758362,26.312599409179686Q9.434581875758361,26.009788409179688,9.341146585758361,25.702026409179688Q9.247711305758362,25.394264409179687,9.169502135758362,25.082288409179686Q9.091292975758362,24.770316409179685,9.028498385758361,24.454884409179687Q8.965703755758362,24.139453409179687,8.918474955758361,23.821323409179687Q8.871246151758362,23.503194409179688,8.839696928758363,23.183132409179688Q8.808147698758361,22.863069409179687,8.792354061758362,22.541845409179686Q8.776560425758362,22.220621409179685,8.776560425758362,21.899009409179687Q8.776560425758362,21.577398409179686,8.792354061758362,21.256174409179685Q8.808147698758361,20.93495140917969,8.839696928758363,20.61488940917969Q8.871246151758362,20.294825409179687,8.918474955758361,19.976695409179687Q8.965703755758362,19.65856340917969,9.028498385758361,19.343132409179688Q9.091292975758362,19.027700409179687,9.169502135758362,18.715726809179685Q9.247711305758362,18.403755209179685,9.341146585758361,18.09599210917969Q9.434581875758361,17.788229009179688,9.543018105758362,17.485418309179686Q9.651454385758361,17.182606709179687,9.774630485758362,16.88547710917969Q9.897806525758362,16.588346909179688,10.035425625758363,16.297614109179687Q10.173044825758362,16.006880809179687,10.324775625758361,15.723245109179688Q10.476506125758362,15.439609509179688,10.641982925758361,15.163754009179687Q10.807459425758362,14.887898409179687,10.986283425758362,14.620488609179688Q11.165107325758362,14.353078409179687,11.356848125758361,14.094758009179689Q11.548588625758361,13.836437209179689,11.752783925758362,13.587829109179687Q11.956978925758362,13.339220009179687,12.173136325758362,13.100921609179688Q12.389294225758363,12.862623709179687,12.616893925758362,12.635210309179687Q12.844493525758363,12.407796909179687,13.082987425758361,12.191815809179687Q13.321480425758363,11.975835109179688,13.570293025758362,11.771807209179688Q13.819105225758362,11.567779109179687,14.077637325758362,11.376195409179687Q14.336169325758362,11.184611809179687,14.60379852575836,11.005934009179688Q14.871427225758362,10.827256409179688,15.147508225758362,10.661915209179687Q15.42358932575836,10.496573909179688,15.707458125758361,10.344967509179687Q15.991325925758362,10.193361009179688,16.282296825758362,10.055854409179688Q16.573267625758362,9.918347909179687,16.870641325758363,9.795272709179688Q17.168015125758362,9.672197459179687,17.471073725758362,9.563849929179687Q17.774133325758363,9.455502389179687,18.08214822575836,9.362143579179687Q18.390163025758362,9.268784729179687,18.70239122575836,9.190639589179687Q19.014620425758363,9.112494409179687,19.33030942575836,9.049751189179688Q19.64599942575836,8.987007959179687,19.96439042575836,8.939817819179687Q20.282782425758363,8.892627641179688,20.60310742575836,8.861104242179687Q20.923432425758364,8.829580832179687,21.244918425758364,8.813800121179687Q21.56640542575836,8.798019409179688,21.888279425758363,8.798019409179688Q22.21015442575836,8.798019409179688,22.53164042575836,8.813800121179687Q22.853128425758364,8.829580832179687,23.17345342575836,8.861104242179687Q23.493776425758362,8.892627641179688,23.81216742575836,8.939817799179687Q24.13055742575836,8.987007959179687,24.44624742575836,9.049751189179688Q24.761936425758364,9.112494409179687,25.07416642575836,9.190639589179687Q25.38639342575836,9.268784729179687,25.694409425758362,9.362143579179687Q26.002423425758362,9.455502389179687,26.305481425758362,9.563849929179687Q26.608542425758362,9.672197459179687,26.90591442575836,9.795272709179688Q27.20328742575836,9.918347909179687,27.494261425758364,10.055854509179687Q27.78523142575836,10.193361009179688,28.06910042575836,10.344967609179687Q28.352968425758363,10.496574009179687,28.62904942575836,10.661915209179687Q28.905131425758363,10.827256409179688,29.17275842575836,11.005934009179688Q29.44038842575836,11.184611809179687,29.698919425758362,11.376195209179688Q29.957453425758363,11.567778809179687,30.206267425758362,11.771806909179688Q30.455078425758362,11.975834809179688,30.69357142575836,12.191815809179687Q30.932064425758362,12.407796909179687,31.159662425758363,12.635210309179687Q31.387263425758363,12.862623709179687,31.60342042575836,13.100921609179688Q31.819578425758362,13.339220009179687,32.023773425758364,13.587829109179687Q32.22796842575836,13.836437209179689,32.41970742575836,14.094758009179689Q32.61144842575836,14.353078409179687,32.79027242575836,14.620488609179688Q32.96909542575836,14.887898409179687,33.13457342575836,15.163754009179687Q33.30004942575836,15.439609509179688,33.45178042575836,15.723245609179688Q33.60351042575836,16.00688120917969,33.74112942575836,16.297614109179687Q33.87874842575836,16.588346909179688,34.00192542575836,16.88547710917969Q34.12510142575836,17.182606709179687,34.23353842575836,17.485418309179686Q34.341974425758366,17.788229009179688,34.43541242575836,18.095993009179686Q34.52884742575836,18.403755209179685,34.60705442575836,18.71572780917969Q34.685263425758365,19.027700409179687,34.74805842575836,19.343133409179686Q34.810854425758365,19.65856440917969,34.85808442575836,19.976695409179687Q34.90531442575836,20.294826409179688,34.93686342575836,20.61488940917969Q34.96841142575836,20.93495140917969,34.98420542575836,21.256174409179685Q34.99999842575836,21.577398409179686,34.99999842575836,21.899009409179687Z" fill="#62C868" fill-opacity="1" style="mix-blend-mode:passthrough"/></g><g><path d="M33.885801,20.932308Q33.885799,21.249779,33.870209,21.566867000000002Q33.85462,21.883954,33.823477,22.199896000000003Q33.792334,22.515836999999998,33.745712,22.829871Q33.699093000000005,23.143906,33.637106,23.455275999999998Q33.575119,23.766645,33.497917,24.074602Q33.420715,24.382559,33.328484,24.686359Q33.236248,24.99016,33.129208,25.289072Q33.022166999999996,25.587982,32.900577999999996,25.881287Q32.778988,26.174591,32.643141,26.461582Q32.507294,26.748573,32.357517,27.028557Q32.207737,27.30854,32.044392,27.580843Q31.881046,27.853146,31.704525,28.117111Q31.528004,28.381079,31.338732,28.636074Q31.149462,28.891068,30.947897,29.136477Q30.74633,29.381882,30.532955,29.617113Q30.31958,29.852341,30.094912,30.076828Q29.870243,30.301311,29.634819,30.514513Q29.399397,30.727715,29.15379,30.929117Q28.908178,31.130516,28.652975,31.319633Q28.39777,31.508751,28.133587,31.685127Q27.869404,31.861506,27.596878,32.024716999999995Q27.324352,32.187931,27.04414,32.337585000000004Q26.763927,32.48724,26.476702,32.622974Q26.189476,32.758711000000005,25.895931,32.880201Q25.602386,33.001694,25.30323,33.108644Q25.004072,33.215599,24.700024,33.307755Q24.395975,33.39991,24.087767,33.477051Q23.779559,33.554187999999996,23.467934,33.616125Q23.156309,33.678061,22.842018,33.724644Q22.527727,33.771226999999996,22.211527,33.802345Q21.895327,33.833462,21.577978,33.849039000000005Q21.260631,33.864616,20.942901,33.864616Q20.62517,33.864616,20.307822,33.849039000000005Q19.990475,33.833462,19.674274,33.802345Q19.358074000000002,33.771225,19.043781,33.724644Q18.72949,33.678059000000005,18.417865,33.616123Q18.106239000000002,33.554187999999996,17.7980309,33.477049Q17.4898224,33.39991,17.1857738,33.307755Q16.8817253,33.215597,16.5825682,33.108644Q16.283411,33.001689999999996,15.9898663,32.880199000000005Q15.6963215,32.758708999999996,15.4090967,32.622972000000004Q15.1218719,32.487238000000005,14.841659499999999,32.337585000000004Q14.561446199999999,32.187931,14.288919400000001,32.024719000000005Q14.0163932,31.861506,13.7522101,31.685127Q13.488026600000001,31.508751,13.232823400000001,31.319633Q12.9776201,31.130516,12.7320113,30.929117Q12.4864025,30.727715,12.2509794,30.514513Q12.015557300000001,30.301311,11.7908876,30.076828Q11.5662181,29.852341,11.3528435,29.617113Q11.1394689,29.381882,10.937902900000001,29.136477Q10.736336699999999,28.891068,10.5470653,28.636074Q10.3577933,28.381079,10.181271800000001,28.117111Q10.0047503,27.853146,9.8414041,27.580843Q9.6780581,27.30854,9.5282812,27.028557Q9.378504,26.748573,9.2426568,26.461582Q9.1068096,26.174591,8.98521948,25.881287Q8.86362934,25.587982,8.75658923,25.28907Q8.64954913,24.99016,8.55731684,24.686359Q8.46508455,24.382559,8.38788241,24.074602Q8.31068024,23.766645,8.24869415,23.455275999999998Q8.18670803,23.143906,8.14008732,22.829871Q8.09346661,22.515836999999998,8.062323593,22.199896000000003Q8.031180574,21.883954,8.015590287,21.566865999999997Q8,21.249779,8,20.932308Q8,20.614838,8.015590287,20.29775Q8.031180574,19.980660999999998,8.062323593,19.664721Q8.09346661,19.348778,8.14008732,19.034743Q8.18670803,18.720709,8.24869415,18.40934Q8.31068024,18.097969,8.38788241,17.7900133Q8.46508461,17.482057599999997,8.5573169,17.178257000000002Q8.64954913,16.8744564,8.75658923,16.5755444Q8.86362934,16.2766314,8.98521948,15.9833274Q9.1068096,15.690022899999999,9.2426568,15.4030333Q9.378504,15.116043600000001,9.5282812,14.83606Q9.6780581,14.556076000000001,9.8414042,14.283772500000001Q10.0047503,14.0114689,10.181271800000001,13.7475023Q10.3577933,13.4835358,10.547065,13.228540899999999Q10.736336699999999,12.973546500000001,10.937902900000001,12.728138399999999Q11.1394689,12.4827309,11.3528435,12.2475004Q11.5662181,12.0122709,11.7908876,11.7877851Q12.015557300000001,11.5632997,12.2509799,11.3500996Q12.4864025,11.1368997,12.7320113,10.9354987Q12.9776201,10.7340975,13.232823400000001,10.5449808Q13.488026600000001,10.355864,13.7522097,10.1794868Q14.0163927,10.0031097,14.288919400000001,9.8398973Q14.561446199999999,9.676684999999999,14.841659100000001,9.5270306Q15.1218719,9.377376,15.4090967,9.2416399Q15.6963215,9.1059037,15.9898663,8.98441321Q16.283411,8.86292255,16.5825682,8.75597006Q16.8817253,8.64901757,17.1857748,8.5568608Q17.489823299999998,8.46470404,17.7980318,8.38756505Q18.10624,8.31042603,18.417866,8.24849063Q18.72949,8.18655525,19.043782,8.13997269Q19.358074000000002,8.093390122,19.674274,8.062272593Q19.990475,8.031155059,20.307822,8.01557753Q20.62517,8,20.942901,8Q21.260631,8,21.577978,8.01557753Q21.895327,8.031155059,22.211527,8.062272593Q22.527727,8.093390122,22.842018,8.13997269Q23.156309,8.18655525,23.467934,8.24849063Q23.779559,8.31042603,24.087769,8.38756502Q24.395975,8.46470404,24.700024,8.5568608Q25.004072,8.64901757,25.30323,8.75597Q25.602386,8.86292255,25.895931,8.98441321Q26.189476,9.1059037,26.476702,9.2416399Q26.763927,9.3773758,27.04414,9.5270305Q27.324352,9.6766849,27.596878,9.8398974Q27.869404,10.0031097,28.133589,10.1794868Q28.397772,10.355864,28.652975,10.5449808Q28.90818,10.7340975,29.15379,10.9354987Q29.399397,11.1368997,29.634819,11.3500998Q29.870243,11.5632997,30.094912,11.7877851Q30.31958,12.0122709,30.532955,12.2475004Q30.74633,12.4827309,30.947895,12.728138399999999Q31.149462,12.973546500000001,31.338734,13.228540899999999Q31.528006,13.4835358,31.704527,13.7475023Q31.881046,14.0114689,32.044392,14.283772500000001Q32.207739000000004,14.556076000000001,32.357517,14.836059599999999Q32.507294,15.116043099999999,32.643141,15.4030333Q32.778988,15.690022899999999,32.900577999999996,15.9833274Q33.022166999999996,16.2766314,33.129208,16.5755444Q33.236248,16.8744564,33.328484,17.178257000000002Q33.420715,17.482057599999997,33.497917,17.7900133Q33.575119,18.097969,33.637106,18.40934Q33.699093000000005,18.720709,33.745714,19.034743Q33.792336,19.348778,33.823479,19.664721Q33.854622,19.980660999999998,33.870211,20.29775Q33.885799,20.614838,33.885801,20.932308Z" fill="url(#master_svg0_101_015580)" fill-opacity="1" style="mix-blend-mode:passthrough"/></g><g><path d="M22.46682695578003,15.294690015780029L23.54727795578003,17.57752895578003C23.73860975578003,17.97112085578003,24.09875725578003,18.25225755578003,24.52643825578003,18.308485255780028L26.946198455780028,18.67958495578003C28.00413845578003,18.83701755578003,28.43181345578003,20.19772525578003,27.66649545578003,20.97365995578003L25.910763455780028,22.761695355780027C25.60688545578003,23.065324355780028,25.47183045578003,23.515143855780032,25.539360455780027,23.953712955780027L25.95578245578003,26.46146145578003C26.135857455780027,27.563518455780027,25.03289945578003,28.39568045578003,24.07624955578003,27.87839045578003L21.90409185578003,26.697614455780027C21.532688655780028,26.495195455780028,21.07124565578003,26.495195455780028,20.69984195578003,26.697614455780027L18.52768375578003,27.87839045578003C17.582289455780028,28.39568045578003,16.46807535578003,27.563518455780027,16.64815135578003,26.46146145578003L17.06457285578003,23.953712955780027C17.132101755780027,23.515143855780032,16.997043855780028,23.07656715578003,16.69316915578003,22.761695355780027L14.93743610578003,20.98490905578003C14.17211812578003,20.208968155780028,14.58853984278003,18.848267055780028,15.65773595578003,18.69082785578003L18.07749535578003,18.31972835578003C18.49392055578003,18.25225755578003,18.86532445578003,17.98236365578003,19.056655455780028,17.58877105578003L20.137107355780028,15.30593961578003C20.621057055780028,14.29384598578003,21.99413105578003,14.29384598578003,22.46682695578003,15.294690015780029Z" fill="#F4AF6E" fill-opacity="1" style="mix-blend-mode:passthrough"/></g></g></g></svg>