<svg xmlns="http://www.w3.org/2000/svg" width="72" height="72" fill="none"><circle cx="36" cy="36" r="32" fill="#BDCFF4"/><path fill="#FFF" fill-opacity=".52" d="M71 36q0 .86-.042 1.717-.042.859-.127 1.714t-.21 1.705-.294 1.692q-.167.843-.376 1.676-.209.834-.458 1.656t-.539 1.631-.618 1.603-.696 1.57-.773 1.535-.847 1.495-.919 1.451-.989 1.404-1.057 1.355-1.122 1.3-1.184 1.245-1.244 1.184-1.301 1.122-1.355 1.057-1.404.99-1.451.918-1.495.847-1.535.773-1.57.696-1.603.618-1.631.539q-.822.25-1.656.458-.833.209-1.676.376-.843.168-1.692.294-.85.126-1.705.21-.855.085-1.714.127Q36.86 71 36 71t-1.717-.042-1.714-.127-1.705-.21-1.692-.294-1.676-.376-1.656-.458-1.631-.539q-.81-.29-1.603-.618-.794-.329-1.57-.696-.777-.368-1.535-.773t-1.495-.847q-.737-.441-1.451-.919-.714-.477-1.404-.989t-1.355-1.057-1.3-1.122-1.245-1.184-1.184-1.244-1.122-1.301-1.057-1.355-.99-1.404-.919-1.451q-.441-.737-.846-1.495t-.773-1.535-.696-1.57-.618-1.603q-.29-.809-.539-1.631t-.458-1.656-.376-1.676-.294-1.692-.21-1.705q-.085-.855-.127-1.714Q1 36.86 1 36t.042-1.717.127-1.714.21-1.705.294-1.692.376-1.676.458-1.656.539-1.631q.29-.81.618-1.603.329-.794.696-1.57.368-.777.773-1.535t.846-1.495.92-1.451.989-1.404 1.057-1.355 1.122-1.3 1.184-1.245q.608-.607 1.244-1.184.637-.577 1.301-1.122t1.355-1.057 1.404-.99 1.451-.919 1.495-.846 1.535-.773q.776-.367 1.57-.696t1.603-.618 1.631-.539 1.656-.458 1.676-.376 1.692-.294 1.705-.21 1.714-.127T36 1t1.717.042q.859.042 1.714.127t1.705.21 1.692.294q.843.167 1.676.376.834.209 1.656.458t1.631.539 1.603.618 1.57.696 1.535.773 1.495.846 1.451.92 1.404.989 1.355 1.057 1.3 1.122 1.245 1.184 1.184 1.244 1.122 1.301 1.057 1.355.99 1.404.918 1.451.847 1.495.773 1.535.696 1.57.618 1.603.539 1.631q.25.822.458 1.656.209.833.376 1.676.168.843.294 1.692.126.85.21 1.705.085.855.127 1.714Q71 35.14 71 36m-3 0q0-.786-.039-1.57-.038-.785-.115-1.567t-.192-1.558q-.116-.777-.269-1.548-.153-.77-.344-1.532t-.419-1.514-.493-1.491-.565-1.466-.636-1.436-.707-1.403-.774-1.366-.84-1.327-.904-1.284-.967-1.239-1.026-1.189-1.083-1.137-1.137-1.083-1.19-1.026q-.607-.499-1.238-.967-.63-.468-1.284-.904-.653-.436-1.327-.84t-1.366-.774-1.403-.707-1.436-.636-1.466-.565-1.49-.493q-.753-.228-1.515-.419t-1.532-.344q-.77-.153-1.548-.269-.777-.115-1.558-.192-.782-.077-1.567-.115T36 4t-1.57.039-1.567.115-1.558.192-1.548.269-1.532.344-1.514.419-1.491.493-1.466.565-1.436.636-1.403.707q-.692.37-1.366.774t-1.327.84-1.284.904-1.239.967-1.189 1.026-1.137 1.083q-.556.555-1.083 1.137-.528.582-1.026 1.19-.499.607-.967 1.238-.468.63-.904 1.284-.436.653-.84 1.327t-.774 1.366-.707 1.403-.636 1.436-.565 1.466-.493 1.49q-.228.753-.419 1.515t-.344 1.532q-.153.77-.269 1.548-.115.777-.192 1.558-.077.782-.115 1.567T4 36t.039 1.57.115 1.567q.077.781.192 1.558.116.777.269 1.548.153.77.344 1.532t.419 1.514.493 1.491.565 1.466.636 1.436.707 1.403.774 1.366.84 1.327.904 1.284.967 1.239 1.026 1.189 1.083 1.137 1.137 1.083 1.19 1.026q.607.499 1.238.967.63.468 1.284.904.653.436 1.327.84t1.366.774 1.403.707 1.436.636 1.466.565 1.49.493q.753.228 1.515.419t1.532.344q.77.153 1.548.269.777.115 1.558.192.782.077 1.567.115T36 68t1.57-.039 1.567-.115q.781-.077 1.558-.192.777-.116 1.548-.269.77-.153 1.532-.344t1.514-.419 1.491-.493 1.466-.565 1.436-.636 1.403-.707 1.366-.774 1.327-.84 1.284-.904 1.239-.967 1.189-1.026 1.137-1.083 1.083-1.137 1.026-1.19q.499-.607.967-1.238.468-.63.904-1.284.436-.653.84-1.327t.774-1.366.707-1.403.636-1.436.565-1.466.493-1.49q.228-.753.419-1.515t.344-1.532q.153-.77.269-1.548.115-.777.192-1.558.077-.782.115-1.567T68 36"/><path fill="#597CC4" d="M31.262 38.1s-6.383.948-6.269-6.284c0 0-1.482.118-1.596-.83-.114-.949 1.254-3.794 1.368-3.676.114.119-.912-10.999 11-11.31 0 0 9.06-.313 8.661 11.07 0 0 .059 3.441-2.221 6.05s-2.85 6.995.798 9.722c3.647 2.727 8.32 3.32 7.979 17.665L51 64l-29.996-.766s-.114-7.943.912-11.974c0 0 1.14-4.387 6.839-8.3 0 0 2.963-1.185 2.507-4.86" style="mix-blend-mode:passthrough"/><path fill="#A6BAE2" d="M21 63.5v-4.208s5.052-4.668 13.248-.377S50.527 54.044 50.527 53c0 0 1.708 4.853.473 11 0 0-16 9-30-.5" style="mix-blend-mode:passthrough"/><path fill="#2855B3" d="M31 38q4.164.684 7-1s-2.25 5.564-10 6.5c0 0 .625-.35 1.5-1s2-1.6 1.5-4.5" style="mix-blend-mode:passthrough"/><path fill="#FFF" d="M52.912 33.617s-2.694-2.664-4.86-.94c0 0-4.42 2.803 4.86 10.323 0 0 9.312-6.608 4.903-10.323q-2.428-1.723-4.903.94" style="mix-blend-mode:passthrough"/><path fill="#2855B3" fill-rule="evenodd" d="m58.427 31.885-.033-.024q-2.794-1.982-5.53.409-.522-.377-1.14-.672-2.426-1.158-4.256.266-.415.279-.777.79-.734 1.036-.688 2.398.124 3.738 6.28 8.725l.589.478.619-.44q2.432-1.726 4.292-3.94 1.712-2.04 2.102-3.801.553-2.495-1.426-4.162zm-1.225 1.583q-1.698-1.171-3.558.83l-.702.756-.733-.726q-.554-.547-1.345-.925-1.325-.632-2.189.056l-.042.033-.045.03q-.11.069-.265.288-.345.486-.322 1.175.09 2.667 4.946 6.748 1.847-1.41 3.304-3.144 2.888-3.44.951-5.12" style="mix-blend-mode:passthrough"/></svg>